{
.appVersion = "895";
copyright = "SIL Open Font License";
customParameters = (
{
name = description;
value = "";
},
{
name = license;
value = "SIL Open Font License";
},
{
name = licenseURL;
value = "http://scripts.sil.org/OFL";
},
{
name = vendorID;
value = Bird;
},
{
name = panose;
value = (
0,
0,
0,
0,
0,
0,
0,
0,
0,
0
);
},
{
name = unicodeRanges;
value = (
0
);
},
{
name = codePageRanges;
value = (
1252,
1250,
1254,
1256,
865,
863,
861,
860,
857,
852,
850,
437
);
},
{
name = glyphOrder;
value = (
.notdef,
uni0000,
uni000D,
space,
a,
b,
c,
d,
e,
f,
g,
h,
i,
j,
l,
m,
n,
o,
p,
q,
r,
s,
t,
u,
v,
x,
ccedilla,
notdef_2,
alt._a,
alt._e,
alt._e2,
alt._i,
alt._m,
alt._m2,
alt._n,
alt._n2,
alt._o,
alt.d,
ll,
tt,
vr
);
}
);
date = "2017-11-27 10:25:30 +0000";
familyName = Typeface;
features = (
{
code = "sub a from [alt._a ];\012sub d from [alt.d ];\012sub e from [alt._e alt._e2 ];\012sub i from [alt._i ];\012sub l from [ll ];\012sub m from [alt._m alt._m2 ];\012sub n from [alt._n alt._n2 ];\012sub o from [alt._o ];\012sub t from [tt ];\012";
name = salt;
}
);
fontMaster = (
{
ascender = 860;
capHeight = 860;
customParameters = (
{
name = typoAscender;
value = 860;
},
{
name = typoDescender;
value = -276;
},
{
name = typoLineGap;
value = 100;
},
{
name = winAscent;
value = 860;
},
{
name = winDescent;
value = 276;
},
{
name = hheaAscender;
value = 860;
},
{
name = hheaDescender;
value = -276;
},
{
name = underlinePosition;
value = -2;
},
{
name = underlineThickness;
value = 1;
}
);
descender = -276;
id = "7E101512-652C-46F2-AEC5-615E4561C90F";
weightValue = 400;
widthValue = 5;
xHeight = 573;
}
);
glyphs = (
{
glyphname = .notdef;
lastChange = "2017-11-27 10:26:32 +0000";
layers = (
{
layerId = "7E101512-652C-46F2-AEC5-615E4561C90F";
paths = (
{
closed = 1;
nodes = (
"51 279 OFFCURVE",
"51 412 OFFCURVE",
"51 501 CURVE SMOOTH",
"51 560 OFFCURVE",
"51 605 OFFCURVE",
"51 635 CURVE",
"188 635 OFFCURVE",
"290 635 OFFCURVE",
"358 635 CURVE",
"358 369 OFFCURVE",
"358 191 OFFCURVE",
"358 102 CURVE",
"205 102 OFFCURVE",
"102 102 OFFCURVE",
"51 102 CURVE"
);
},
{
closed = 1;
nodes = (
"0 404 OFFCURVE",
"0 192 OFFCURVE",
"0 51 CURVE",
"182 51 OFFCURVE",
"319 51 OFFCURVE",
"410 51 CURVE",
"410 368 OFFCURVE",
"410 580 OFFCURVE",
"410 686 CURVE",
"205 686 OFFCURVE",
"68 686 OFFCURVE",
"0 686 CURVE"
);
}
);
width = 543;
}
);
note = .notdef;
},
{
glyphname = a;
lastChange = "2017-11-29 13:28:28 +0000";
layers = (
{
layerId = "7E101512-652C-46F2-AEC5-615E4561C90F";
paths = (
{
closed = 1;
nodes = (
"443 325 OFFCURVE",
"432 331 OFFCURVE",
"425 331 CURVE SMOOTH",
"414 331 OFFCURVE",
"406 326 OFFCURVE",
"402 308 CURVE",
"402 308 OFFCURVE",
"402 308 OFFCURVE",
"402 308 CURVE",
"370 171 OFFCURVE",
"377 173 OFFCURVE",
"346 124 CURVE SMOOTH",
"321 82 OFFCURVE",
"258 57 OFFCURVE",
"211 61 CURVE SMOOTH",
"192 63 OFFCURVE",
"173 63 OFFCURVE",
"212 89 CURVE SMOOTH",
"258 119 OFFCURVE",
"290 280 OFFCURVE",
"236 305 CURVE SMOOTH",
"161 339 OFFCURVE",
"54 304 OFFCURVE",
"10 200 CURVE",
"5 191 OFFCURVE",
"6 158 OFFCURVE",
"6 109 CURVE SMOOTH",
"6 98 OFFCURVE",
"61 46 OFFCURVE",
"85 31 CURVE SMOOTH",
"122 6 OFFCURVE",
"147 0 OFFCURVE",
"212 4 CURVE SMOOTH",
"277 8 OFFCURVE",
"311 26 OFFCURVE",
"320 33 CURVE SMOOTH",
"358 62 OFFCURVE",
"388 119 OFFCURVE",
"397 99 CURVE",
"411 59 OFFCURVE",
"428 20 OFFCURVE",
"483 -3 CURVE SMOOTH",
"529 -22 OFFCURVE",
"662 -54 OFFCURVE",
"662 -34 CURVE",
"662 -26 OFFCURVE",
"646 -12 OFFCURVE",
"631 -4 CURVE",
"505 59 OFFCURVE",
"495 61 OFFCURVE",
"482 78 CURVE SMOOTH",
"468 96 OFFCURVE",
"445 175 OFFCURVE",
"442 184 CURVE SMOOTH",
"435 205 OFFCURVE",
"436 217 OFFCURVE",
"446 244 CURVE SMOOTH",
"455 267 OFFCURVE",
"462 308 OFFCURVE",
"456 313 CURVE SMOOTH"
);
},
{
closed = 1;
nodes = (
"128 275 OFFCURVE",
"179 265 CURVE",
"185 265 OFFCURVE",
"200 261 OFFCURVE",
"214 246 CURVE",
"227 230 OFFCURVE",
"200 165 OFFCURVE",
"174 93 CURVE SMOOTH",
"166 73 OFFCURVE",
"168 55 OFFCURVE",
"144 60 CURVE",
"110 66 OFFCURVE",
"73 108 OFFCURVE",
"73 154 CURVE SMOOTH",
"73 202 OFFCURVE"
);
}
);
width = 574;
},
{
associatedMasterId = "7E101512-652C-46F2-AEC5-615E4561C90F";
layerId = "E59CAF07-E6BE-429E-A10D-A2CDC03994D1";
name = Automatique;
paths = (
{
closed = 1;
nodes = (
"443 325 OFFCURVE",
"432 331 OFFCURVE",
"425 331 CURVE SMOOTH",
"421 331 OFFCURVE",
"418 329 OFFCURVE",
"416 326 CURVE",
"411 316 OFFCURVE",
"406 310 OFFCURVE",
"402 308 CURVE",
"402 308 OFFCURVE",
"402 308 OFFCURVE",
"402 308 CURVE SMOOTH",
"401 308 OFFCURVE",
"378 211 OFFCURVE",
"378 211 CURVE SMOOTH",
"378 211 OFFCURVE",
"378 211 OFFCURVE",
"378 211 CURVE",
"373 200 OFFCURVE",
"371 193 OFFCURVE",
"372 188 CURVE",
"372 183 OFFCURVE",
"373 180 OFFCURVE",
"374 177 CURVE",
"374 177 OFFCURVE",
"374 175 OFFCURVE",
"373 172 CURVE",
"373 169 OFFCURVE",
"364 153 OFFCURVE",
"346 124 CURVE SMOOTH",
"325 89 OFFCURVE",
"299 78 OFFCURVE",
"282 74 CURVE SMOOTH",
"247 65 OFFCURVE",
"223 60 OFFCURVE",
"211 61 CURVE SMOOTH",
"199 62 OFFCURVE",
"192 62 OFFCURVE",
"190 63 CURVE",
"179 68 OFFCURVE",
"187 73 OFFCURVE",
"195 78 CURVE",
"195 79 OFFCURVE",
"201 82 OFFCURVE",
"212 89 CURVE SMOOTH",
"223 96 OFFCURVE",
"231 107 OFFCURVE",
"234 123 CURVE",
"235 131 OFFCURVE",
"241 141 OFFCURVE",
"252 152 CURVE",
"273 175 OFFCURVE",
"272 181 OFFCURVE",
"269 193 CURVE",
"268 199 OFFCURVE",
"268 208 OFFCURVE",
"268 221 CURVE",
"267 238 OFFCURVE",
"266 249 OFFCURVE",
"263 255 CURVE SMOOTH",
"260 261 OFFCURVE",
"258 265 OFFCURVE",
"258 266 CURVE",
"249 289 OFFCURVE",
"242 302 OFFCURVE",
"236 305 CURVE SMOOTH",
"230 308 OFFCURVE",
"226 310 OFFCURVE",
"224 311 CURVE",
"210 317 OFFCURVE",
"198 319 OFFCURVE",
"187 318 CURVE SMOOTH",
"176 317 OFFCURVE",
"165 318 OFFCURVE",
"154 321 CURVE",
"117 328 OFFCURVE",
"81 294 OFFCURVE",
"65 273 CURVE",
"52 254 OFFCURVE",
"45 245 OFFCURVE",
"44 244 CURVE SMOOTH",
"43 243 OFFCURVE",
"43 243 OFFCURVE",
"43 243 CURVE",
"40 237 OFFCURVE",
"38 232 OFFCURVE",
"37 227 CURVE SMOOTH",
"36 222 OFFCURVE",
"29 217 OFFCURVE",
"16 213 CURVE",
"16 212 OFFCURVE",
"14 208 OFFCURVE",
"10 200 CURVE",
"7 193 OFFCURVE",
"6 176 OFFCURVE",
"6 151 CURVE SMOOTH",
"6 148 OFFCURVE",
"6 144 OFFCURVE",
"6 141 CURVE SMOOTH",
"6 122 OFFCURVE",
"6 111 OFFCURVE",
"6 109 CURVE SMOOTH",
"6 106 OFFCURVE",
"23 87 OFFCURVE",
"56 51 CURVE",
"57 50 OFFCURVE",
"66 43 OFFCURVE",
"85 31 CURVE SMOOTH",
"122 6 OFFCURVE",
"147 0 OFFCURVE",
"212 4 CURVE SMOOTH",
"277 8 OFFCURVE",
"311 26 OFFCURVE",
"320 33 CURVE SMOOTH",
"324 36 OFFCURVE",
"327 39 OFFCURVE",
"328 40 CURVE SMOOTH",
"343 54 OFFCURVE",
"353 63 OFFCURVE",
"358 67 CURVE",
"367 75 OFFCURVE",
"377 83 OFFCURVE",
"380 99 CURVE",
"382 107 OFFCURVE",
"388 107 OFFCURVE",
"397 99 CURVE",
"404 80 OFFCURVE",
"409 70 OFFCURVE",
"412 69 CURVE",
"415 69 OFFCURVE",
"421 60 OFFCURVE",
"432 42 CURVE",
"432 41 OFFCURVE",
"483 -3 OFFCURVE",
"483 -3 CURVE",
"486 -5 OFFCURVE",
"489 -5 OFFCURVE",
"493 -4 CURVE",
"498 -2 OFFCURVE",
"505 -5 OFFCURVE",
"514 -14 CURVE",
"516 -15 OFFCURVE",
"528 -19 OFFCURVE",
"551 -24 CURVE SMOOTH",
"596 -35 OFFCURVE",
"642 -40 OFFCURVE",
"647 -40 CURVE",
"647 -40 OFFCURVE",
"647 -40 OFFCURVE",
"647 -40 CURVE",
"650 -40 OFFCURVE",
"655 -38 OFFCURVE",
"662 -34 CURVE",
"662 -33 OFFCURVE",
"662 -32 OFFCURVE",
"662 -31 CURVE SMOOTH",
"662 -25 OFFCURVE",
"660 -22 OFFCURVE",
"655 -23 CURVE SMOOTH",
"650 -24 OFFCURVE",
"648 -24 OFFCURVE",
"647 -24 CURVE",
"643 -13 OFFCURVE",
"638 -7 OFFCURVE",
"631 -4 CURVE",
"625 -1 OFFCURVE",
"613 6 OFFCURVE",
"594 15 CURVE",
"591 16 OFFCURVE",
"587 17 OFFCURVE",
"581 18 CURVE",
"570 21 OFFCURVE",
"489 65 OFFCURVE",
"482 78 CURVE SMOOTH",
"479 84 OFFCURVE",
"477 90 OFFCURVE",
"474 96 CURVE",
"468 111 OFFCURVE",
"464 118 OFFCURVE",
"463 119 CURVE SMOOTH",
"462 120 OFFCURVE",
"460 123 OFFCURVE",
"459 129 CURVE",
"450 160 OFFCURVE",
"444 179 OFFCURVE",
"442 184 CURVE SMOOTH",
"440 189 OFFCURVE",
"439 191 OFFCURVE",
"439 192 CURVE",
"432 205 OFFCURVE",
"441 231 OFFCURVE",
"446 244 CURVE SMOOTH",
"451 256 OFFCURVE",
"448 257 OFFCURVE",
"444 264 CURVE",
"440 270 OFFCURVE",
"444 277 OFFCURVE",
"455 286 CURVE SMOOTH",
"466 295 OFFCURVE",
"466 304 OFFCURVE",
"456 313 CURVE SMOOTH"
);
},
{
closed = 1;
nodes = (
"168 261 OFFCURVE",
"174 264 OFFCURVE",
"179 265 CURVE",
"180 265 OFFCURVE",
"180 265 OFFCURVE",
"180 265 CURVE",
"185 265 OFFCURVE",
"197 259 OFFCURVE",
"214 246 CURVE",
"210 235 OFFCURVE",
"210 229 OFFCURVE",
"213 227 CURVE",
"215 226 OFFCURVE",
"216 223 OFFCURVE",
"216 220 CURVE SMOOTH",
"216 215 OFFCURVE",
"214 207 OFFCURVE",
"211 197 CURVE SMOOTH",
"206 179 OFFCURVE",
"203 169 OFFCURVE",
"204 166 CURVE",
"205 164 OFFCURVE",
"200 158 OFFCURVE",
"189 147 CURVE",
"186 140 OFFCURVE",
"185 137 OFFCURVE",
"186 136 CURVE",
"187 136 OFFCURVE",
"187 122 OFFCURVE",
"183 118 CURVE",
"181 115 OFFCURVE",
"178 107 OFFCURVE",
"174 93 CURVE SMOOTH",
"169 74 OFFCURVE",
"166 61 OFFCURVE",
"142 66 CURVE",
"141 66 OFFCURVE",
"139 65 OFFCURVE",
"136 63 CURVE",
"136 63 OFFCURVE",
"136 63 OFFCURVE",
"135 63 CURVE SMOOTH",
"131 63 OFFCURVE",
"118 74 OFFCURVE",
"96 96 CURVE",
"96 96 OFFCURVE",
"92 100 OFFCURVE",
"84 107 CURVE",
"77 114 OFFCURVE",
"73 129 OFFCURVE",
"73 154 CURVE SMOOTH",
"73 167 OFFCURVE",
"78 205 OFFCURVE",
"93 214 CURVE",
"97 218 OFFCURVE",
"127 249 OFFCURVE",
"142 249 CURVE",
"142 249 OFFCURVE",
"156 249 OFFCURVE",
"161 254 CURVE SMOOTH"
);
}
);
width = 574;
},
{
associatedMasterId = "7E101512-652C-46F2-AEC5-615E4561C90F";
background = {
paths = (
{
closed = 1;
nodes = (
"443 325 OFFCURVE",
"432 331 OFFCURVE",
"425 331 CURVE SMOOTH",
"414 331 OFFCURVE",
"406 326 OFFCURVE",
"402 308 CURVE",
"402 308 OFFCURVE",
"402 308 OFFCURVE",
"402 308 CURVE",
"370 171 OFFCURVE",
"377 173 OFFCURVE",
"346 124 CURVE SMOOTH",
"325 89 OFFCURVE",
"299 78 OFFCURVE",
"282 74 CURVE SMOOTH",
"247 65 OFFCURVE",
"223 60 OFFCURVE",
"211 61 CURVE SMOOTH",
"192 63 OFFCURVE",
"173 63 OFFCURVE",
"212 89 CURVE SMOOTH",
"223 96 OFFCURVE",
"231 107 OFFCURVE",
"234 123 CURVE",
"235 131 OFFCURVE",
"241 141 OFFCURVE",
"252 152 CURVE",
"274 176 OFFCURVE",
"276 226 OFFCURVE",
"263 255 CURVE SMOOTH",
"258 264 OFFCURVE",
"245 300 OFFCURVE",
"236 305 CURVE SMOOTH",
"221 313 OFFCURVE",
"206 320 OFFCURVE",
"187 318 CURVE SMOOTH",
"176 317 OFFCURVE",
"165 318 OFFCURVE",
"154 321 CURVE",
"113 329 OFFCURVE",
"45 268 OFFCURVE",
"37 227 CURVE SMOOTH",
"35 219 OFFCURVE",
"19 217 OFFCURVE",
"10 200 CURVE",
"5 191 OFFCURVE",
"6 158 OFFCURVE",
"6 109 CURVE SMOOTH",
"6 98 OFFCURVE",
"61 46 OFFCURVE",
"85 31 CURVE SMOOTH",
"122 6 OFFCURVE",
"147 0 OFFCURVE",
"212 4 CURVE SMOOTH",
"277 8 OFFCURVE",
"311 26 OFFCURVE",
"320 33 CURVE SMOOTH",
"324 36 OFFCURVE",
"327 39 OFFCURVE",
"328 40 CURVE SMOOTH",
"377 85 OFFCURVE",
"389 117 OFFCURVE",
"397 99 CURVE",
"411 59 OFFCURVE",
"428 20 OFFCURVE",
"483 -3 CURVE SMOOTH",
"529 -22 OFFCURVE",
"662 -54 OFFCURVE",
"662 -34 CURVE",
"662 -26 OFFCURVE",
"646 -12 OFFCURVE",
"631 -4 CURVE",
"505 59 OFFCURVE",
"495 61 OFFCURVE",
"482 78 CURVE SMOOTH",
"468 96 OFFCURVE",
"445 175 OFFCURVE",
"442 184 CURVE SMOOTH",
"435 205 OFFCURVE",
"436 217 OFFCURVE",
"446 244 CURVE SMOOTH",
"455 267 OFFCURVE",
"462 308 OFFCURVE",
"456 313 CURVE SMOOTH"
);
},
{
closed = 1;
nodes = (
"168 261 OFFCURVE",
"174 265 OFFCURVE",
"179 265 CURVE",
"185 265 OFFCURVE",
"200 261 OFFCURVE",
"214 246 CURVE",
"227 230 OFFCURVE",
"200 165 OFFCURVE",
"174 93 CURVE SMOOTH",
"166 73 OFFCURVE",
"168 55 OFFCURVE",
"144 60 CURVE",
"110 66 OFFCURVE",
"73 108 OFFCURVE",
"73 154 CURVE SMOOTH",
"73 192 OFFCURVE",
"109 249 OFFCURVE",
"142 249 CURVE",
"142 249 OFFCURVE",
"156 249 OFFCURVE",
"161 254 CURVE SMOOTH"
);
}
);
};
layerId = "F8DC7BD7-5B53-4D41-9BBE-BA697082DDC7";
name = Squelette;
paths = (
{
closed = 0;
nodes = (
"170 56 LINE",
"236 246 LINE",
"195 260 OFFCURVE",
"191 338 OFFCURVE",
"113 287 CURVE",
"35 236 OFFCURVE",
"20 137 OFFCURVE",
"59 86 CURVE SMOOTH",
"98 35 OFFCURVE",
"320 -29 OFFCURVE",
"363 107 CURVE SMOOTH",
"420 287 LINE"
);
},
{
closed = 0;
nodes = (
"638 -23 LINE",
"574 8 OFFCURVE",
"471 6 OFFCURVE",
"446 69 CURVE",
"393 207 LINE"
);
}
);
width = 574;
},
{
associatedMasterId = "7E101512-652C-46F2-AEC5-615E4561C90F";
layerId = "E2B73E02-F592-4926-98FA-AAEBACCA3FE2";
name = Manuelle;
paths = (
{
closed = 1;
nodes = (
"443 325 OFFCURVE",
"432 331 OFFCURVE",
"425 331 CURVE SMOOTH",
"414 331 OFFCURVE",
"406 326 OFFCURVE",
"402 308 CURVE",
"402 308 OFFCURVE",
"402 308 OFFCURVE",
"402 308 CURVE",
"370 171 OFFCURVE",
"377 173 OFFCURVE",
"346 124 CURVE SMOOTH",
"321 82 OFFCURVE",
"258 57 OFFCURVE",
"211 61 CURVE SMOOTH",
"192 63 OFFCURVE",
"173 63 OFFCURVE",
"212 89 CURVE SMOOTH",
"258 119 OFFCURVE",
"289 275 OFFCURVE",
"236 305 CURVE SMOOTH",
"221 314 OFFCURVE",
"206 320 OFFCURVE",
"187 318 CURVE SMOOTH",
"90 309 OFFCURVE",
"60 294 OFFCURVE",
"10 200 CURVE",
"5 191 OFFCURVE",
"6 158 OFFCURVE",
"6 109 CURVE SMOOTH",
"6 98 OFFCURVE",
"61 46 OFFCURVE",
"85 31 CURVE SMOOTH",
"122 6 OFFCURVE",
"147 0 OFFCURVE",
"212 4 CURVE SMOOTH",
"277 8 OFFCURVE",
"311 26 OFFCURVE",
"320 33 CURVE SMOOTH",
"358 62 OFFCURVE",
"388 119 OFFCURVE",
"397 99 CURVE",
"411 59 OFFCURVE",
"428 20 OFFCURVE",
"483 -3 CURVE SMOOTH",
"529 -22 OFFCURVE",
"662 -54 OFFCURVE",
"662 -34 CURVE",
"662 -26 OFFCURVE",
"646 -12 OFFCURVE",
"631 -4 CURVE",
"505 59 OFFCURVE",
"495 61 OFFCURVE",
"482 78 CURVE SMOOTH",
"468 96 OFFCURVE",
"445 175 OFFCURVE",
"442 184 CURVE SMOOTH",
"435 205 OFFCURVE",
"436 217 OFFCURVE",
"446 244 CURVE SMOOTH",
"455 267 OFFCURVE",
"462 308 OFFCURVE",
"456 313 CURVE SMOOTH"
);
},
{
closed = 1;
nodes = (
"128 275 OFFCURVE",
"179 265 CURVE",
"185 265 OFFCURVE",
"200 261 OFFCURVE",
"214 246 CURVE",
"227 230 OFFCURVE",
"200 165 OFFCURVE",
"174 93 CURVE SMOOTH",
"166 73 OFFCURVE",
"168 55 OFFCURVE",
"144 60 CURVE",
"110 66 OFFCURVE",
"73 108 OFFCURVE",
"73 154 CURVE SMOOTH",
"73 202 OFFCURVE"
);
}
);
width = 574;
visible = 1;
}
);
note = a;
unicode = 0061;
},
{
glyphname = b;
lastChange = "2017-11-27 22:02:58 +0000";
layers = (
{
layerId = "7E101512-652C-46F2-AEC5-615E4561C90F";
paths = (
{
closed = 1;
nodes = (
"286 1129 OFFCURVE",
"236 1140 OFFCURVE",
"214 1102 CURVE SMOOTH",
"198 1073 OFFCURVE",
"191 1063 OFFCURVE",
"203 1016 CURVE SMOOTH",
"218 949 OFFCURVE",
"182 585 OFFCURVE",
"185 532 CURVE",
"170 497 OFFCURVE",
"61 437 OFFCURVE",
"-31 386 CURVE SMOOTH",
"-54 374 OFFCURVE",
"-61 370 OFFCURVE",
"-61 348 CURVE",
"6 349 LINE",
"9 381 OFFCURVE",
"140 419 OFFCURVE",
"152 436 CURVE SMOOTH",
"161 450 OFFCURVE",
"171 460 OFFCURVE",
"182 465 CURVE",
"171 403 OFFCURVE",
"167 321 OFFCURVE",
"176 251 CURVE SMOOTH",
"193 124 OFFCURVE",
"232 -4 OFFCURVE",
"280 -3 CURVE SMOOTH",
"331 -3 OFFCURVE",
"357 -1 OFFCURVE",
"389 12 CURVE SMOOTH",
"420 25 OFFCURVE",
"513 103 OFFCURVE",
"524 127 CURVE SMOOTH",
"542 163 OFFCURVE",
"545 165 OFFCURVE",
"580 210 CURVE SMOOTH",
"589 221 OFFCURVE",
"598 244 OFFCURVE",
"606 278 CURVE SMOOTH",
"615 317 OFFCURVE",
"618 322 OFFCURVE",
"630 360 CURVE SMOOTH",
"638 385 OFFCURVE",
"720 370 OFFCURVE",
"738 368 CURVE SMOOTH",
"764 365 OFFCURVE",
"844 382 OFFCURVE",
"864 381 CURVE",
"875 405 OFFCURVE",
"876 458 OFFCURVE",
"876 473 CURVE",
"822 437 OFFCURVE",
"781 430 OFFCURVE",
"697 430 CURVE SMOOTH",
"633 430 OFFCURVE",
"625 468 OFFCURVE",
"606 499 CURVE SMOOTH",
"592 522 OFFCURVE",
"578 544 OFFCURVE",
"556 544 CURVE",
"530 544 OFFCURVE",
"526 513 OFFCURVE",
"526 477 CURVE",
"526 465 OFFCURVE",
"557 432 OFFCURVE",
"572 428 CURVE",
"577 386 OFFCURVE",
"576 360 OFFCURVE",
"565 336 CURVE",
"542 293 OFFCURVE",
"541 230 OFFCURVE",
"499 193 CURVE SMOOTH",
"491 186 OFFCURVE",
"483 176 OFFCURVE",
"474 163 CURVE",
"412 89 OFFCURVE",
"391 71 OFFCURVE",
"298 59 CURVE",
"280 93 OFFCURVE",
"268 127 OFFCURVE",
"261 162 CURVE SMOOTH",
"228 329 OFFCURVE",
"249 335 OFFCURVE",
"249 469 CURVE SMOOTH",
"248 501 OFFCURVE",
"250 520 OFFCURVE",
"256 527 CURVE SMOOTH",
"327 610 OFFCURVE",
"414 782 OFFCURVE",
"413 888 CURVE SMOOTH",
"412 964 OFFCURVE",
"372 1042 OFFCURVE",
"312 1102 CURVE"
);
},
{
closed = 1;
nodes = (
"336 1000 OFFCURVE",
"354 965 OFFCURVE",
"360 893 CURVE",
"360 811 OFFCURVE",
"323 703 OFFCURVE",
"265 628 CURVE",
"259 696 OFFCURVE",
"280 1019 OFFCURVE",
"281 1019 CURVE",
"283 1021 LINE"
);
}
);
width = 876;
},
{
associatedMasterId = "7E101512-652C-46F2-AEC5-615E4561C90F";
layerId = "877A5FDE-B27E-45CB-AB77-976DFEA7CC15";
name = Automatique;
paths = (
{
closed = 1;
nodes = (
"296 1125 OFFCURVE",
"251 1125 OFFCURVE",
"228 1125 CURVE",
"227 1124 OFFCURVE",
"222 1116 OFFCURVE",
"214 1102 CURVE SMOOTH",
"198 1073 OFFCURVE",
"191 1063 OFFCURVE",
"203 1016 CURVE SMOOTH",
"214 969 OFFCURVE",
"219 956 OFFCURVE",
"210 941 CURVE SMOOTH",
"205 933 OFFCURVE",
"206 918 OFFCURVE",
"212 895 CURVE",
"214 886 OFFCURVE",
"212 877 OFFCURVE",
"205 868 CURVE SMOOTH",
"198 859 OFFCURVE",
"198 842 OFFCURVE",
"205 818 CURVE",
"205 817 OFFCURVE",
"203 807 OFFCURVE",
"198 787 CURVE SMOOTH",
"193 767 OFFCURVE",
"190 752 OFFCURVE",
"190 742 CURVE",
"188 697 OFFCURVE",
"188 668 OFFCURVE",
"189 655 CURVE SMOOTH",
"192 628 OFFCURVE",
"185 582 OFFCURVE",
"184 581 CURVE",
"183 581 OFFCURVE",
"183 565 OFFCURVE",
"185 532 CURVE",
"182 530 OFFCURVE",
"180 527 OFFCURVE",
"179 524 CURVE",
"177 521 OFFCURVE",
"151 499 OFFCURVE",
"101 460 CURVE",
"101 460 OFFCURVE",
"98 458 OFFCURVE",
"92 455 CURVE",
"87 452 OFFCURVE",
"46 429 OFFCURVE",
"-31 386 CURVE SMOOTH",
"-50 376 OFFCURVE",
"-60 370 OFFCURVE",
"-61 367 CURVE",
"-62 366 OFFCURVE",
"-62 364 OFFCURVE",
"-62 361 CURVE SMOOTH",
"-62 358 OFFCURVE",
"-62 353 OFFCURVE",
"-61 348 CURVE",
"-13 351 OFFCURVE",
"11 354 OFFCURVE",
"12 357 CURVE",
"13 361 OFFCURVE",
"18 363 OFFCURVE",
"27 363 CURVE SMOOTH",
"48 363 OFFCURVE",
"69 370 OFFCURVE",
"88 383 CURVE SMOOTH",
"107 396 OFFCURVE",
"120 405 OFFCURVE",
"129 410 CURVE SMOOTH",
"136 414 OFFCURVE",
"143 423 OFFCURVE",
"152 436 CURVE SMOOTH",
"161 450 OFFCURVE",
"171 460 OFFCURVE",
"182 465 CURVE",
"175 426 OFFCURVE",
"172 396 OFFCURVE",
"173 374 CURVE SMOOTH",
"174 351 OFFCURVE",
"174 337 OFFCURVE",
"175 332 CURVE",
"178 309 OFFCURVE",
"178 298 OFFCURVE",
"175 297 CURVE",
"172 297 OFFCURVE",
"172 282 OFFCURVE",
"176 251 CURVE SMOOTH",
"181 215 OFFCURVE",
"183 197 OFFCURVE",
"182 196 CURVE SMOOTH",
"181 195 OFFCURVE",
"183 188 OFFCURVE",
"189 174 CURVE SMOOTH",
"193 165 OFFCURVE",
"195 158 OFFCURVE",
"194 152 CURVE",
"193 141 OFFCURVE",
"229 -4 OFFCURVE",
"280 -3 CURVE SMOOTH",
"331 -3 OFFCURVE",
"357 -1 OFFCURVE",
"389 12 CURVE SMOOTH",
"420 25 OFFCURVE",
"513 103 OFFCURVE",
"524 127 CURVE SMOOTH",
"530 139 OFFCURVE",
"534 147 OFFCURVE",
"536 150 CURVE SMOOTH",
"555 178 OFFCURVE",
"565 193 OFFCURVE",
"567 195 CURVE",
"569 196 OFFCURVE",
"573 201 OFFCURVE",
"580 210 CURVE SMOOTH",
"589 221 OFFCURVE",
"598 244 OFFCURVE",
"606 278 CURVE SMOOTH",
"614 313 OFFCURVE",
"618 330 OFFCURVE",
"619 331 CURVE",
"622 337 OFFCURVE",
"625 347 OFFCURVE",
"630 360 CURVE SMOOTH",
"635 374 OFFCURVE",
"644 374 OFFCURVE",
"659 361 CURVE",
"663 357 OFFCURVE",
"672 358 OFFCURVE",
"685 363 CURVE SMOOTH",
"698 368 OFFCURVE",
"715 370 OFFCURVE",
"738 368 CURVE SMOOTH",
"753 367 OFFCURVE",
"776 370 OFFCURVE",
"807 377 CURVE SMOOTH",
"838 384 OFFCURVE",
"857 385 OFFCURVE",
"864 381 CURVE",
"875 405 OFFCURVE",
"876 458 OFFCURVE",
"876 473 CURVE",
"843 451 OFFCURVE",
"825 441 OFFCURVE",
"821 443 CURVE",
"817 444 OFFCURVE",
"807 443 OFFCURVE",
"792 440 CURVE SMOOTH",
"752 432 OFFCURVE",
"727 428 OFFCURVE",
"716 429 CURVE SMOOTH",
"705 430 OFFCURVE",
"699 430 OFFCURVE",
"697 430 CURVE SMOOTH",
"633 430 OFFCURVE",
"625 468 OFFCURVE",
"606 499 CURVE SMOOTH",
"591 524 OFFCURVE",
"579 538 OFFCURVE",
"570 541 CURVE",
"561 543 OFFCURVE",
"557 544 OFFCURVE",
"556 544 CURVE",
"535 527 OFFCURVE",
"525 513 OFFCURVE",
"526 501 CURVE",
"526 488 OFFCURVE",
"526 480 OFFCURVE",
"526 477 CURVE",
"542 448 OFFCURVE",
"557 432 OFFCURVE",
"572 428 CURVE",
"575 401 OFFCURVE",
"577 388 OFFCURVE",
"577 387 CURVE",
"577 387 OFFCURVE",
"575 380 OFFCURVE",
"572 367 CURVE SMOOTH",
"571 362 OFFCURVE",
"571 360 OFFCURVE",
"573 359 CURVE",
"574 358 OFFCURVE",
"572 351 OFFCURVE",
"565 336 CURVE",
"554 316 OFFCURVE",
"551 304 OFFCURVE",
"555 299 CURVE",
"558 294 OFFCURVE",
"556 289 OFFCURVE",
"547 286 CURVE",
"547 269 OFFCURVE",
"544 259 OFFCURVE",
"539 256 CURVE",
"533 253 OFFCURVE",
"526 241 OFFCURVE",
"517 218 CURVE",
"513 209 OFFCURVE",
"507 200 OFFCURVE",
"499 193 CURVE SMOOTH",
"491 186 OFFCURVE",
"483 176 OFFCURVE",
"474 163 CURVE",
"469 157 OFFCURVE",
"465 154 OFFCURVE",
"461 153 CURVE",
"452 150 OFFCURVE",
"380 82 OFFCURVE",
"379 75 CURVE",
"378 72 OFFCURVE",
"351 66 OFFCURVE",
"298 59 CURVE",
"280 93 OFFCURVE",
"268 127 OFFCURVE",
"261 162 CURVE SMOOTH",
"254 197 OFFCURVE",
"251 215 OFFCURVE",
"251 216 CURVE",
"244 283 OFFCURVE",
"241 319 OFFCURVE",
"242 325 CURVE SMOOTH",
"243 330 OFFCURVE",
"243 338 OFFCURVE",
"241 349 CURVE",
"239 356 OFFCURVE",
"240 372 OFFCURVE",
"244 397 CURVE",
"249 422 OFFCURVE",
"250 446 OFFCURVE",
"249 469 CURVE SMOOTH",
"248 501 OFFCURVE",
"250 520 OFFCURVE",
"256 527 CURVE SMOOTH",
"262 534 OFFCURVE",
"265 537 OFFCURVE",
"266 537 CURVE",
"266 538 OFFCURVE",
"273 548 OFFCURVE",
"288 567 CURVE",
"317 607 OFFCURVE",
"339 645 OFFCURVE",
"338 646 CURVE SMOOTH",
"337 647 OFFCURVE",
"337 649 OFFCURVE",
"340 653 CURVE",
"342 657 OFFCURVE",
"348 668 OFFCURVE",
"357 685 CURVE SMOOTH",
"377 721 OFFCURVE",
"387 739 OFFCURVE",
"383 747 CURVE",
"380 752 OFFCURVE",
"385 765 OFFCURVE",
"397 787 CURVE",
"404 802 OFFCURVE",
"407 816 OFFCURVE",
"406 829 CURVE SMOOTH",
"405 842 OFFCURVE",
"406 853 OFFCURVE",
"409 861 CURVE",
"410 862 OFFCURVE",
"411 871 OFFCURVE",
"413 888 CURVE SMOOTH",
"415 904 OFFCURVE",
"409 936 OFFCURVE",
"396 983 CURVE SMOOTH",
"394 990 OFFCURVE",
"388 1002 OFFCURVE",
"379 1019 CURVE SMOOTH",
"362 1052 OFFCURVE",
"366 1045 OFFCURVE",
"337 1076 CURVE SMOOTH",
"322 1091 OFFCURVE",
"314 1100 OFFCURVE",
"312 1102 CURVE"
);
},
{
closed = 1;
nodes = (
"288 1019 OFFCURVE",
"290 1018 OFFCURVE",
"291 1017 CURVE",
"292 1017 OFFCURVE",
"301 1018 OFFCURVE",
"317 1021 CURVE",
"310 1007 OFFCURVE",
"311 1000 OFFCURVE",
"318 999 CURVE",
"325 999 OFFCURVE",
"327 997 OFFCURVE",
"326 993 CURVE",
"337 978 OFFCURVE",
"344 967 OFFCURVE",
"348 960 CURVE",
"357 947 OFFCURVE",
"357 926 OFFCURVE",
"360 893 CURVE",
"361 891 OFFCURVE",
"361 888 OFFCURVE",
"361 885 CURVE SMOOTH",
"361 868 OFFCURVE",
"356 841 OFFCURVE",
"347 806 CURVE SMOOTH",
"344 793 OFFCURVE",
"342 783 OFFCURVE",
"341 775 CURVE SMOOTH",
"340 767 OFFCURVE",
"329 743 OFFCURVE",
"310 702 CURVE SMOOTH",
"306 693 OFFCURVE",
"302 684 OFFCURVE",
"299 677 CURVE",
"296 669 OFFCURVE",
"284 653 OFFCURVE",
"265 628 CURVE",
"262 651 OFFCURVE",
"258 728 OFFCURVE",
"258 729 CURVE",
"258 729 OFFCURVE",
"258 729 OFFCURVE",
"258 729 CURVE",
"260 735 OFFCURVE",
"262 741 OFFCURVE",
"263 746 CURVE SMOOTH",
"264 752 OFFCURVE",
"263 773 OFFCURVE",
"262 808 CURVE SMOOTH",
"261 835 OFFCURVE",
"264 859 OFFCURVE",
"269 880 CURVE",
"275 900 OFFCURVE",
"278 916 OFFCURVE",
"278 927 CURVE SMOOTH",
"279 988 OFFCURVE",
"280 1019 OFFCURVE",
"281 1019 CURVE",
"282 1020 OFFCURVE",
"283 1020 OFFCURVE",
"283 1021 CURVE"
);
}
);
width = 574;
},
{
associatedMasterId = "7E101512-652C-46F2-AEC5-615E4561C90F";
layerId = "47146612-F09E-4EF9-9037-503108390CCE";
name = Manuelle;
paths = (
{
closed = 1;
nodes = (
"286 1129 OFFCURVE",
"236 1140 OFFCURVE",
"214 1102 CURVE SMOOTH",
"198 1073 OFFCURVE",
"191 1063 OFFCURVE",
"203 1016 CURVE SMOOTH",
"218 949 OFFCURVE",
"182 585 OFFCURVE",
"185 532 CURVE",
"170 497 OFFCURVE",
"61 437 OFFCURVE",
"-31 386 CURVE SMOOTH",
"-54 374 OFFCURVE",
"-61 370 OFFCURVE",
"-61 348 CURVE",
"6 349 LINE",
"7 359 OFFCURVE",
"78 407 OFFCURVE",
"182 454 CURVE",
"171 392 OFFCURVE",
"167 321 OFFCURVE",
"176 251 CURVE SMOOTH",
"193 124 OFFCURVE",
"232 -4 OFFCURVE",
"280 -3 CURVE SMOOTH",
"331 -3 OFFCURVE",
"357 -1 OFFCURVE",
"389 12 CURVE SMOOTH",
"516 65 OFFCURVE",
"581 204 OFFCURVE",
"630 360 CURVE SMOOTH",
"638 385 OFFCURVE",
"720 370 OFFCURVE",
"738 368 CURVE SMOOTH",
"764 365 OFFCURVE",
"844 382 OFFCURVE",
"864 381 CURVE",
"875 405 OFFCURVE",
"876 458 OFFCURVE",
"876 473 CURVE",
"822 437 OFFCURVE",
"781 430 OFFCURVE",
"697 430 CURVE SMOOTH",
"633 430 OFFCURVE",
"625 468 OFFCURVE",
"606 499 CURVE SMOOTH",
"592 522 OFFCURVE",
"578 544 OFFCURVE",
"556 544 CURVE",
"530 544 OFFCURVE",
"526 513 OFFCURVE",
"526 477 CURVE",
"526 465 OFFCURVE",
"557 432 OFFCURVE",
"572 428 CURVE",
"590 275 OFFCURVE",
"456 80 OFFCURVE",
"298 59 CURVE",
"280 93 OFFCURVE",
"268 127 OFFCURVE",
"261 162 CURVE SMOOTH",
"228 329 OFFCURVE",
"249 335 OFFCURVE",
"249 469 CURVE SMOOTH",
"248 501 OFFCURVE",
"250 520 OFFCURVE",
"256 527 CURVE SMOOTH",
"327 610 OFFCURVE",
"414 782 OFFCURVE",
"413 888 CURVE SMOOTH",
"412 964 OFFCURVE",
"372 1042 OFFCURVE",
"312 1102 CURVE"
);
},
{
closed = 1;
nodes = (
"336 1000 OFFCURVE",
"354 965 OFFCURVE",
"360 893 CURVE",
"360 811 OFFCURVE",
"323 703 OFFCURVE",
"265 628 CURVE",
"259 696 OFFCURVE",
"280 1019 OFFCURVE",
"281 1019 CURVE",
"283 1021 LINE"
);
}
);
width = 876;
}
);
note = b;
unicode = 0062;
},
{
glyphname = c;
lastChange = "2017-11-27 22:07:57 +0000";
layers = (
{
layerId = "7E101512-652C-46F2-AEC5-615E4561C90F";
paths = (
{
closed = 1;
nodes = (
"372 510 OFFCURVE",
"367 519 OFFCURVE",
"345 515 CURVE",
"313 507 OFFCURVE",
"229 479 OFFCURVE",
"212 471 CURVE",
"187 461 OFFCURVE",
"84 404 OFFCURVE",
"63 385 CURVE",
"40 362 OFFCURVE",
"10 321 OFFCURVE",
"3 288 CURVE SMOOTH",
"-3 259 OFFCURVE",
"-5 211 OFFCURVE",
"-3 169 CURVE",
"-3 91 OFFCURVE",
"51 -4 OFFCURVE",
"116 -4 CURVE",
"116 -4 OFFCURVE",
"116 -4 OFFCURVE",
"117 -4 CURVE SMOOTH",
"212 -4 OFFCURVE",
"223 -7 OFFCURVE",
"311 21 CURVE SMOOTH",
"330 27 OFFCURVE",
"700 170 OFFCURVE",
"700 189 CURVE SMOOTH",
"700 219 OFFCURVE",
"667 212 OFFCURVE",
"634 198 CURVE SMOOTH",
"620 192 OFFCURVE",
"548 160 OFFCURVE",
"546 162 CURVE",
"545 164 OFFCURVE",
"540 165 OFFCURVE",
"533 166 CURVE",
"418 119 OFFCURVE",
"362 94 OFFCURVE",
"302 85 CURVE SMOOTH",
"199 66 OFFCURVE",
"134 46 OFFCURVE",
"92 108 CURVE",
"88 115 OFFCURVE",
"72 180 OFFCURVE",
"67 204 CURVE",
"56 247 OFFCURVE",
"81 314 OFFCURVE",
"113 331 CURVE",
"167 359 OFFCURVE",
"262 424 OFFCURVE",
"294 429 CURVE",
"270 391 OFFCURVE",
"240 319 OFFCURVE",
"225 274 CURVE SMOOTH",
"221 266 OFFCURVE",
"227 210 OFFCURVE",
"267 222 CURVE",
"261 209 OFFCURVE",
"352 436 OFFCURVE",
"356 441 CURVE SMOOTH",
"361 448 OFFCURVE",
"366 457 OFFCURVE",
"378 458 CURVE",
"385 459 OFFCURVE",
"397 486 OFFCURVE",
"393 490 CURVE"
);
}
);
width = 574;
},
{
associatedMasterId = "7E101512-652C-46F2-AEC5-615E4561C90F";
layerId = "D10F76F7-1AAE-4BF4-BAD2-C331C5AD40A0";
name = Automatique;
paths = (
{
closed = 1;
nodes = (
"372 509 OFFCURVE",
"360 518 OFFCURVE",
"357 518 CURVE SMOOTH",
"357 518 OFFCURVE",
"357 518 OFFCURVE",
"357 518 CURVE",
"355 517 OFFCURVE",
"351 516 OFFCURVE",
"345 515 CURVE",
"312 507 OFFCURVE",
"293 502 OFFCURVE",
"286 499 CURVE",
"280 496 OFFCURVE",
"273 494 OFFCURVE",
"265 493 CURVE",
"259 492 OFFCURVE",
"250 488 OFFCURVE",
"239 483 CURVE",
"227 477 OFFCURVE",
"218 473 OFFCURVE",
"212 471 CURVE",
"192 463 OFFCURVE",
"138 434 OFFCURVE",
"138 434 CURVE",
"117 417 OFFCURVE",
"105 408 OFFCURVE",
"104 407 CURVE",
"103 407 OFFCURVE",
"99 406 OFFCURVE",
"92 405 CURVE",
"85 403 OFFCURVE",
"75 396 OFFCURVE",
"63 385 CURVE",
"40 362 OFFCURVE",
"10 321 OFFCURVE",
"3 288 CURVE SMOOTH",
"-4 255 OFFCURVE",
"-5 203 OFFCURVE",
"-4 202 CURVE",
"-4 201 OFFCURVE",
"-3 197 OFFCURVE",
"-1 190 CURVE SMOOTH",
"2 180 OFFCURVE",
"1 173 OFFCURVE",
"-3 169 CURVE",
"-5 168 OFFCURVE",
"-6 165 OFFCURVE",
"-6 160 CURVE SMOOTH",
"-6 153 OFFCURVE",
"-4 144 OFFCURVE",
"-1 132 CURVE SMOOTH",
"8 97 OFFCURVE",
"16 75 OFFCURVE",
"22 68 CURVE",
"27 61 OFFCURVE",
"30 57 OFFCURVE",
"30 56 CURVE",
"47 33 OFFCURVE",
"55 21 OFFCURVE",
"56 22 CURVE SMOOTH",
"57 23 OFFCURVE",
"61 21 OFFCURVE",
"66 17 CURVE SMOOTH",
"84 3 OFFCURVE",
"101 -4 OFFCURVE",
"116 -4 CURVE",
"116 -4 OFFCURVE",
"116 -4 OFFCURVE",
"117 -4 CURVE SMOOTH",
"133 -4 OFFCURVE",
"141 -4 OFFCURVE",
"142 -4 CURVE SMOOTH",
"158 -4 OFFCURVE",
"172 -4 OFFCURVE",
"184 -4 CURVE",
"195 -5 OFFCURVE",
"208 -3 OFFCURVE",
"223 2 CURVE",
"225 2 OFFCURVE",
"229 1 OFFCURVE",
"234 0 CURVE SMOOTH",
"239 -1 OFFCURVE",
"265 6 OFFCURVE",
"311 21 CURVE SMOOTH",
"328 26 OFFCURVE",
"338 30 OFFCURVE",
"341 33 CURVE SMOOTH",
"346 38 OFFCURVE",
"435 63 OFFCURVE",
"436 63 CURVE",
"437 64 OFFCURVE",
"439 64 OFFCURVE",
"440 65 CURVE",
"457 74 OFFCURVE",
"468 77 OFFCURVE",
"471 74 CURVE SMOOTH",
"474 71 OFFCURVE",
"479 75 OFFCURVE",
"485 88 CURVE",
"488 93 OFFCURVE",
"492 95 OFFCURVE",
"498 94 CURVE SMOOTH",
"503 93 OFFCURVE",
"519 99 OFFCURVE",
"545 110 CURVE",
"528 123 OFFCURVE",
"568 135 OFFCURVE",
"568 123 CURVE",
"613 145 OFFCURVE",
"640 158 OFFCURVE",
"650 161 CURVE",
"660 165 OFFCURVE",
"668 170 OFFCURVE",
"673 175 CURVE",
"678 179 OFFCURVE",
"684 181 OFFCURVE",
"693 180 CURVE",
"698 180 OFFCURVE",
"700 183 OFFCURVE",
"700 189 CURVE SMOOTH",
"700 194 OFFCURVE",
"699 200 OFFCURVE",
"696 207 CURVE",
"671 208 OFFCURVE",
"651 205 OFFCURVE",
"634 198 CURVE SMOOTH",
"617 191 OFFCURVE",
"609 187 OFFCURVE",
"608 186 CURVE",
"568 169 OFFCURVE",
"547 161 OFFCURVE",
"546 162 CURVE",
"545 164 OFFCURVE",
"540 165 OFFCURVE",
"533 166 CURVE",
"533 166 OFFCURVE",
"447 133 OFFCURVE",
"427 124 CURVE",
"395 111 OFFCURVE",
"379 104 OFFCURVE",
"378 104 CURVE",
"377 103 OFFCURVE",
"375 103 OFFCURVE",
"374 102 CURVE",
"365 98 OFFCURVE",
"341 92 OFFCURVE",
"302 85 CURVE SMOOTH",
"223 70 OFFCURVE",
"169 65 OFFCURVE",
"166 65 CURVE",
"165 66 OFFCURVE",
"161 66 OFFCURVE",
"155 66 CURVE SMOOTH",
"153 66 OFFCURVE",
"145 69 OFFCURVE",
"130 76 CURVE SMOOTH",
"115 83 OFFCURVE",
"102 93 OFFCURVE",
"92 108 CURVE",
"88 115 OFFCURVE",
"62 187 OFFCURVE",
"67 204 CURVE",
"72 216 OFFCURVE",
"73 224 OFFCURVE",
"70 229 CURVE SMOOTH",
"67 234 OFFCURVE",
"68 249 OFFCURVE",
"73 275 CURVE",
"74 276 OFFCURVE",
"75 278 OFFCURVE",
"78 280 CURVE",
"81 283 OFFCURVE",
"84 293 OFFCURVE",
"87 311 CURVE",
"106 334 OFFCURVE",
"98 327 OFFCURVE",
"113 335 CURVE",
"144 350 OFFCURVE",
"163 360 OFFCURVE",
"169 365 CURVE",
"182 374 OFFCURVE",
"246 413 OFFCURVE",
"247 412 CURVE SMOOTH",
"248 411 OFFCURVE",
"250 410 OFFCURVE",
"253 411 CURVE",
"258 412 OFFCURVE",
"262 416 OFFCURVE",
"267 423 CURVE",
"272 429 OFFCURVE",
"281 431 OFFCURVE",
"294 429 CURVE",
"275 399 OFFCURVE",
"267 382 OFFCURVE",
"268 379 CURVE",
"270 376 OFFCURVE",
"265 367 OFFCURVE",
"253 352 CURVE",
"251 349 OFFCURVE",
"250 344 OFFCURVE",
"251 338 CURVE SMOOTH",
"252 332 OFFCURVE",
"244 311 OFFCURVE",
"225 274 CURVE SMOOTH",
"221 266 OFFCURVE",
"227 210 OFFCURVE",
"267 222 CURVE",
"282 255 OFFCURVE",
"290 277 OFFCURVE",
"292 288 CURVE SMOOTH",
"294 300 OFFCURVE",
"295 307 OFFCURVE",
"295 309 CURVE SMOOTH",
"295 312 OFFCURVE",
"297 315 OFFCURVE",
"302 319 CURVE SMOOTH",
"307 323 OFFCURVE",
"313 335 OFFCURVE",
"320 354 CURVE SMOOTH",
"341 408 OFFCURVE",
"353 437 OFFCURVE",
"356 441 CURVE SMOOTH",
"361 448 OFFCURVE",
"366 457 OFFCURVE",
"378 458 CURVE",
"385 459 OFFCURVE",
"390 469 OFFCURVE",
"393 490 CURVE"
);
}
);
width = 574;
}
);
note = c;
unicode = 0063;
},
{
glyphname = d;
lastChange = "2017-11-28 22:06:11 +0000";
layers = (
{
layerId = "7E101512-652C-46F2-AEC5-615E4561C90F";
paths = (
{
closed = 1;
nodes = (
"481 993 OFFCURVE",
"473 1005 OFFCURVE",
"461 1005 CURVE SMOOTH",
"460 1005 OFFCURVE",
"459 1005 OFFCURVE",
"458 1005 CURVE",
"445 1002 OFFCURVE",
"438 1001 OFFCURVE",
"436 1002 CURVE",
"429 985 OFFCURVE",
"425 977 OFFCURVE",
"425 976 CURVE",
"424 975 OFFCURVE",
"424 969 OFFCURVE",
"424 956 CURVE",
"425 944 OFFCURVE",
"414 930 OFFCURVE",
"410 926 CURVE",
"404 917 OFFCURVE",
"404 904 OFFCURVE",
"411 885 CURVE SMOOTH",
"424 848 OFFCURVE",
"426 841 OFFCURVE",
"417 790 CURVE SMOOTH",
"412 764 OFFCURVE",
"410 748 OFFCURVE",
"409 743 CURVE",
"407 711 OFFCURVE",
"405 694 OFFCURVE",
"403 693 CURVE SMOOTH",
"401 692 OFFCURVE",
"400 690 OFFCURVE",
"399 689 CURVE",
"396 684 OFFCURVE",
"396 677 OFFCURVE",
"399 667 CURVE",
"401 657 OFFCURVE",
"396 618 OFFCURVE",
"383 551 CURVE",
"383 550 OFFCURVE",
"382 539 OFFCURVE",
"381 516 CURVE SMOOTH",
"380 493 OFFCURVE",
"380 477 OFFCURVE",
"381 468 CURVE",
"381 464 OFFCURVE",
"380 456 OFFCURVE",
"377 444 CURVE SMOOTH",
"374 432 OFFCURVE",
"374 418 OFFCURVE",
"375 401 CURVE",
"376 393 OFFCURVE",
"375 380 OFFCURVE",
"373 361 CURVE SMOOTH",
"371 343 OFFCURVE",
"372 319 OFFCURVE",
"375 290 CURVE SMOOTH",
"377 271 OFFCURVE",
"380 258 OFFCURVE",
"383 251 CURVE SMOOTH",
"386 244 OFFCURVE",
"389 232 OFFCURVE",
"392 215 CURVE SMOOTH",
"400 176 OFFCURVE",
"405 154 OFFCURVE",
"406 149 CURVE SMOOTH",
"407 144 OFFCURVE",
"407 139 OFFCURVE",
"408 135 CURVE",
"411 118 OFFCURVE",
"412 108 OFFCURVE",
"410 106 CURVE",
"407 102 OFFCURVE",
"439 48 OFFCURVE",
"444 49 CURVE",
"447 50 OFFCURVE",
"449 42 OFFCURVE",
"452 25 CURVE",
"414 1 OFFCURVE",
"395 -12 OFFCURVE",
"396 -13 CURVE",
"397 -15 OFFCURVE",
"393 -18 OFFCURVE",
"383 -22 CURVE SMOOTH",
"366 -29 OFFCURVE",
"356 -33 OFFCURVE",
"353 -33 CURVE",
"351 -34 OFFCURVE",
"329 -41 OFFCURVE",
"286 -54 CURVE SMOOTH",
"271 -59 OFFCURVE",
"263 -62 OFFCURVE",
"263 -64 CURVE SMOOTH",
"263 -66 OFFCURVE",
"234 -68 OFFCURVE",
"175 -71 CURVE SMOOTH",
"120 -75 OFFCURVE",
"66 -47 OFFCURVE",
"54 -31 CURVE",
"50 -17 OFFCURVE",
"49 -1 OFFCURVE",
"52 17 CURVE",
"56 53 OFFCURVE",
"65 93 OFFCURVE",
"76 89 CURVE",
"81 88 OFFCURVE",
"88 100 OFFCURVE",
"97 125 CURVE",
"99 126 OFFCURVE",
"110 127 OFFCURVE",
"131 130 CURVE SMOOTH",
"152 133 OFFCURVE",
"173 136 OFFCURVE",
"194 138 CURVE",
"185 130 OFFCURVE",
"188 126 OFFCURVE",
"202 127 CURVE",
"215 127 OFFCURVE",
"231 127 OFFCURVE",
"248 127 CURVE",
"241 108 OFFCURVE",
"241 95 OFFCURVE",
"272 68 CURVE",
"278 73 OFFCURVE",
"282 76 OFFCURVE",
"283 77 CURVE SMOOTH",
"284 78 OFFCURVE",
"284 83 OFFCURVE",
"283 93 CURVE SMOOTH",
"282 101 OFFCURVE",
"285 108 OFFCURVE",
"293 113 CURVE",
"300 119 OFFCURVE",
"304 122 OFFCURVE",
"304 122 CURVE",
"293 159 OFFCURVE",
"288 179 OFFCURVE",
"289 183 CURVE SMOOTH",
"290 187 OFFCURVE",
"283 203 OFFCURVE",
"267 230 CURVE SMOOTH",
"248 262 OFFCURVE",
"220 258 OFFCURVE",
"204 259 CURVE",
"140 266 OFFCURVE",
"127 252 OFFCURVE",
"99 224 CURVE SMOOTH",
"98 223 OFFCURVE",
"88 217 OFFCURVE",
"69 204 CURVE",
"29 179 OFFCURVE",
"4 111 OFFCURVE",
"8 108 CURVE",
"9 107 OFFCURVE",
"9 103 OFFCURVE",
"8 96 CURVE",
"7 95 OFFCURVE",
"4 87 OFFCURVE",
"-1 72 CURVE SMOOTH",
"-6 58 OFFCURVE",
"-12 42 OFFCURVE",
"-17 23 CURVE",
"-18 20 OFFCURVE",
"-18 15 OFFCURVE",
"-18 10 CURVE SMOOTH",
"-18 3 OFFCURVE",
"-17 -6 OFFCURVE",
"-14 -16 CURVE",
"-6 -51 OFFCURVE",
"14 -81 OFFCURVE",
"22 -85 CURVE",
"25 -87 OFFCURVE",
"31 -92 OFFCURVE",
"39 -100 CURVE SMOOTH",
"42 -103 OFFCURVE",
"48 -106 OFFCURVE",
"57 -111 CURVE SMOOTH",
"66 -116 OFFCURVE",
"94 -122 OFFCURVE",
"143 -130 CURVE",
"147 -131 OFFCURVE",
"152 -131 OFFCURVE",
"159 -131 CURVE SMOOTH",
"166 -131 OFFCURVE",
"174 -131 OFFCURVE",
"183 -130 CURVE",
"203 -129 OFFCURVE",
"229 -124 OFFCURVE",
"261 -115 CURVE",
"262 -115 OFFCURVE",
"272 -114 OFFCURVE",
"291 -111 CURVE",
"331 -107 OFFCURVE",
"421 -73 OFFCURVE",
"432 -64 CURVE SMOOTH",
"438 -59 OFFCURVE",
"447 -54 OFFCURVE",
"459 -49 CURVE",
"467 -45 OFFCURVE",
"490 -15 OFFCURVE",
"487 -8 CURVE",
"505 -4 OFFCURVE",
"514 -2 OFFCURVE",
"515 -2 CURVE",
"515 -2 OFFCURVE",
"520 -3 OFFCURVE",
"530 -6 CURVE SMOOTH",
"563 -17 OFFCURVE",
"557 -18 OFFCURVE",
"601 -13 CURVE",
"641 -10 OFFCURVE",
"661 -9 OFFCURVE",
"662 -10 CURVE",
"662 -13 OFFCURVE",
"698 -10 OFFCURVE",
"705 -1 CURVE SMOOTH",
"708 3 OFFCURVE",
"719 1 OFFCURVE",
"740 -8 CURVE",
"740 -3 OFFCURVE",
"740 7 OFFCURVE",
"740 20 CURVE SMOOTH",
"740 33 OFFCURVE",
"740 42 OFFCURVE",
"740 49 CURVE",
"727 47 OFFCURVE",
"721 46 OFFCURVE",
"721 46 CURVE SMOOTH",
"720 46 OFFCURVE",
"714 46 OFFCURVE",
"703 46 CURVE SMOOTH",
"635 46 OFFCURVE",
"610 56 OFFCURVE",
"586 64 CURVE",
"578 66 OFFCURVE",
"573 71 OFFCURVE",
"570 78 CURVE SMOOTH",
"567 85 OFFCURVE",
"566 98 OFFCURVE",
"567 117 CURVE SMOOTH",
"568 133 OFFCURVE",
"568 142 OFFCURVE",
"567 145 CURVE SMOOTH",
"566 148 OFFCURVE",
"567 157 OFFCURVE",
"569 174 CURVE SMOOTH",
"570 183 OFFCURVE",
"570 198 OFFCURVE",
"569 219 CURVE SMOOTH",
"568 240 OFFCURVE",
"563 269 OFFCURVE",
"553 306 CURVE SMOOTH",
"550 317 OFFCURVE",
"550 327 OFFCURVE",
"552 335 CURVE",
"555 344 OFFCURVE",
"554 354 OFFCURVE",
"549 365 CURVE",
"547 369 OFFCURVE",
"547 380 OFFCURVE",
"550 399 CURVE SMOOTH",
"553 417 OFFCURVE",
"551 435 OFFCURVE",
"544 453 CURVE",
"542 459 OFFCURVE",
"539 462 OFFCURVE",
"536 463 CURVE SMOOTH",
"533 464 OFFCURVE",
"533 477 OFFCURVE",
"538 502 CURVE SMOOTH",
"540 511 OFFCURVE",
"540 520 OFFCURVE",
"537 529 CURVE",
"534 537 OFFCURVE",
"534 561 OFFCURVE",
"537 602 CURVE",
"538 634 OFFCURVE",
"537 651 OFFCURVE",
"533 652 CURVE",
"528 653 OFFCURVE",
"527 661 OFFCURVE",
"528 675 CURVE SMOOTH",
"529 694 OFFCURVE",
"527 705 OFFCURVE",
"520 707 CURVE",
"514 709 OFFCURVE",
"513 713 OFFCURVE",
"518 720 CURVE",
"519 720 OFFCURVE",
"511 781 OFFCURVE",
"507 797 CURVE",
"507 798 OFFCURVE",
"499 865 OFFCURVE",
"495 889 CURVE SMOOTH",
"489 926 OFFCURVE",
"487 946 OFFCURVE",
"488 947 CURVE SMOOTH",
"489 948 OFFCURVE",
"489 956 OFFCURVE",
"486 970 CURVE SMOOTH"
);
},
{
closed = 1;
nodes = (
"477 678 OFFCURVE",
"484 672 OFFCURVE",
"483 663 CURVE SMOOTH",
"482 654 OFFCURVE",
"482 644 OFFCURVE",
"485 631 CURVE",
"491 595 OFFCURVE",
"493 558 OFFCURVE",
"491 519 CURVE SMOOTH",
"489 481 OFFCURVE",
"489 459 OFFCURVE",
"492 453 CURVE",
"498 442 OFFCURVE",
"500 432 OFFCURVE",
"498 423 CURVE SMOOTH",
"496 414 OFFCURVE",
"496 406 OFFCURVE",
"498 400 CURVE",
"502 385 OFFCURVE",
"503 376 OFFCURVE",
"502 374 CURVE SMOOTH",
"501 372 OFFCURVE",
"501 360 OFFCURVE",
"503 337 CURVE",
"504 330 OFFCURVE",
"505 325 OFFCURVE",
"507 322 CURVE",
"509 320 OFFCURVE",
"510 307 OFFCURVE",
"510 284 CURVE SMOOTH",
"510 260 OFFCURVE",
"512 245 OFFCURVE",
"515 239 CURVE",
"518 234 OFFCURVE",
"519 231 OFFCURVE",
"520 228 CURVE",
"520 227 OFFCURVE",
"520 227 OFFCURVE",
"519 226 CURVE",
"516 217 OFFCURVE",
"514 211 OFFCURVE",
"515 210 CURVE",
"515 209 OFFCURVE",
"516 184 OFFCURVE",
"517 135 CURVE",
"508 136 OFFCURVE",
"503 137 OFFCURVE",
"502 137 CURVE SMOOTH",
"501 137 OFFCURVE",
"493 144 OFFCURVE",
"479 159 CURVE",
"472 178 OFFCURVE",
"469 193 OFFCURVE",
"470 206 CURVE SMOOTH",
"471 219 OFFCURVE",
"467 228 OFFCURVE",
"460 235 CURVE SMOOTH",
"459 236 OFFCURVE",
"456 241 OFFCURVE",
"450 250 CURVE SMOOTH",
"444 259 OFFCURVE",
"440 288 OFFCURVE",
"439 337 CURVE",
"439 337 OFFCURVE",
"439 337 OFFCURVE",
"439 338 CURVE SMOOTH",
"439 343 OFFCURVE",
"440 361 OFFCURVE",
"441 392 CURVE SMOOTH",
"442 425 OFFCURVE",
"442 442 OFFCURVE",
"442 443 CURVE",
"445 453 OFFCURVE",
"447 461 OFFCURVE",
"449 467 CURVE",
"452 473 OFFCURVE",
"453 486 OFFCURVE",
"452 507 CURVE",
"451 515 OFFCURVE",
"451 520 OFFCURVE",
"450 522 CURVE",
"449 526 OFFCURVE",
"455 570 OFFCURVE",
"466 618 CURVE SMOOTH",
"471 642 OFFCURVE",
"469 663 OFFCURVE",
"460 682 CURVE"
);
}
);
width = 574;
},
{
associatedMasterId = "7E101512-652C-46F2-AEC5-615E4561C90F";
layerId = "9A23EB55-4D3D-4812-AB55-0105A804052F";
name = Automatique;
paths = (
{
closed = 1;
nodes = (
"481 993 OFFCURVE",
"473 1005 OFFCURVE",
"461 1005 CURVE SMOOTH",
"460 1005 OFFCURVE",
"459 1005 OFFCURVE",
"458 1005 CURVE",
"445 1002 OFFCURVE",
"438 1001 OFFCURVE",
"436 1002 CURVE",
"429 985 OFFCURVE",
"425 977 OFFCURVE",
"425 976 CURVE",
"424 975 OFFCURVE",
"424 969 OFFCURVE",
"424 956 CURVE",
"425 944 OFFCURVE",
"414 930 OFFCURVE",
"410 926 CURVE",
"404 917 OFFCURVE",
"404 904 OFFCURVE",
"411 885 CURVE SMOOTH",
"424 848 OFFCURVE",
"426 841 OFFCURVE",
"417 790 CURVE SMOOTH",
"412 764 OFFCURVE",
"410 748 OFFCURVE",
"409 743 CURVE",
"407 711 OFFCURVE",
"405 694 OFFCURVE",
"403 693 CURVE SMOOTH",
"401 692 OFFCURVE",
"400 690 OFFCURVE",
"399 689 CURVE",
"396 684 OFFCURVE",
"396 677 OFFCURVE",
"399 667 CURVE",
"401 657 OFFCURVE",
"396 618 OFFCURVE",
"383 551 CURVE",
"383 550 OFFCURVE",
"382 539 OFFCURVE",
"381 516 CURVE SMOOTH",
"380 493 OFFCURVE",
"380 477 OFFCURVE",
"381 468 CURVE",
"381 464 OFFCURVE",
"380 456 OFFCURVE",
"377 444 CURVE SMOOTH",
"374 432 OFFCURVE",
"374 418 OFFCURVE",
"375 401 CURVE",
"376 393 OFFCURVE",
"375 380 OFFCURVE",
"373 361 CURVE SMOOTH",
"371 343 OFFCURVE",
"372 319 OFFCURVE",
"375 290 CURVE SMOOTH",
"377 271 OFFCURVE",
"380 258 OFFCURVE",
"383 251 CURVE SMOOTH",
"386 244 OFFCURVE",
"389 232 OFFCURVE",
"392 215 CURVE SMOOTH",
"400 176 OFFCURVE",
"405 154 OFFCURVE",
"406 149 CURVE SMOOTH",
"407 144 OFFCURVE",
"407 139 OFFCURVE",
"408 135 CURVE",
"411 118 OFFCURVE",
"412 108 OFFCURVE",
"410 106 CURVE",
"407 102 OFFCURVE",
"439 48 OFFCURVE",
"444 49 CURVE",
"447 50 OFFCURVE",
"449 42 OFFCURVE",
"452 25 CURVE",
"414 1 OFFCURVE",
"395 -12 OFFCURVE",
"396 -13 CURVE",
"397 -15 OFFCURVE",
"393 -18 OFFCURVE",
"383 -22 CURVE SMOOTH",
"366 -29 OFFCURVE",
"356 -33 OFFCURVE",
"353 -33 CURVE",
"351 -34 OFFCURVE",
"329 -41 OFFCURVE",
"286 -54 CURVE SMOOTH",
"271 -59 OFFCURVE",
"263 -62 OFFCURVE",
"263 -64 CURVE SMOOTH",
"263 -66 OFFCURVE",
"234 -68 OFFCURVE",
"175 -71 CURVE SMOOTH",
"120 -75 OFFCURVE",
"66 -47 OFFCURVE",
"54 -31 CURVE",
"50 -17 OFFCURVE",
"49 -1 OFFCURVE",
"52 17 CURVE",
"56 53 OFFCURVE",
"65 93 OFFCURVE",
"76 89 CURVE",
"81 88 OFFCURVE",
"88 100 OFFCURVE",
"97 125 CURVE",
"99 126 OFFCURVE",
"110 127 OFFCURVE",
"131 130 CURVE SMOOTH",
"152 133 OFFCURVE",
"173 136 OFFCURVE",
"194 138 CURVE",
"185 130 OFFCURVE",
"188 126 OFFCURVE",
"202 127 CURVE",
"215 127 OFFCURVE",
"231 127 OFFCURVE",
"248 127 CURVE",
"241 108 OFFCURVE",
"241 95 OFFCURVE",
"272 68 CURVE",
"278 73 OFFCURVE",
"282 76 OFFCURVE",
"283 77 CURVE SMOOTH",
"284 78 OFFCURVE",
"284 83 OFFCURVE",
"283 93 CURVE SMOOTH",
"282 101 OFFCURVE",
"285 108 OFFCURVE",
"293 113 CURVE",
"300 119 OFFCURVE",
"304 122 OFFCURVE",
"304 122 CURVE",
"293 159 OFFCURVE",
"288 179 OFFCURVE",
"289 183 CURVE SMOOTH",
"290 187 OFFCURVE",
"283 203 OFFCURVE",
"267 230 CURVE SMOOTH",
"248 262 OFFCURVE",
"220 258 OFFCURVE",
"204 259 CURVE",
"140 266 OFFCURVE",
"127 252 OFFCURVE",
"99 224 CURVE SMOOTH",
"98 223 OFFCURVE",
"88 217 OFFCURVE",
"69 204 CURVE",
"29 179 OFFCURVE",
"4 111 OFFCURVE",
"8 108 CURVE",
"9 107 OFFCURVE",
"9 103 OFFCURVE",
"8 96 CURVE",
"7 95 OFFCURVE",
"4 87 OFFCURVE",
"-1 72 CURVE SMOOTH",
"-6 58 OFFCURVE",
"-12 42 OFFCURVE",
"-17 23 CURVE",
"-18 20 OFFCURVE",
"-18 15 OFFCURVE",
"-18 10 CURVE SMOOTH",
"-18 3 OFFCURVE",
"-17 -6 OFFCURVE",
"-14 -16 CURVE",
"-6 -51 OFFCURVE",
"14 -81 OFFCURVE",
"22 -85 CURVE",
"25 -87 OFFCURVE",
"31 -92 OFFCURVE",
"39 -100 CURVE SMOOTH",
"42 -103 OFFCURVE",
"48 -106 OFFCURVE",
"57 -111 CURVE SMOOTH",
"66 -116 OFFCURVE",
"94 -122 OFFCURVE",
"143 -130 CURVE",
"147 -131 OFFCURVE",
"152 -131 OFFCURVE",
"159 -131 CURVE SMOOTH",
"166 -131 OFFCURVE",
"174 -131 OFFCURVE",
"183 -130 CURVE",
"203 -129 OFFCURVE",
"229 -124 OFFCURVE",
"261 -115 CURVE",
"262 -115 OFFCURVE",
"272 -114 OFFCURVE",
"291 -111 CURVE",
"331 -107 OFFCURVE",
"421 -73 OFFCURVE",
"432 -64 CURVE SMOOTH",
"438 -59 OFFCURVE",
"447 -54 OFFCURVE",
"459 -49 CURVE",
"467 -45 OFFCURVE",
"490 -15 OFFCURVE",
"487 -8 CURVE",
"505 -4 OFFCURVE",
"514 -2 OFFCURVE",
"515 -2 CURVE",
"515 -2 OFFCURVE",
"520 -3 OFFCURVE",
"530 -6 CURVE SMOOTH",
"563 -17 OFFCURVE",
"557 -18 OFFCURVE",
"601 -13 CURVE",
"641 -10 OFFCURVE",
"661 -9 OFFCURVE",
"662 -10 CURVE",
"662 -13 OFFCURVE",
"698 -10 OFFCURVE",
"705 -1 CURVE SMOOTH",
"708 3 OFFCURVE",
"719 1 OFFCURVE",
"740 -8 CURVE",
"740 -3 OFFCURVE",
"740 7 OFFCURVE",
"740 20 CURVE SMOOTH",
"740 33 OFFCURVE",
"740 42 OFFCURVE",
"740 49 CURVE",
"727 47 OFFCURVE",
"721 46 OFFCURVE",
"721 46 CURVE SMOOTH",
"720 46 OFFCURVE",
"714 46 OFFCURVE",
"703 46 CURVE SMOOTH",
"635 46 OFFCURVE",
"610 56 OFFCURVE",
"586 64 CURVE",
"578 66 OFFCURVE",
"573 71 OFFCURVE",
"570 78 CURVE SMOOTH",
"567 85 OFFCURVE",
"566 98 OFFCURVE",
"567 117 CURVE SMOOTH",
"568 133 OFFCURVE",
"568 142 OFFCURVE",
"567 145 CURVE SMOOTH",
"566 148 OFFCURVE",
"567 157 OFFCURVE",
"569 174 CURVE SMOOTH",
"570 183 OFFCURVE",
"570 198 OFFCURVE",
"569 219 CURVE SMOOTH",
"568 240 OFFCURVE",
"563 269 OFFCURVE",
"553 306 CURVE SMOOTH",
"550 317 OFFCURVE",
"550 327 OFFCURVE",
"552 335 CURVE",
"555 344 OFFCURVE",
"554 354 OFFCURVE",
"549 365 CURVE",
"547 369 OFFCURVE",
"547 380 OFFCURVE",
"550 399 CURVE SMOOTH",
"553 417 OFFCURVE",
"551 435 OFFCURVE",
"544 453 CURVE",
"542 459 OFFCURVE",
"539 462 OFFCURVE",
"536 463 CURVE SMOOTH",
"533 464 OFFCURVE",
"533 477 OFFCURVE",
"538 502 CURVE SMOOTH",
"540 511 OFFCURVE",
"540 520 OFFCURVE",
"537 529 CURVE",
"534 537 OFFCURVE",
"534 561 OFFCURVE",
"537 602 CURVE",
"538 634 OFFCURVE",
"537 651 OFFCURVE",
"533 652 CURVE",
"528 653 OFFCURVE",
"527 661 OFFCURVE",
"528 675 CURVE SMOOTH",
"529 694 OFFCURVE",
"527 705 OFFCURVE",
"520 707 CURVE",
"514 709 OFFCURVE",
"513 713 OFFCURVE",
"518 720 CURVE",
"519 720 OFFCURVE",
"511 781 OFFCURVE",
"507 797 CURVE",
"507 798 OFFCURVE",
"499 865 OFFCURVE",
"495 889 CURVE SMOOTH",
"489 926 OFFCURVE",
"487 946 OFFCURVE",
"488 947 CURVE SMOOTH",
"489 948 OFFCURVE",
"489 956 OFFCURVE",
"486 970 CURVE SMOOTH"
);
},
{
closed = 1;
nodes = (
"477 678 OFFCURVE",
"484 672 OFFCURVE",
"483 663 CURVE SMOOTH",
"482 654 OFFCURVE",
"482 644 OFFCURVE",
"485 631 CURVE",
"491 595 OFFCURVE",
"493 558 OFFCURVE",
"491 519 CURVE SMOOTH",
"489 481 OFFCURVE",
"489 459 OFFCURVE",
"492 453 CURVE",
"498 442 OFFCURVE",
"500 432 OFFCURVE",
"498 423 CURVE SMOOTH",
"496 414 OFFCURVE",
"496 406 OFFCURVE",
"498 400 CURVE",
"502 385 OFFCURVE",
"503 376 OFFCURVE",
"502 374 CURVE SMOOTH",
"501 372 OFFCURVE",
"501 360 OFFCURVE",
"503 337 CURVE",
"504 330 OFFCURVE",
"505 325 OFFCURVE",
"507 322 CURVE",
"509 320 OFFCURVE",
"510 307 OFFCURVE",
"510 284 CURVE SMOOTH",
"510 260 OFFCURVE",
"512 245 OFFCURVE",
"515 239 CURVE",
"518 234 OFFCURVE",
"519 231 OFFCURVE",
"520 228 CURVE",
"520 227 OFFCURVE",
"520 227 OFFCURVE",
"519 226 CURVE",
"516 217 OFFCURVE",
"514 211 OFFCURVE",
"515 210 CURVE",
"515 209 OFFCURVE",
"516 184 OFFCURVE",
"517 135 CURVE",
"508 136 OFFCURVE",
"503 137 OFFCURVE",
"502 137 CURVE SMOOTH",
"501 137 OFFCURVE",
"493 144 OFFCURVE",
"479 159 CURVE",
"472 178 OFFCURVE",
"469 193 OFFCURVE",
"470 206 CURVE SMOOTH",
"471 219 OFFCURVE",
"467 228 OFFCURVE",
"460 235 CURVE SMOOTH",
"459 236 OFFCURVE",
"456 241 OFFCURVE",
"450 250 CURVE SMOOTH",
"444 259 OFFCURVE",
"440 288 OFFCURVE",
"439 337 CURVE",
"439 337 OFFCURVE",
"439 337 OFFCURVE",
"439 338 CURVE SMOOTH",
"439 343 OFFCURVE",
"440 361 OFFCURVE",
"441 392 CURVE SMOOTH",
"442 425 OFFCURVE",
"442 442 OFFCURVE",
"442 443 CURVE",
"445 453 OFFCURVE",
"447 461 OFFCURVE",
"449 467 CURVE",
"452 473 OFFCURVE",
"453 486 OFFCURVE",
"452 507 CURVE",
"451 515 OFFCURVE",
"451 520 OFFCURVE",
"450 522 CURVE",
"449 526 OFFCURVE",
"455 570 OFFCURVE",
"466 618 CURVE SMOOTH",
"471 642 OFFCURVE",
"469 663 OFFCURVE",
"460 682 CURVE"
);
}
);
width = 574;
},
{
associatedMasterId = "7E101512-652C-46F2-AEC5-615E4561C90F";
layerId = "BFB2B01E-6E43-411C-9265-94C62C0E37F9";
name = Manuelle;
paths = (
{
closed = 1;
nodes = (
"502 1005 OFFCURVE",
"461 1005 CURVE SMOOTH",
"459 1005 OFFCURVE",
"439 1004 OFFCURVE",
"436 1002 CURVE",
"429 985 OFFCURVE",
"425 977 OFFCURVE",
"425 976 CURVE",
"424 975 OFFCURVE",
"424 969 OFFCURVE",
"424 956 CURVE",
"425 944 OFFCURVE",
"414 930 OFFCURVE",
"410 926 CURVE",
"404 917 OFFCURVE",
"404 904 OFFCURVE",
"411 885 CURVE SMOOTH",
"424 848 OFFCURVE",
"411 731 OFFCURVE",
"403 693 CURVE SMOOTH",
"400 678 OFFCURVE",
"370 337 OFFCURVE",
"375 290 CURVE SMOOTH",
"379 250 OFFCURVE",
"393 126 OFFCURVE",
"452 25 CURVE",
"333 -49 OFFCURVE",
"311 -65 OFFCURVE",
"175 -71 CURVE SMOOTH",
"120 -75 OFFCURVE",
"66 -47 OFFCURVE",
"54 -31 CURVE",
"50 -17 OFFCURVE",
"49 -1 OFFCURVE",
"52 17 CURVE",
"62 110 OFFCURVE",
"76 113 OFFCURVE",
"97 125 CURVE",
"126 139 OFFCURVE",
"228 138 OFFCURVE",
"248 127 CURVE",
"241 108 OFFCURVE",
"241 95 OFFCURVE",
"272 68 CURVE",
"278 73 OFFCURVE",
"282 76 OFFCURVE",
"283 77 CURVE SMOOTH",
"291 85 OFFCURVE",
"272 90 OFFCURVE",
"304 122 CURVE",
"278 209 OFFCURVE",
"283 254 OFFCURVE",
"204 259 CURVE",
"116 268 OFFCURVE",
"23 175 OFFCURVE",
"-6 72 CURVE SMOOTH",
"-9 61 OFFCURVE",
"-18 24 OFFCURVE",
"-18 10 CURVE SMOOTH",
"-18 -82 OFFCURVE",
"61 -131 OFFCURVE",
"159 -131 CURVE SMOOTH",
"252 -131 OFFCURVE",
"491 -69 OFFCURVE",
"487 -8 CURVE",
"515 -2 OFFCURVE",
"511 0 OFFCURVE",
"530 -6 CURVE SMOOTH",
"572 -20 OFFCURVE",
"598 -15 OFFCURVE",
"740 -8 CURVE",
"740 -8 OFFCURVE",
"740 39 OFFCURVE",
"740 49 CURVE",
"693 41 OFFCURVE",
"640 46 OFFCURVE",
"586 64 CURVE",
"567 69 OFFCURVE",
"566 90 OFFCURVE",
"567 117 CURVE SMOOTH",
"568 132 OFFCURVE",
"569 202 OFFCURVE",
"569 219 CURVE SMOOTH",
"569 462 OFFCURVE"
);
},
{
closed = 1;
nodes = (
"477 678 OFFCURVE",
"484 672 OFFCURVE",
"483 663 CURVE SMOOTH",
"483 637 OFFCURVE",
"517 155 OFFCURVE",
"517 135 CURVE",
"502 136 LINE",
"480 136 OFFCURVE",
"457 220 OFFCURVE",
"450 250 CURVE SMOOTH",
"437 300 OFFCURVE",
"439 335 OFFCURVE",
"441 392 CURVE SMOOTH",
"444 467 OFFCURVE",
"451 561 OFFCURVE",
"466 626 CURVE SMOOTH",
"471 650 OFFCURVE",
"469 663 OFFCURVE",
"460 682 CURVE"
);
}
);
width = 574;
}
);
note = d;
unicode = 0064;
},
{
glyphname = e;
lastChange = "2017-11-28 23:13:53 +0000";
layers = (
{
layerId = "7E101512-652C-46F2-AEC5-615E4561C90F";
paths = (
{
closed = 1;
nodes = (
"294 532 OFFCURVE",
"248 523 OFFCURVE",
"224 523 CURVE SMOOTH",
"216 523 OFFCURVE",
"208 523 OFFCURVE",
"201 522 CURVE",
"186 521 OFFCURVE",
"171 513 OFFCURVE",
"156 499 CURVE",
"141 486 OFFCURVE",
"131 477 OFFCURVE",
"127 474 CURVE",
"120 470 OFFCURVE",
"65 417 OFFCURVE",
"64 416 CURVE",
"63 416 OFFCURVE",
"9 348 OFFCURVE",
"10 317 CURVE SMOOTH",
"10 310 OFFCURVE",
"8 305 OFFCURVE",
"4 302 CURVE SMOOTH",
"0 299 OFFCURVE",
"-1 286 OFFCURVE",
"0 261 CURVE",
"0 259 OFFCURVE",
"-1 247 OFFCURVE",
"-4 225 CURVE",
"-5 221 OFFCURVE",
"-5 217 OFFCURVE",
"-5 212 CURVE SMOOTH",
"-5 180 OFFCURVE",
"43 132 OFFCURVE",
"44 131 CURVE SMOOTH",
"45 130 OFFCURVE",
"46 129 OFFCURVE",
"49 127 CURVE",
"55 122 OFFCURVE",
"64 115 OFFCURVE",
"77 105 CURVE SMOOTH",
"90 95 OFFCURVE",
"96 90 OFFCURVE",
"96 90 CURVE",
"97 89 OFFCURVE",
"104 85 OFFCURVE",
"117 77 CURVE",
"130 70 OFFCURVE",
"142 65 OFFCURVE",
"154 64 CURVE",
"162 63 OFFCURVE",
"167 60 OFFCURVE",
"169 56 CURVE",
"174 48 OFFCURVE",
"288 27 OFFCURVE",
"297 27 CURVE",
"302 26 OFFCURVE",
"304 26 OFFCURVE",
"304 26 CURVE",
"337 21 OFFCURVE",
"354 19 OFFCURVE",
"354 18 CURVE SMOOTH",
"354 17 OFFCURVE",
"358 17 OFFCURVE",
"365 18 CURVE SMOOTH",
"377 20 OFFCURVE",
"387 18 OFFCURVE",
"396 13 CURVE",
"404 8 OFFCURVE",
"415 6 OFFCURVE",
"429 7 CURVE",
"433 7 OFFCURVE",
"439 7 OFFCURVE",
"448 7 CURVE SMOOTH",
"457 7 OFFCURVE",
"482 6 OFFCURVE",
"525 5 CURVE SMOOTH",
"528 5 OFFCURVE",
"536 4 OFFCURVE",
"549 2 CURVE",
"562 -1 OFFCURVE",
"580 -1 OFFCURVE",
"601 0 CURVE SMOOTH",
"630 1 OFFCURVE",
"645 1 OFFCURVE",
"648 0 CURVE",
"650 -1 OFFCURVE",
"652 -2 OFFCURVE",
"653 -2 CURVE",
"662 -4 OFFCURVE",
"670 -4 OFFCURVE",
"677 -1 CURVE SMOOTH",
"684 2 OFFCURVE",
"697 -1 OFFCURVE",
"718 -9 CURVE",
"718 -9 OFFCURVE",
"719 -9 OFFCURVE",
"720 -9 CURVE SMOOTH",
"723 -9 OFFCURVE",
"729 -8 OFFCURVE",
"738 -6 CURVE",
"749 -4 OFFCURVE",
"767 -4 OFFCURVE",
"790 -6 CURVE SMOOTH",
"821 -8 OFFCURVE",
"838 -7 OFFCURVE",
"841 -4 CURVE",
"846 4 OFFCURVE",
"854 9 OFFCURVE",
"859 -3 CURVE",
"861 -9 OFFCURVE",
"874 -9 OFFCURVE",
"897 -2 CURVE",
"885 20 OFFCURVE",
"875 30 OFFCURVE",
"868 29 CURVE SMOOTH",
"860 28 OFFCURVE",
"856 27 OFFCURVE",
"855 26 CURVE",
"837 20 OFFCURVE",
"828 20 OFFCURVE",
"827 26 CURVE SMOOTH",
"826 32 OFFCURVE",
"822 34 OFFCURVE",
"815 33 CURVE",
"789 33 OFFCURVE",
"771 34 OFFCURVE",
"760 35 CURVE SMOOTH",
"749 36 OFFCURVE",
"744 37 OFFCURVE",
"744 37 CURVE SMOOTH",
"739 37 OFFCURVE",
"728 39 OFFCURVE",
"711 42 CURVE SMOOTH",
"694 45 OFFCURVE",
"685 47 OFFCURVE",
"685 47 CURVE",
"675 48 OFFCURVE",
"643 51 OFFCURVE",
"590 56 CURVE SMOOTH",
"536 61 OFFCURVE",
"508 64 OFFCURVE",
"505 64 CURVE",
"465 69 OFFCURVE",
"444 72 OFFCURVE",
"442 71 CURVE SMOOTH",
"440 70 OFFCURVE",
"439 70 OFFCURVE",
"439 70 CURVE",
"416 73 OFFCURVE",
"369 79 OFFCURVE",
"309 87 CURVE SMOOTH",
"286 90 OFFCURVE",
"259 98 OFFCURVE",
"226 110 CURVE SMOOTH",
"159 133 OFFCURVE",
"103 164 OFFCURVE",
"102 175 CURVE",
"101 180 OFFCURVE",
"98 186 OFFCURVE",
"92 193 CURVE",
"119 189 OFFCURVE",
"134 187 OFFCURVE",
"137 188 CURVE SMOOTH",
"140 189 OFFCURVE",
"147 189 OFFCURVE",
"157 188 CURVE",
"173 187 OFFCURVE",
"196 197 OFFCURVE",
"226 218 CURVE SMOOTH",
"257 239 OFFCURVE",
"273 250 OFFCURVE",
"274 251 CURVE",
"265 252 OFFCURVE",
"265 255 OFFCURVE",
"275 261 CURVE SMOOTH",
"285 267 OFFCURVE",
"290 270 OFFCURVE",
"290 270 CURVE",
"295 300 OFFCURVE",
"298 317 OFFCURVE",
"299 322 CURVE SMOOTH",
"300 327 OFFCURVE",
"300 331 OFFCURVE",
"301 334 CURVE",
"310 368 OFFCURVE",
"315 385 OFFCURVE",
"314 385 CURVE",
"313 386 OFFCURVE",
"313 386 OFFCURVE",
"313 386 CURVE",
"314 396 OFFCURVE",
"314 405 OFFCURVE",
"311 413 CURVE",
"309 422 OFFCURVE",
"306 442 OFFCURVE",
"302 473 CURVE SMOOTH"
);
},
{
closed = 1;
nodes = (
"238 462 OFFCURVE",
"240 463 OFFCURVE",
"242 463 CURVE SMOOTH",
"253 463 OFFCURVE",
"266 410 OFFCURVE",
"266 406 CURVE",
"265 388 OFFCURVE",
"265 376 OFFCURVE",
"266 370 CURVE SMOOTH",
"267 364 OFFCURVE",
"265 356 OFFCURVE",
"262 347 CURVE",
"266 344 OFFCURVE",
"268 342 OFFCURVE",
"268 341 CURVE SMOOTH",
"268 338 OFFCURVE",
"265 336 OFFCURVE",
"258 334 CURVE SMOOTH",
"247 331 OFFCURVE",
"240 325 OFFCURVE",
"238 318 CURVE",
"238 316 OFFCURVE",
"237 312 OFFCURVE",
"236 305 CURVE SMOOTH",
"235 298 OFFCURVE",
"224 288 OFFCURVE",
"202 274 CURVE SMOOTH",
"197 271 OFFCURVE",
"192 267 OFFCURVE",
"189 262 CURVE",
"187 259 OFFCURVE",
"179 258 OFFCURVE",
"166 258 CURVE SMOOTH",
"156 258 OFFCURVE",
"143 259 OFFCURVE",
"127 260 CURVE",
"102 284 OFFCURVE",
"101 280 OFFCURVE",
"109 301 CURVE SMOOTH",
"113 312 OFFCURVE",
"100 330 OFFCURVE",
"92 331 CURVE",
"100 342 OFFCURVE",
"112 358 OFFCURVE",
"129 379 CURVE SMOOTH",
"164 420 OFFCURVE",
"167 418 OFFCURVE",
"203 438 CURVE SMOOTH",
"221 448 OFFCURVE",
"232 455 OFFCURVE",
"236 459 CURVE"
);
}
);
width = 574;
},
{
associatedMasterId = "7E101512-652C-46F2-AEC5-615E4561C90F";
layerId = "C604C3D2-9602-4928-9314-9646768CA0D8";
name = Automatique;
paths = (
{
closed = 1;
nodes = (
"294 532 OFFCURVE",
"248 523 OFFCURVE",
"224 523 CURVE SMOOTH",
"216 523 OFFCURVE",
"208 523 OFFCURVE",
"201 522 CURVE",
"186 521 OFFCURVE",
"171 513 OFFCURVE",
"156 499 CURVE",
"141 486 OFFCURVE",
"131 477 OFFCURVE",
"127 474 CURVE",
"120 470 OFFCURVE",
"65 417 OFFCURVE",
"64 416 CURVE",
"63 416 OFFCURVE",
"9 348 OFFCURVE",
"10 317 CURVE SMOOTH",
"10 310 OFFCURVE",
"8 305 OFFCURVE",
"4 302 CURVE SMOOTH",
"0 299 OFFCURVE",
"-1 286 OFFCURVE",
"0 261 CURVE",
"0 259 OFFCURVE",
"-1 247 OFFCURVE",
"-4 225 CURVE",
"-5 221 OFFCURVE",
"-5 217 OFFCURVE",
"-5 212 CURVE SMOOTH",
"-5 180 OFFCURVE",
"43 132 OFFCURVE",
"44 131 CURVE SMOOTH",
"45 130 OFFCURVE",
"46 129 OFFCURVE",
"49 127 CURVE",
"55 122 OFFCURVE",
"64 115 OFFCURVE",
"77 105 CURVE SMOOTH",
"90 95 OFFCURVE",
"96 90 OFFCURVE",
"96 90 CURVE",
"97 89 OFFCURVE",
"104 85 OFFCURVE",
"117 77 CURVE",
"130 70 OFFCURVE",
"142 65 OFFCURVE",
"154 64 CURVE",
"162 63 OFFCURVE",
"167 60 OFFCURVE",
"169 56 CURVE",
"174 48 OFFCURVE",
"288 27 OFFCURVE",
"297 27 CURVE",
"302 26 OFFCURVE",
"304 26 OFFCURVE",
"304 26 CURVE",
"337 21 OFFCURVE",
"354 19 OFFCURVE",
"354 18 CURVE SMOOTH",
"354 17 OFFCURVE",
"358 17 OFFCURVE",
"365 18 CURVE SMOOTH",
"377 20 OFFCURVE",
"387 18 OFFCURVE",
"396 13 CURVE",
"404 8 OFFCURVE",
"415 6 OFFCURVE",
"429 7 CURVE",
"433 7 OFFCURVE",
"439 7 OFFCURVE",
"448 7 CURVE SMOOTH",
"457 7 OFFCURVE",
"482 6 OFFCURVE",
"525 5 CURVE SMOOTH",
"528 5 OFFCURVE",
"536 4 OFFCURVE",
"549 2 CURVE",
"562 -1 OFFCURVE",
"580 -1 OFFCURVE",
"601 0 CURVE SMOOTH",
"630 1 OFFCURVE",
"645 1 OFFCURVE",
"648 0 CURVE",
"650 -1 OFFCURVE",
"652 -2 OFFCURVE",
"653 -2 CURVE",
"662 -4 OFFCURVE",
"670 -4 OFFCURVE",
"677 -1 CURVE SMOOTH",
"684 2 OFFCURVE",
"697 -1 OFFCURVE",
"718 -9 CURVE",
"718 -9 OFFCURVE",
"719 -9 OFFCURVE",
"720 -9 CURVE SMOOTH",
"723 -9 OFFCURVE",
"729 -8 OFFCURVE",
"738 -6 CURVE",
"749 -4 OFFCURVE",
"767 -4 OFFCURVE",
"790 -6 CURVE SMOOTH",
"821 -8 OFFCURVE",
"838 -7 OFFCURVE",
"841 -4 CURVE",
"846 4 OFFCURVE",
"854 9 OFFCURVE",
"859 -3 CURVE",
"861 -9 OFFCURVE",
"874 -9 OFFCURVE",
"897 -2 CURVE",
"885 20 OFFCURVE",
"875 30 OFFCURVE",
"868 29 CURVE SMOOTH",
"860 28 OFFCURVE",
"856 27 OFFCURVE",
"855 26 CURVE",
"837 20 OFFCURVE",
"828 20 OFFCURVE",
"827 26 CURVE SMOOTH",
"826 32 OFFCURVE",
"822 34 OFFCURVE",
"815 33 CURVE",
"789 33 OFFCURVE",
"771 34 OFFCURVE",
"760 35 CURVE SMOOTH",
"749 36 OFFCURVE",
"744 37 OFFCURVE",
"744 37 CURVE SMOOTH",
"739 37 OFFCURVE",
"728 39 OFFCURVE",
"711 42 CURVE SMOOTH",
"694 45 OFFCURVE",
"685 47 OFFCURVE",
"685 47 CURVE",
"675 48 OFFCURVE",
"643 51 OFFCURVE",
"590 56 CURVE SMOOTH",
"536 61 OFFCURVE",
"508 64 OFFCURVE",
"505 64 CURVE",
"465 69 OFFCURVE",
"444 72 OFFCURVE",
"442 71 CURVE SMOOTH",
"440 70 OFFCURVE",
"439 70 OFFCURVE",
"439 70 CURVE",
"416 73 OFFCURVE",
"369 79 OFFCURVE",
"309 87 CURVE SMOOTH",
"286 90 OFFCURVE",
"259 98 OFFCURVE",
"226 110 CURVE SMOOTH",
"159 133 OFFCURVE",
"103 164 OFFCURVE",
"102 175 CURVE",
"101 180 OFFCURVE",
"98 186 OFFCURVE",
"92 193 CURVE",
"119 189 OFFCURVE",
"134 187 OFFCURVE",
"137 188 CURVE SMOOTH",
"140 189 OFFCURVE",
"147 189 OFFCURVE",
"157 188 CURVE",
"173 187 OFFCURVE",
"196 197 OFFCURVE",
"226 218 CURVE SMOOTH",
"257 239 OFFCURVE",
"273 250 OFFCURVE",
"274 251 CURVE",
"265 252 OFFCURVE",
"265 255 OFFCURVE",
"275 261 CURVE SMOOTH",
"285 267 OFFCURVE",
"290 270 OFFCURVE",
"290 270 CURVE",
"295 300 OFFCURVE",
"298 317 OFFCURVE",
"299 322 CURVE SMOOTH",
"300 327 OFFCURVE",
"300 331 OFFCURVE",
"301 334 CURVE",
"310 368 OFFCURVE",
"315 385 OFFCURVE",
"314 385 CURVE",
"313 386 OFFCURVE",
"313 386 OFFCURVE",
"313 386 CURVE",
"314 396 OFFCURVE",
"314 405 OFFCURVE",
"311 413 CURVE",
"309 422 OFFCURVE",
"306 442 OFFCURVE",
"302 473 CURVE SMOOTH"
);
},
{
closed = 1;
nodes = (
"238 462 OFFCURVE",
"240 463 OFFCURVE",
"242 463 CURVE SMOOTH",
"253 463 OFFCURVE",
"266 410 OFFCURVE",
"266 406 CURVE",
"265 388 OFFCURVE",
"265 376 OFFCURVE",
"266 370 CURVE SMOOTH",
"267 364 OFFCURVE",
"265 356 OFFCURVE",
"262 347 CURVE",
"266 344 OFFCURVE",
"268 342 OFFCURVE",
"268 341 CURVE SMOOTH",
"268 338 OFFCURVE",
"265 336 OFFCURVE",
"258 334 CURVE SMOOTH",
"247 331 OFFCURVE",
"240 325 OFFCURVE",
"238 318 CURVE",
"238 316 OFFCURVE",
"237 312 OFFCURVE",
"236 305 CURVE SMOOTH",
"235 298 OFFCURVE",
"224 288 OFFCURVE",
"202 274 CURVE SMOOTH",
"197 271 OFFCURVE",
"192 267 OFFCURVE",
"189 262 CURVE",
"187 259 OFFCURVE",
"179 258 OFFCURVE",
"166 258 CURVE SMOOTH",
"156 258 OFFCURVE",
"143 259 OFFCURVE",
"127 260 CURVE",
"102 284 OFFCURVE",
"101 280 OFFCURVE",
"109 301 CURVE SMOOTH",
"113 312 OFFCURVE",
"100 330 OFFCURVE",
"92 331 CURVE",
"100 342 OFFCURVE",
"112 358 OFFCURVE",
"129 379 CURVE SMOOTH",
"164 420 OFFCURVE",
"167 418 OFFCURVE",
"203 438 CURVE SMOOTH",
"221 448 OFFCURVE",
"232 455 OFFCURVE",
"236 459 CURVE"
);
}
);
width = 574;
},
{
associatedMasterId = "7E101512-652C-46F2-AEC5-615E4561C90F";
layerId = "1863A811-A482-425E-83E6-2553EF2F0644";
name = Manuelle;
paths = (
{
closed = 1;
nodes = (
"294 532 OFFCURVE",
"248 523 OFFCURVE",
"224 523 CURVE SMOOTH",
"216 523 OFFCURVE",
"208 523 OFFCURVE",
"201 522 CURVE",
"186 521 OFFCURVE",
"171 513 OFFCURVE",
"156 499 CURVE",
"95 445 OFFCURVE",
"25 391 OFFCURVE",
"6 317 CURVE SMOOTH",
"2 301 OFFCURVE",
"-5 231 OFFCURVE",
"-5 212 CURVE SMOOTH",
"-5 180 OFFCURVE",
"34 138 OFFCURVE",
"77 105 CURVE",
"118 72 OFFCURVE",
"240 32 OFFCURVE",
"297 24 CURVE",
"317 20 OFFCURVE",
"430 7 OFFCURVE",
"448 7 CURVE SMOOTH",
"457 7 OFFCURVE",
"482 6 OFFCURVE",
"525 5 CURVE SMOOTH",
"528 5 OFFCURVE",
"536 4 OFFCURVE",
"549 2 CURVE",
"562 -1 OFFCURVE",
"580 -1 OFFCURVE",
"601 0 CURVE SMOOTH",
"630 1 OFFCURVE",
"645 1 OFFCURVE",
"648 0 CURVE",
"650 -1 OFFCURVE",
"652 -2 OFFCURVE",
"653 -2 CURVE",
"662 -4 OFFCURVE",
"670 -4 OFFCURVE",
"677 -1 CURVE SMOOTH",
"684 2 OFFCURVE",
"697 -1 OFFCURVE",
"718 -9 CURVE",
"718 -9 OFFCURVE",
"719 -9 OFFCURVE",
"720 -9 CURVE SMOOTH",
"723 -9 OFFCURVE",
"729 -8 OFFCURVE",
"738 -6 CURVE",
"749 -4 OFFCURVE",
"767 -4 OFFCURVE",
"790 -6 CURVE SMOOTH",
"821 -8 OFFCURVE",
"838 -7 OFFCURVE",
"841 -4 CURVE",
"846 4 OFFCURVE",
"854 9 OFFCURVE",
"859 -3 CURVE",
"861 -9 OFFCURVE",
"874 -9 OFFCURVE",
"897 -2 CURVE",
"885 20 OFFCURVE",
"875 30 OFFCURVE",
"868 29 CURVE SMOOTH",
"860 28 OFFCURVE",
"856 27 OFFCURVE",
"855 26 CURVE",
"837 20 OFFCURVE",
"828 20 OFFCURVE",
"827 26 CURVE SMOOTH",
"826 32 OFFCURVE",
"822 34 OFFCURVE",
"815 33 CURVE",
"789 33 OFFCURVE",
"771 34 OFFCURVE",
"760 35 CURVE SMOOTH",
"749 36 OFFCURVE",
"744 37 OFFCURVE",
"744 37 CURVE SMOOTH",
"739 37 OFFCURVE",
"728 39 OFFCURVE",
"711 42 CURVE SMOOTH",
"694 45 OFFCURVE",
"685 47 OFFCURVE",
"685 47 CURVE",
"675 48 OFFCURVE",
"643 51 OFFCURVE",
"590 56 CURVE",
"406 74 OFFCURVE",
"397 75 OFFCURVE",
"309 87 CURVE SMOOTH",
"237 97 OFFCURVE",
"147 128 OFFCURVE",
"92 193 CURVE",
"121 187 OFFCURVE",
"134 186 OFFCURVE",
"157 188 CURVE",
"183 188 OFFCURVE",
"196 197 OFFCURVE",
"226 218 CURVE SMOOTH",
"257 239 OFFCURVE",
"273 250 OFFCURVE",
"274 251 CURVE",
"283 258 OFFCURVE",
"288 263 OFFCURVE",
"290 270 CURVE",
"292 283 OFFCURVE",
"314 363 OFFCURVE",
"314 385 CURVE",
"314 405 OFFCURVE",
"308 430 OFFCURVE",
"302 473 CURVE SMOOTH"
);
},
{
closed = 1;
nodes = (
"163 419 OFFCURVE",
"216 463 OFFCURVE",
"242 463 CURVE SMOOTH",
"253 463 OFFCURVE",
"266 410 OFFCURVE",
"266 406 CURVE",
"265 388 OFFCURVE",
"265 376 OFFCURVE",
"266 370 CURVE SMOOTH",
"267 364 OFFCURVE",
"265 356 OFFCURVE",
"262 347 CURVE",
"266 344 OFFCURVE",
"268 342 OFFCURVE",
"268 341 CURVE SMOOTH",
"268 338 OFFCURVE",
"265 336 OFFCURVE",
"258 334 CURVE SMOOTH",
"247 331 OFFCURVE",
"240 325 OFFCURVE",
"238 318 CURVE",
"238 316 OFFCURVE",
"237 312 OFFCURVE",
"236 305 CURVE SMOOTH",
"235 298 OFFCURVE",
"224 288 OFFCURVE",
"202 274 CURVE SMOOTH",
"197 271 OFFCURVE",
"192 267 OFFCURVE",
"189 262 CURVE",
"185 255 OFFCURVE",
"153 258 OFFCURVE",
"127 260 CURVE",
"88 262 OFFCURVE",
"56 288 OFFCURVE",
"92 331 CURVE",
"100 342 OFFCURVE",
"112 358 OFFCURVE",
"129 379 CURVE SMOOTH"
);
}
);
width = 574;
}
);
note = e;
unicode = 0065;
},
{
glyphname = f;
lastChange = "2017-11-27 10:26:32 +0000";
layers = (
{
layerId = "7E101512-652C-46F2-AEC5-615E4561C90F";
paths = (
{
closed = 1;
nodes = (
"355 1359 OFFCURVE",
"339 1374 OFFCURVE",
"317 1397 CURVE SMOOTH",
"296 1420 OFFCURVE",
"267 1431 OFFCURVE",
"231 1431 CURVE",
"212 1415 OFFCURVE",
"201 1400 OFFCURVE",
"199 1385 CURVE",
"198 1370 OFFCURVE",
"195 1354 OFFCURVE",
"191 1337 CURVE SMOOTH",
"180 1292 OFFCURVE",
"197 1214 OFFCURVE",
"208 1169 CURVE",
"208 1169 OFFCURVE",
"207 1168 OFFCURVE",
"204 1165 CURVE SMOOTH",
"202 1163 OFFCURVE",
"211 1130 OFFCURVE",
"232 1066 CURVE SMOOTH",
"238 1047 OFFCURVE",
"244 1015 OFFCURVE",
"249 969 CURVE SMOOTH",
"254 923 OFFCURVE",
"258 896 OFFCURVE",
"259 888 CURVE",
"270 830 OFFCURVE",
"272 800 OFFCURVE",
"267 797 CURVE",
"261 794 OFFCURVE",
"256 792 OFFCURVE",
"253 790 CURVE",
"178 815 OFFCURVE",
"136 825 OFFCURVE",
"128 822 CURVE",
"121 818 OFFCURVE",
"112 815 OFFCURVE",
"101 812 CURVE",
"100 803 OFFCURVE",
"100 798 OFFCURVE",
"100 797 CURVE SMOOTH",
"100 796 OFFCURVE",
"102 785 OFFCURVE",
"106 765 CURVE",
"147 740 OFFCURVE",
"175 729 OFFCURVE",
"190 732 CURVE SMOOTH",
"204 735 OFFCURVE",
"215 737 OFFCURVE",
"222 738 CURVE",
"249 730 OFFCURVE",
"262 726 OFFCURVE",
"262 726 CURVE",
"263 726 OFFCURVE",
"267 724 OFFCURVE",
"274 721 CURVE",
"271 694 OFFCURVE",
"269 680 OFFCURVE",
"269 679 CURVE",
"269 679 OFFCURVE",
"270 669 OFFCURVE",
"271 650 CURVE",
"271 639 OFFCURVE",
"271 629 OFFCURVE",
"270 620 CURVE SMOOTH",
"269 611 OFFCURVE",
"268 602 OFFCURVE",
"267 595 CURVE SMOOTH",
"260 540 OFFCURVE",
"256 498 OFFCURVE",
"255 469 CURVE SMOOTH",
"254 440 OFFCURVE",
"254 420 OFFCURVE",
"255 409 CURVE",
"255 404 OFFCURVE",
"247 263 OFFCURVE",
"243 246 CURVE",
"242 243 OFFCURVE",
"242 237 OFFCURVE",
"243 228 CURVE SMOOTH",
"244 218 OFFCURVE",
"244 186 OFFCURVE",
"245 132 CURVE SMOOTH",
"245 131 OFFCURVE",
"245 120 OFFCURVE",
"245 101 CURVE SMOOTH",
"245 81 OFFCURVE",
"245 52 OFFCURVE",
"244 14 CURVE SMOOTH",
"243 -11 OFFCURVE",
"244 -27 OFFCURVE",
"246 -34 CURVE",
"249 -41 OFFCURVE",
"252 -72 OFFCURVE",
"257 -127 CURVE",
"209 -135 OFFCURVE",
"186 -153 OFFCURVE",
"165 -169 CURVE",
"162 -172 OFFCURVE",
"151 -176 OFFCURVE",
"134 -181 CURVE",
"117 -187 OFFCURVE",
"81 -215 OFFCURVE",
"27 -265 CURVE SMOOTH",
"-22 -310 OFFCURVE",
"-18 -318 OFFCURVE",
"-29 -353 CURVE",
"-30 -355 OFFCURVE",
"-30 -359 OFFCURVE",
"-30 -364 CURVE SMOOTH",
"-30 -375 OFFCURVE",
"-29 -391 OFFCURVE",
"-27 -414 CURVE SMOOTH",
"-20 -485 OFFCURVE",
"122 -579 OFFCURVE",
"167 -604 CURVE SMOOTH",
"190 -616 OFFCURVE",
"203 -622 OFFCURVE",
"206 -623 CURVE",
"210 -624 OFFCURVE",
"218 -629 OFFCURVE",
"229 -637 CURVE SMOOTH",
"252 -654 OFFCURVE",
"309 -687 OFFCURVE",
"388 -727 CURVE SMOOTH",
"468 -767 OFFCURVE",
"487 -778 OFFCURVE",
"500 -797 CURVE",
"503 -800 OFFCURVE",
"507 -802 OFFCURVE",
"513 -802 CURVE",
"522 -803 OFFCURVE",
"534 -798 OFFCURVE",
"551 -789 CURVE",
"549 -766 OFFCURVE",
"548 -754 OFFCURVE",
"548 -753 CURVE SMOOTH",
"548 -752 OFFCURVE",
"543 -744 OFFCURVE",
"534 -728 CURVE",
"531 -722 OFFCURVE",
"528 -717 OFFCURVE",
"526 -714 CURVE",
"524 -710 OFFCURVE",
"518 -698 OFFCURVE",
"507 -678 CURVE SMOOTH",
"474 -615 OFFCURVE",
"457 -582 OFFCURVE",
"456 -581 CURVE SMOOTH",
"455 -580 OFFCURVE",
"453 -579 OFFCURVE",
"452 -577 CURVE",
"436 -548 OFFCURVE",
"421 -513 OFFCURVE",
"408 -473 CURVE SMOOTH",
"395 -434 OFFCURVE",
"387 -412 OFFCURVE",
"386 -409 CURVE SMOOTH",
"365 -347 OFFCURVE",
"352 -307 OFFCURVE",
"348 -289 CURVE",
"345 -270 OFFCURVE",
"342 -253 OFFCURVE",
"341 -237 CURVE SMOOTH",
"340 -218 OFFCURVE",
"338 -200 OFFCURVE",
"336 -182 CURVE",
"333 -164 OFFCURVE",
"333 -147 OFFCURVE",
"335 -131 CURVE",
"352 -118 OFFCURVE",
"361 -112 OFFCURVE",
"362 -112 CURVE",
"362 -111 OFFCURVE",
"372 -108 OFFCURVE",
"392 -102 CURVE",
"399 -99 OFFCURVE",
"402 -96 OFFCURVE",
"402 -93 CURVE",
"401 -85 OFFCURVE",
"429 -78 OFFCURVE",
"436 -82 CURVE",
"439 -84 OFFCURVE",
"455 -82 OFFCURVE",
"482 -75 CURVE",
"478 -64 OFFCURVE",
"476 -58 OFFCURVE",
"476 -58 CURVE",
"475 -57 OFFCURVE",
"474 -56 OFFCURVE",
"473 -54 CURVE",
"442 -64 OFFCURVE",
"427 -69 OFFCURVE",
"426 -69 CURVE",
"425 -70 OFFCURVE",
"416 -71 OFFCURVE",
"399 -74 CURVE SMOOTH",
"386 -76 OFFCURVE",
"380 -78 OFFCURVE",
"380 -81 CURVE",
"379 -84 OFFCURVE",
"361 -85 OFFCURVE",
"326 -84 CURVE",
"323 -74 OFFCURVE",
"321 -59 OFFCURVE",
"319 -40 CURVE SMOOTH",
"317 -20 OFFCURVE",
"315 -1 OFFCURVE",
"313 18 CURVE SMOOTH",
"308 85 OFFCURVE",
"306 122 OFFCURVE",
"307 129 CURVE SMOOTH",
"308 135 OFFCURVE",
"308 139 OFFCURVE",
"308 141 CURVE SMOOTH",
"309 198 OFFCURVE",
"310 227 OFFCURVE",
"311 227 CURVE SMOOTH",
"312 227 OFFCURVE",
"312 232 OFFCURVE",
"313 242 CURVE",
"314 285 OFFCURVE",
"320 398 OFFCURVE",
"323 417 CURVE",
"326 446 OFFCURVE",
"327 461 OFFCURVE",
"326 461 CURVE",
"325 462 OFFCURVE",
"327 488 OFFCURVE",
"330 540 CURVE SMOOTH",
"337 646 OFFCURVE",
"340 699 OFFCURVE",
"341 699 CURVE",
"341 699 OFFCURVE",
"340 705 OFFCURVE",
"339 717 CURVE",
"391 736 OFFCURVE",
"420 745 OFFCURVE",
"427 744 CURVE",
"434 742 OFFCURVE",
"443 741 OFFCURVE",
"456 742 CURVE",
"489 771 OFFCURVE",
"479 758 OFFCURVE",
"496 790 CURVE SMOOTH",
"501 799 OFFCURVE",
"509 807 OFFCURVE",
"521 813 CURVE SMOOTH",
"544 825 OFFCURVE",
"577 929 OFFCURVE",
"577 950 CURVE SMOOTH",
"577 953 OFFCURVE",
"577 955 OFFCURVE",
"576 956 CURVE",
"571 959 OFFCURVE",
"564 988 OFFCURVE",
"557 1042 CURVE SMOOTH",
"553 1069 OFFCURVE",
"549 1083 OFFCURVE",
"546 1082 CURVE",
"542 1081 OFFCURVE",
"533 1101 OFFCURVE",
"518 1141 CURVE SMOOTH",
"509 1166 OFFCURVE",
"499 1184 OFFCURVE",
"488 1195 CURVE",
"478 1207 OFFCURVE",
"469 1220 OFFCURVE",
"462 1235 CURVE",
"461 1236 OFFCURVE",
"452 1250 OFFCURVE",
"433 1277 CURVE SMOOTH",
"414 1304 OFFCURVE",
"391 1328 OFFCURVE",
"364 1351 CURVE SMOOTH"
);
},
{
closed = 1;
nodes = (
"261 1361 OFFCURVE",
"271 1355 OFFCURVE",
"291 1342 CURVE SMOOTH",
"310 1330 OFFCURVE",
"324 1317 OFFCURVE",
"333 1303 CURVE SMOOTH",
"349 1278 OFFCURVE",
"361 1263 OFFCURVE",
"370 1258 CURVE SMOOTH",
"379 1253 OFFCURVE",
"391 1243 OFFCURVE",
"405 1228 CURVE",
"415 1216 OFFCURVE",
"421 1210 OFFCURVE",
"423 1210 CURVE",
"424 1211 OFFCURVE",
"438 1184 OFFCURVE",
"463 1130 CURVE SMOOTH",
"474 1106 OFFCURVE",
"482 1094 OFFCURVE",
"485 1095 CURVE SMOOTH",
"488 1096 OFFCURVE",
"493 1074 OFFCURVE",
"502 1030 CURVE SMOOTH",
"508 999 OFFCURVE",
"514 976 OFFCURVE",
"521 961 CURVE SMOOTH",
"524 955 OFFCURVE",
"525 948 OFFCURVE",
"525 941 CURVE SMOOTH",
"525 932 OFFCURVE",
"523 923 OFFCURVE",
"518 914 CURVE",
"499 874 OFFCURVE",
"482 846 OFFCURVE",
"465 829 CURVE SMOOTH",
"448 812 OFFCURVE",
"432 802 OFFCURVE",
"417 799 CURVE SMOOTH",
"404 796 OFFCURVE",
"396 795 OFFCURVE",
"393 794 CURVE SMOOTH",
"390 793 OFFCURVE",
"377 791 OFFCURVE",
"352 786 CURVE",
"337 820 OFFCURVE",
"331 838 OFFCURVE",
"333 841 CURVE",
"336 848 OFFCURVE",
"331 887 OFFCURVE",
"320 942 CURVE SMOOTH",
"308 997 OFFCURVE",
"288 1102 OFFCURVE",
"289 1113 CURVE",
"289 1119 OFFCURVE",
"288 1124 OFFCURVE",
"287 1127 CURVE",
"269 1172 OFFCURVE",
"261 1195 OFFCURVE",
"264 1196 CURVE SMOOTH",
"267 1197 OFFCURVE",
"266 1208 OFFCURVE",
"259 1229 CURVE",
"259 1229 OFFCURVE",
"256 1233 OFFCURVE",
"251 1242 CURVE",
"249 1244 OFFCURVE",
"248 1249 OFFCURVE",
"248 1258 CURVE SMOOTH",
"248 1277 OFFCURVE",
"252 1312 OFFCURVE",
"261 1361 CURVE"
);
},
{
closed = 1;
nodes = (
"258 -160 OFFCURVE",
"276 -253 OFFCURVE",
"276 -254 CURVE SMOOTH",
"275 -294 OFFCURVE",
"297 -358 OFFCURVE",
"301 -370 CURVE",
"315 -418 OFFCURVE",
"326 -452 OFFCURVE",
"333 -473 CURVE SMOOTH",
"348 -516 OFFCURVE",
"372 -574 OFFCURVE",
"376 -575 CURVE",
"378 -575 OFFCURVE",
"381 -579 OFFCURVE",
"384 -588 CURVE SMOOTH",
"389 -602 OFFCURVE",
"392 -610 OFFCURVE",
"393 -611 CURVE SMOOTH",
"394 -612 OFFCURVE",
"397 -627 OFFCURVE",
"404 -655 CURVE",
"413 -657 OFFCURVE",
"418 -658 OFFCURVE",
"419 -658 CURVE",
"419 -658 OFFCURVE",
"421 -660 OFFCURVE",
"426 -664 CURVE",
"416 -663 OFFCURVE",
"404 -662 OFFCURVE",
"389 -660 CURVE SMOOTH",
"375 -658 OFFCURVE",
"345 -645 OFFCURVE",
"299 -621 CURVE SMOOTH",
"286 -614 OFFCURVE",
"275 -607 OFFCURVE",
"264 -599 CURVE SMOOTH",
"253 -591 OFFCURVE",
"232 -579 OFFCURVE",
"201 -564 CURVE SMOOTH",
"170 -548 OFFCURVE",
"145 -532 OFFCURVE",
"127 -517 CURVE",
"110 -501 OFFCURVE",
"90 -483 OFFCURVE",
"67 -464 CURVE",
"67 -463 OFFCURVE",
"62 -460 OFFCURVE",
"53 -453 CURVE",
"43 -446 OFFCURVE",
"30 -418 OFFCURVE",
"15 -369 CURVE",
"26 -344 OFFCURVE",
"41 -332 OFFCURVE",
"59 -331 CURVE SMOOTH",
"77 -330 OFFCURVE",
"90 -323 OFFCURVE",
"97 -312 CURVE SMOOTH",
"122 -272 OFFCURVE",
"149 -246 OFFCURVE",
"178 -235 CURVE SMOOTH",
"207 -223 OFFCURVE",
"222 -215 OFFCURVE",
"221 -211 CURVE SMOOTH",
"217 -196 OFFCURVE",
"215 -189 OFFCURVE",
"215 -188 CURVE SMOOTH",
"215 -187 OFFCURVE",
"215 -183 OFFCURVE",
"214 -174 CURVE",
"230 -170 OFFCURVE",
"238 -168 OFFCURVE",
"238 -167 CURVE",
"239 -167 OFFCURVE",
"245 -164 OFFCURVE",
"257 -157 CURVE"
);
}
);
width = 574;
}
);
note = f;
unicode = 0066;
},
{
glyphname = g;
lastChange = "2017-11-27 10:26:32 +0000";
layers = (
{
layerId = "7E101512-652C-46F2-AEC5-615E4561C90F";
paths = (
{
closed = 1;
nodes = (
"215 521 OFFCURVE",
"200 525 OFFCURVE",
"180 525 CURVE SMOOTH",
"176 525 OFFCURVE",
"172 525 OFFCURVE",
"167 525 CURVE",
"141 523 OFFCURVE",
"118 507 OFFCURVE",
"99 477 CURVE SMOOTH",
"75 441 OFFCURVE",
"60 421 OFFCURVE",
"55 417 CURVE SMOOTH",
"50 413 OFFCURVE",
"44 403 OFFCURVE",
"37 387 CURVE",
"28 364 OFFCURVE",
"21 353 OFFCURVE",
"18 354 CURVE SMOOTH",
"15 355 OFFCURVE",
"12 343 OFFCURVE",
"7 319 CURVE SMOOTH",
"-2 280 OFFCURVE",
"-6 257 OFFCURVE",
"-5 250 CURVE",
"-2 237 OFFCURVE",
"23 179 OFFCURVE",
"34 176 CURVE",
"39 174 OFFCURVE",
"48 169 OFFCURVE",
"59 160 CURVE",
"83 143 OFFCURVE",
"117 138 OFFCURVE",
"126 137 CURVE SMOOTH",
"163 132 OFFCURVE",
"189 133 OFFCURVE",
"206 140 CURVE SMOOTH",
"222 147 OFFCURVE",
"238 152 OFFCURVE",
"255 156 CURVE",
"260 141 OFFCURVE",
"264 134 OFFCURVE",
"266 134 CURVE SMOOTH",
"268 134 OFFCURVE",
"272 121 OFFCURVE",
"277 94 CURVE",
"280 82 OFFCURVE",
"283 76 OFFCURVE",
"286 75 CURVE",
"290 74 OFFCURVE",
"295 45 OFFCURVE",
"300 -12 CURVE",
"247 -35 OFFCURVE",
"220 -48 OFFCURVE",
"219 -49 CURVE SMOOTH",
"218 -50 OFFCURVE",
"217 -50 OFFCURVE",
"217 -51 CURVE",
"213 -53 OFFCURVE",
"204 -59 OFFCURVE",
"191 -70 CURVE SMOOTH",
"178 -81 OFFCURVE",
"157 -95 OFFCURVE",
"126 -113 CURVE SMOOTH",
"112 -121 OFFCURVE",
"95 -133 OFFCURVE",
"75 -148 CURVE SMOOTH",
"54 -163 OFFCURVE",
"32 -178 OFFCURVE",
"7 -193 CURVE SMOOTH",
"-48 -226 OFFCURVE",
"-66 -276 OFFCURVE",
"-70 -316 CURVE",
"-70 -317 OFFCURVE",
"-70 -317 OFFCURVE",
"-70 -318 CURVE SMOOTH",
"-70 -323 OFFCURVE",
"-69 -331 OFFCURVE",
"-67 -342 CURVE SMOOTH",
"-63 -367 OFFCURVE",
"-38 -408 OFFCURVE",
"5 -429 CURVE SMOOTH",
"48 -449 OFFCURVE",
"86 -470 OFFCURVE",
"86 -471 CURVE",
"86 -471 OFFCURVE",
"88 -472 OFFCURVE",
"93 -473 CURVE",
"108 -479 OFFCURVE",
"128 -485 OFFCURVE",
"155 -492 CURVE SMOOTH",
"210 -507 OFFCURVE",
"207 -505 OFFCURVE",
"224 -505 CURVE SMOOTH",
"239 -505 OFFCURVE",
"267 -501 OFFCURVE",
"275 -500 CURVE",
"315 -497 OFFCURVE",
"342 -491 OFFCURVE",
"355 -480 CURVE",
"368 -470 OFFCURVE",
"374 -465 OFFCURVE",
"374 -464 CURVE",
"387 -452 OFFCURVE",
"394 -437 OFFCURVE",
"397 -420 CURVE",
"399 -403 OFFCURVE",
"400 -395 OFFCURVE",
"400 -394 CURVE SMOOTH",
"400 -393 OFFCURVE",
"402 -382 OFFCURVE",
"405 -362 CURVE",
"409 -342 OFFCURVE",
"410 -325 OFFCURVE",
"408 -311 CURVE",
"408 -308 OFFCURVE",
"408 -298 OFFCURVE",
"408 -281 CURVE SMOOTH",
"408 -265 OFFCURVE",
"407 -248 OFFCURVE",
"404 -231 CURVE",
"402 -215 OFFCURVE",
"402 -207 OFFCURVE",
"403 -207 CURVE",
"407 -206 OFFCURVE",
"386 -89 OFFCURVE",
"383 -81 CURVE SMOOTH",
"380 -73 OFFCURVE",
"379 -70 OFFCURVE",
"379 -41 CURVE",
"378 -26 OFFCURVE",
"379 -17 OFFCURVE",
"380 -15 CURVE",
"416 8 OFFCURVE",
"438 20 OFFCURVE",
"445 22 CURVE",
"453 23 OFFCURVE",
"458 24 OFFCURVE",
"459 25 CURVE",
"460 25 OFFCURVE",
"470 31 OFFCURVE",
"489 43 CURVE",
"509 54 OFFCURVE",
"541 69 OFFCURVE",
"585 88 CURVE SMOOTH",
"615 101 OFFCURVE",
"631 108 OFFCURVE",
"632 110 CURVE",
"633 113 OFFCURVE",
"640 117 OFFCURVE",
"651 124 CURVE",
"651 124 OFFCURVE",
"713 147 OFFCURVE",
"713 147 CURVE",
"713 176 OFFCURVE",
"713 190 OFFCURVE",
"713 191 CURVE SMOOTH",
"713 192 OFFCURVE",
"712 198 OFFCURVE",
"710 210 CURVE",
"700 205 OFFCURVE",
"686 198 OFFCURVE",
"669 187 CURVE",
"652 177 OFFCURVE",
"644 172 OFFCURVE",
"643 172 CURVE",
"596 150 OFFCURVE",
"572 138 OFFCURVE",
"570 136 CURVE",
"567 135 OFFCURVE",
"557 130 OFFCURVE",
"540 121 CURVE",
"504 104 OFFCURVE",
"485 96 OFFCURVE",
"484 95 CURVE",
"481 95 OFFCURVE",
"474 92 OFFCURVE",
"445 75 CURVE SMOOTH",
"416 58 OFFCURVE",
"365 30 OFFCURVE",
"358 54 CURVE SMOOTH",
"350 79 OFFCURVE",
"351 80 OFFCURVE",
"338 99 CURVE SMOOTH",
"331 109 OFFCURVE",
"323 138 OFFCURVE",
"312 185 CURVE",
"311 192 OFFCURVE",
"308 196 OFFCURVE",
"303 199 CURVE",
"294 206 OFFCURVE",
"300 298 OFFCURVE",
"307 311 CURVE SMOOTH",
"310 317 OFFCURVE",
"301 340 OFFCURVE",
"279 380 CURVE",
"273 390 OFFCURVE",
"266 397 OFFCURVE",
"259 401 CURVE",
"252 404 OFFCURVE",
"251 419 OFFCURVE",
"258 446 CURVE",
"261 455 OFFCURVE",
"261 465 OFFCURVE",
"260 475 CURVE",
"258 486 OFFCURVE",
"246 499 OFFCURVE",
"225 514 CURVE SMOOTH"
);
},
{
closed = 1;
nodes = (
"126 389 OFFCURVE",
"135 390 OFFCURVE",
"143 390 CURVE SMOOTH",
"154 390 OFFCURVE",
"162 388 OFFCURVE",
"165 383 CURVE",
"170 376 OFFCURVE",
"179 355 OFFCURVE",
"191 320 CURVE",
"192 315 OFFCURVE",
"198 303 OFFCURVE",
"207 285 CURVE SMOOTH",
"216 267 OFFCURVE",
"221 257 OFFCURVE",
"221 254 CURVE",
"221 254 OFFCURVE",
"222 247 OFFCURVE",
"223 233 CURVE",
"223 232 OFFCURVE",
"223 232 OFFCURVE",
"223 232 CURVE",
"223 207 OFFCURVE",
"173 203 OFFCURVE",
"144 199 CURVE",
"143 199 OFFCURVE",
"142 199 OFFCURVE",
"141 199 CURVE SMOOTH",
"126 199 OFFCURVE",
"104 213 OFFCURVE",
"75 242 CURVE",
"75 243 OFFCURVE",
"75 243 OFFCURVE",
"75 244 CURVE SMOOTH",
"75 257 OFFCURVE",
"78 268 OFFCURVE",
"85 279 CURVE SMOOTH",
"92 290 OFFCURVE",
"95 299 OFFCURVE",
"95 305 CURVE",
"94 317 OFFCURVE",
"96 324 OFFCURVE",
"99 327 CURVE",
"106 332 OFFCURVE",
"115 373 OFFCURVE",
"115 374 CURVE",
"115 374 OFFCURVE",
"115 378 OFFCURVE",
"115 387 CURVE"
);
},
{
closed = 1;
nodes = (
"316 -60 OFFCURVE",
"318 -66 OFFCURVE",
"315 -69 CURVE",
"312 -71 OFFCURVE",
"314 -86 OFFCURVE",
"322 -115 CURVE",
"324 -120 OFFCURVE",
"328 -140 OFFCURVE",
"334 -174 CURVE SMOOTH",
"347 -241 OFFCURVE",
"347 -260 OFFCURVE",
"347 -292 CURVE SMOOTH",
"347 -305 OFFCURVE",
"346 -316 OFFCURVE",
"345 -325 CURVE",
"342 -344 OFFCURVE",
"340 -364 OFFCURVE",
"337 -385 CURVE SMOOTH",
"334 -410 OFFCURVE",
"331 -423 OFFCURVE",
"326 -424 CURVE",
"322 -425 OFFCURVE",
"311 -429 OFFCURVE",
"292 -436 CURVE",
"292 -437 OFFCURVE",
"271 -446 OFFCURVE",
"259 -446 CURVE SMOOTH",
"247 -446 OFFCURVE",
"231 -443 OFFCURVE",
"211 -437 CURVE SMOOTH",
"182 -428 OFFCURVE",
"166 -425 OFFCURVE",
"162 -428 CURVE",
"159 -431 OFFCURVE",
"149 -429 OFFCURVE",
"134 -422 CURVE SMOOTH",
"105 -408 OFFCURVE",
"88 -402 OFFCURVE",
"83 -405 CURVE SMOOTH",
"78 -408 OFFCURVE",
"73 -408 OFFCURVE",
"70 -406 CURVE",
"68 -405 OFFCURVE",
"57 -397 OFFCURVE",
"36 -382 CURVE SMOOTH",
"15 -367 OFFCURVE",
"0 -357 OFFCURVE",
"-10 -353 CURVE",
"-11 -343 OFFCURVE",
"-12 -335 OFFCURVE",
"-12 -328 CURVE SMOOTH",
"-12 -317 OFFCURVE",
"-10 -311 OFFCURVE",
"-5 -310 CURVE",
"3 -309 OFFCURVE",
"9 -303 OFFCURVE",
"12 -293 CURVE",
"20 -270 OFFCURVE",
"30 -259 OFFCURVE",
"43 -258 CURVE SMOOTH",
"56 -257 OFFCURVE",
"63 -256 OFFCURVE",
"64 -254 CURVE",
"87 -225 OFFCURVE",
"103 -203 OFFCURVE",
"113 -190 CURVE SMOOTH",
"124 -176 OFFCURVE",
"139 -162 OFFCURVE",
"158 -148 CURVE SMOOTH",
"173 -137 OFFCURVE",
"241 -89 OFFCURVE",
"245 -88 CURVE",
"256 -87 OFFCURVE",
"262 -86 OFFCURVE",
"263 -84 CURVE",
"264 -81 OFFCURVE",
"280 -70 OFFCURVE",
"309 -51 CURVE"
);
}
);
width = 682;
}
);
note = g;
unicode = 0067;
},
{
glyphname = h;
lastChange = "2017-11-27 10:26:32 +0000";
layers = (
{
layerId = "7E101512-652C-46F2-AEC5-615E4561C90F";
paths = (
{
closed = 1;
nodes = (
"365 980 OFFCURVE",
"342 986 OFFCURVE",
"335 986 CURVE",
"334 985 OFFCURVE",
"333 985 OFFCURVE",
"332 985 CURVE",
"330 982 OFFCURVE",
"324 980 OFFCURVE",
"314 979 CURVE",
"311 979 OFFCURVE",
"309 977 OFFCURVE",
"307 974 CURVE SMOOTH",
"305 971 OFFCURVE",
"299 965 OFFCURVE",
"290 957 CURVE",
"289 956 OFFCURVE",
"283 948 OFFCURVE",
"272 932 CURVE",
"260 916 OFFCURVE",
"252 896 OFFCURVE",
"248 873 CURVE SMOOTH",
"244 850 OFFCURVE",
"243 838 OFFCURVE",
"244 837 CURVE SMOOTH",
"245 836 OFFCURVE",
"244 825 OFFCURVE",
"239 805 CURVE SMOOTH",
"226 749 OFFCURVE",
"223 735 OFFCURVE",
"224 700 CURVE SMOOTH",
"225 682 OFFCURVE",
"224 668 OFFCURVE",
"221 657 CURVE SMOOTH",
"214 634 OFFCURVE",
"215 634 OFFCURVE",
"215 601 CURVE SMOOTH",
"215 584 OFFCURVE",
"216 573 OFFCURVE",
"219 566 CURVE",
"219 565 OFFCURVE",
"215 510 OFFCURVE",
"212 495 CURVE SMOOTH",
"205 453 OFFCURVE",
"202 429 OFFCURVE",
"202 422 CURVE",
"201 415 OFFCURVE",
"202 411 OFFCURVE",
"204 410 CURVE",
"182 400 OFFCURVE",
"170 394 OFFCURVE",
"169 393 CURVE",
"167 392 OFFCURVE",
"163 391 OFFCURVE",
"158 388 CURVE",
"137 377 OFFCURVE",
"120 372 OFFCURVE",
"105 373 CURVE SMOOTH",
"90 374 OFFCURVE",
"83 375 OFFCURVE",
"83 375 CURVE",
"77 376 OFFCURVE",
"70 374 OFFCURVE",
"63 369 CURVE",
"55 365 OFFCURVE",
"42 372 OFFCURVE",
"23 390 CURVE SMOOTH",
"8 404 OFFCURVE",
"-4 409 OFFCURVE",
"-11 406 CURVE",
"-24 399 OFFCURVE",
"-22 388 OFFCURVE",
"-22 381 CURVE SMOOTH",
"-22 349 OFFCURVE",
"-19 330 OFFCURVE",
"-14 323 CURVE",
"-8 316 OFFCURVE",
"-5 312 OFFCURVE",
"-5 311 CURVE",
"-2 305 OFFCURVE",
"7 303 OFFCURVE",
"22 304 CURVE",
"37 306 OFFCURVE",
"50 306 OFFCURVE",
"61 305 CURVE",
"64 305 OFFCURVE",
"157 316 OFFCURVE",
"198 340 CURVE",
"201 305 OFFCURVE",
"201 276 OFFCURVE",
"198 252 CURVE",
"194 228 OFFCURVE",
"192 214 OFFCURVE",
"192 211 CURVE SMOOTH",
"192 175 OFFCURVE",
"193 154 OFFCURVE",
"194 148 CURVE",
"196 142 OFFCURVE",
"197 139 OFFCURVE",
"197 138 CURVE",
"198 132 OFFCURVE",
"198 110 OFFCURVE",
"196 72 CURVE SMOOTH",
"194 34 OFFCURVE",
"193 12 OFFCURVE",
"193 6 CURVE SMOOTH",
"193 -49 OFFCURVE",
"193 -80 OFFCURVE",
"193 -85 CURVE SMOOTH",
"193 -94 OFFCURVE",
"197 -121 OFFCURVE",
"208 -150 CURVE SMOOTH",
"211 -158 OFFCURVE",
"217 -162 OFFCURVE",
"225 -162 CURVE SMOOTH",
"232 -162 OFFCURVE",
"240 -159 OFFCURVE",
"250 -154 CURVE",
"273 -119 OFFCURVE",
"259 -55 OFFCURVE",
"258 -55 CURVE",
"258 -54 OFFCURVE",
"260 -45 OFFCURVE",
"263 -27 CURVE SMOOTH",
"266 -9 OFFCURVE",
"268 3 OFFCURVE",
"269 8 CURVE",
"269 8 OFFCURVE",
"267 75 OFFCURVE",
"267 75 CURVE",
"266 88 OFFCURVE",
"268 102 OFFCURVE",
"271 115 CURVE",
"275 128 OFFCURVE",
"275 145 OFFCURVE",
"271 165 CURVE SMOOTH",
"268 179 OFFCURVE",
"268 200 OFFCURVE",
"270 228 CURVE SMOOTH",
"272 256 OFFCURVE",
"274 291 OFFCURVE",
"276 332 CURVE SMOOTH",
"279 391 OFFCURVE",
"287 395 OFFCURVE",
"320 408 CURVE SMOOTH",
"333 413 OFFCURVE",
"342 419 OFFCURVE",
"347 427 CURVE",
"352 436 OFFCURVE",
"360 442 OFFCURVE",
"369 447 CURVE",
"399 462 OFFCURVE",
"423 479 OFFCURVE",
"440 500 CURVE SMOOTH",
"457 521 OFFCURVE",
"467 533 OFFCURVE",
"468 535 CURVE",
"474 544 OFFCURVE",
"480 550 OFFCURVE",
"487 555 CURVE SMOOTH",
"494 560 OFFCURVE",
"502 570 OFFCURVE",
"511 585 CURVE SMOOTH",
"535 623 OFFCURVE",
"547 642 OFFCURVE",
"547 643 CURVE",
"546 643 OFFCURVE",
"546 643 OFFCURVE",
"546 643 CURVE",
"549 648 OFFCURVE",
"552 664 OFFCURVE",
"554 690 CURVE SMOOTH",
"556 717 OFFCURVE",
"558 734 OFFCURVE",
"560 742 CURVE",
"560 742 OFFCURVE",
"560 742 OFFCURVE",
"560 742 CURVE",
"560 743 OFFCURVE",
"554 757 OFFCURVE",
"542 783 CURVE SMOOTH",
"517 838 OFFCURVE",
"526 820 OFFCURVE",
"502 856 CURVE SMOOTH",
"478 892 OFFCURVE",
"454 922 OFFCURVE",
"442 919 CURVE SMOOTH",
"435 917 OFFCURVE",
"428 926 OFFCURVE",
"420 947 CURVE",
"419 948 OFFCURVE",
"419 951 OFFCURVE",
"419 956 CURVE SMOOTH",
"419 961 OFFCURVE",
"414 965 OFFCURVE",
"404 968 CURVE SMOOTH"
);
},
{
closed = 1;
nodes = (
"340 924 OFFCURVE",
"350 926 OFFCURVE",
"367 929 CURVE",
"370 930 OFFCURVE",
"373 930 OFFCURVE",
"376 930 CURVE SMOOTH",
"388 930 OFFCURVE",
"396 924 OFFCURVE",
"401 911 CURVE",
"401 910 OFFCURVE",
"413 895 OFFCURVE",
"437 868 CURVE SMOOTH",
"460 841 OFFCURVE",
"472 825 OFFCURVE",
"473 822 CURVE SMOOTH",
"474 819 OFFCURVE",
"475 816 OFFCURVE",
"476 811 CURVE SMOOTH",
"477 806 OFFCURVE",
"485 788 OFFCURVE",
"500 757 CURVE",
"500 757 OFFCURVE",
"502 754 OFFCURVE",
"506 748 CURVE SMOOTH",
"508 745 OFFCURVE",
"509 739 OFFCURVE",
"509 729 CURVE SMOOTH",
"509 709 OFFCURVE",
"509 661 OFFCURVE",
"481 626 CURVE SMOOTH",
"468 609 OFFCURVE",
"461 601 OFFCURVE",
"461 601 CURVE",
"459 597 OFFCURVE",
"449 585 OFFCURVE",
"432 564 CURVE SMOOTH",
"415 543 OFFCURVE",
"394 525 OFFCURVE",
"367 509 CURVE SMOOTH",
"355 502 OFFCURVE",
"349 497 OFFCURVE",
"350 496 CURVE",
"351 494 OFFCURVE",
"332 484 OFFCURVE",
"295 467 CURVE",
"284 475 OFFCURVE",
"280 536 OFFCURVE",
"280 551 CURVE SMOOTH",
"280 555 OFFCURVE",
"280 557 OFFCURVE",
"281 558 CURVE SMOOTH",
"282 559 OFFCURVE",
"284 561 OFFCURVE",
"287 566 CURVE",
"291 571 OFFCURVE",
"293 588 OFFCURVE",
"292 619 CURVE",
"292 627 OFFCURVE",
"292 634 OFFCURVE",
"292 641 CURVE SMOOTH",
"292 647 OFFCURVE",
"293 666 OFFCURVE",
"296 697 CURVE SMOOTH",
"298 714 OFFCURVE",
"298 727 OFFCURVE",
"296 736 CURVE",
"295 745 OFFCURVE",
"295 754 OFFCURVE",
"298 763 CURVE SMOOTH",
"300 769 OFFCURVE",
"301 774 OFFCURVE",
"300 779 CURVE",
"299 787 OFFCURVE",
"307 830 OFFCURVE",
"323 854 CURVE",
"332 866 OFFCURVE",
"337 889 OFFCURVE",
"339 924 CURVE"
);
},
{
closed = 1;
nodes = (
"562 456 OFFCURVE",
"544 466 OFFCURVE",
"523 470 CURVE",
"502 475 OFFCURVE",
"492 477 OFFCURVE",
"492 477 CURVE",
"482 476 OFFCURVE",
"477 475 OFFCURVE",
"476 475 CURVE SMOOTH",
"475 475 OFFCURVE",
"471 471 OFFCURVE",
"462 463 CURVE SMOOTH",
"454 456 OFFCURVE",
"446 454 OFFCURVE",
"438 457 CURVE",
"429 460 OFFCURVE",
"418 450 OFFCURVE",
"404 428 CURVE SMOOTH",
"389 405 OFFCURVE",
"378 392 OFFCURVE",
"371 391 CURVE SMOOTH",
"365 390 OFFCURVE",
"362 389 OFFCURVE",
"362 389 CURVE",
"360 369 OFFCURVE",
"359 354 OFFCURVE",
"359 343 CURVE SMOOTH",
"359 330 OFFCURVE",
"361 323 OFFCURVE",
"364 323 CURVE",
"369 322 OFFCURVE",
"374 321 OFFCURVE",
"377 318 CURVE",
"402 299 OFFCURVE",
"416 291 OFFCURVE",
"419 292 CURVE",
"423 294 OFFCURVE",
"429 296 OFFCURVE",
"437 298 CURVE",
"417 325 OFFCURVE",
"407 338 OFFCURVE",
"407 339 CURVE SMOOTH",
"407 340 OFFCURVE",
"407 341 OFFCURVE",
"406 342 CURVE",
"425 367 OFFCURVE",
"439 378 OFFCURVE",
"448 377 CURVE",
"464 374 OFFCURVE",
"513 381 OFFCURVE",
"517 382 CURVE",
"520 383 OFFCURVE",
"529 376 OFFCURVE",
"546 363 CURVE",
"555 343 OFFCURVE",
"557 323 OFFCURVE",
"552 303 CURVE",
"546 284 OFFCURVE",
"543 270 OFFCURVE",
"542 263 CURVE",
"541 250 OFFCURVE",
"536 239 OFFCURVE",
"528 229 CURVE SMOOTH",
"520 219 OFFCURVE",
"514 211 OFFCURVE",
"511 206 CURVE",
"497 180 OFFCURVE",
"489 167 OFFCURVE",
"487 168 CURVE",
"484 168 OFFCURVE",
"479 163 OFFCURVE",
"471 153 CURVE",
"470 152 OFFCURVE",
"469 149 OFFCURVE",
"468 144 CURVE SMOOTH",
"467 139 OFFCURVE",
"451 114 OFFCURVE",
"421 68 CURVE SMOOTH",
"410 50 OFFCURVE",
"404 35 OFFCURVE",
"405 23 CURVE SMOOTH",
"406 11 OFFCURVE",
"406 4 OFFCURVE",
"406 2 CURVE",
"425 -11 OFFCURVE",
"442 -17 OFFCURVE",
"457 -18 CURVE",
"462 -18 OFFCURVE",
"468 -17 OFFCURVE",
"473 -15 CURVE SMOOTH",
"492 -8 OFFCURVE",
"504 -4 OFFCURVE",
"511 -2 CURVE",
"526 3 OFFCURVE",
"535 7 OFFCURVE",
"536 10 CURVE SMOOTH",
"537 13 OFFCURVE",
"546 21 OFFCURVE",
"563 34 CURVE SMOOTH",
"578 46 OFFCURVE",
"592 61 OFFCURVE",
"585 69 CURVE",
"570 64 OFFCURVE",
"563 62 OFFCURVE",
"562 62 CURVE SMOOTH",
"561 62 OFFCURVE",
"556 63 OFFCURVE",
"547 65 CURVE SMOOTH",
"535 68 OFFCURVE",
"527 67 OFFCURVE",
"523 62 CURVE SMOOTH",
"519 57 OFFCURVE",
"509 54 OFFCURVE",
"492 51 CURVE",
"495 71 OFFCURVE",
"499 81 OFFCURVE",
"504 82 CURVE SMOOTH",
"509 83 OFFCURVE",
"521 101 OFFCURVE",
"539 135 CURVE",
"540 136 OFFCURVE",
"546 144 OFFCURVE",
"557 160 CURVE SMOOTH",
"568 177 OFFCURVE",
"578 193 OFFCURVE",
"585 210 CURVE SMOOTH",
"590 222 OFFCURVE",
"594 228 OFFCURVE",
"597 227 CURVE",
"602 227 OFFCURVE",
"617 310 OFFCURVE",
"617 330 CURVE SMOOTH",
"617 342 OFFCURVE",
"611 358 OFFCURVE",
"611 358 CURVE",
"608 365 OFFCURVE",
"609 374 OFFCURVE",
"613 383 CURVE SMOOTH",
"617 392 OFFCURVE",
"605 411 OFFCURVE",
"577 440 CURVE SMOOTH"
);
}
);
width = 574;
}
);
note = h;
unicode = 0068;
},
{
glyphname = i;
lastChange = "2017-11-27 10:26:32 +0000";
layers = (
{
layerId = "7E101512-652C-46F2-AEC5-615E4561C90F";
paths = (
{
closed = 1;
nodes = (
"390 909 OFFCURVE",
"386 919 OFFCURVE",
"381 934 CURVE",
"375 949 OFFCURVE",
"364 957 OFFCURVE",
"349 958 CURVE",
"333 946 OFFCURVE",
"325 938 OFFCURVE",
"326 934 CURVE",
"327 931 OFFCURVE",
"326 925 OFFCURVE",
"323 918 CURVE",
"323 918 OFFCURVE",
"322 914 OFFCURVE",
"320 906 CURVE",
"320 905 OFFCURVE",
"320 905 OFFCURVE",
"320 905 CURVE",
"320 897 OFFCURVE",
"336 890 OFFCURVE",
"368 884 CURVE",
"365 881 OFFCURVE",
"363 880 OFFCURVE",
"363 880 CURVE",
"362 879 OFFCURVE",
"358 879 OFFCURVE",
"351 880 CURVE",
"351 880 OFFCURVE",
"338 842 OFFCURVE",
"343 838 CURVE",
"367 813 OFFCURVE",
"379 801 OFFCURVE",
"380 802 CURVE SMOOTH",
"381 803 OFFCURVE",
"382 801 OFFCURVE",
"385 798 CURVE",
"385 797 OFFCURVE",
"386 794 OFFCURVE",
"388 787 CURVE SMOOTH",
"391 775 OFFCURVE",
"401 741 OFFCURVE",
"422 741 CURVE SMOOTH",
"425 741 OFFCURVE",
"428 741 OFFCURVE",
"431 742 CURVE",
"442 743 OFFCURVE",
"447 748 OFFCURVE",
"447 757 CURVE SMOOTH",
"447 762 OFFCURVE",
"446 767 OFFCURVE",
"443 773 CURVE",
"443 773 OFFCURVE",
"437 833 OFFCURVE",
"412 854 CURVE",
"410 856 OFFCURVE",
"409 860 OFFCURVE",
"410 865 CURVE SMOOTH",
"411 871 OFFCURVE",
"406 884 OFFCURVE",
"393 904 CURVE"
);
},
{
closed = 1;
nodes = (
"271 422 OFFCURVE",
"265 426 OFFCURVE",
"263 426 CURVE SMOOTH",
"262 426 OFFCURVE",
"262 426 OFFCURVE",
"262 426 CURVE",
"261 425 OFFCURVE",
"253 425 OFFCURVE",
"240 425 CURVE",
"239 388 OFFCURVE",
"234 364 OFFCURVE",
"227 352 CURVE",
"219 340 OFFCURVE",
"213 331 OFFCURVE",
"210 326 CURVE",
"219 316 OFFCURVE",
"223 310 OFFCURVE",
"222 307 CURVE SMOOTH",
"221 304 OFFCURVE",
"220 298 OFFCURVE",
"219 288 CURVE SMOOTH",
"218 273 OFFCURVE",
"216 262 OFFCURVE",
"213 256 CURVE",
"210 251 OFFCURVE",
"214 242 OFFCURVE",
"223 229 CURVE",
"226 226 OFFCURVE",
"226 215 OFFCURVE",
"223 196 CURVE SMOOTH",
"220 177 OFFCURVE",
"222 158 OFFCURVE",
"228 139 CURVE",
"228 138 OFFCURVE",
"229 125 OFFCURVE",
"232 100 CURVE SMOOTH",
"235 75 OFFCURVE",
"237 60 OFFCURVE",
"236 54 CURVE",
"236 51 OFFCURVE",
"238 48 OFFCURVE",
"242 46 CURVE",
"245 43 OFFCURVE",
"254 32 OFFCURVE",
"269 11 CURVE SMOOTH",
"274 4 OFFCURVE",
"281 -1 OFFCURVE",
"292 -4 CURVE",
"295 -5 OFFCURVE",
"299 -5 OFFCURVE",
"302 -5 CURVE SMOOTH",
"315 -5 OFFCURVE",
"329 3 OFFCURVE",
"329 20 CURVE SMOOTH",
"329 22 OFFCURVE",
"329 24 OFFCURVE",
"329 25 CURVE",
"328 37 OFFCURVE",
"327 43 OFFCURVE",
"328 44 CURVE",
"328 49 OFFCURVE",
"325 56 OFFCURVE",
"319 67 CURVE",
"306 87 OFFCURVE",
"296 183 OFFCURVE",
"297 196 CURVE",
"298 203 OFFCURVE",
"299 213 OFFCURVE",
"299 226 CURVE SMOOTH",
"299 228 OFFCURVE",
"297 232 OFFCURVE",
"293 237 CURVE SMOOTH",
"289 242 OFFCURVE",
"289 264 OFFCURVE",
"292 302 CURVE",
"295 327 OFFCURVE",
"294 341 OFFCURVE",
"289 346 CURVE SMOOTH",
"284 351 OFFCURVE",
"282 374 OFFCURVE",
"282 414 CURVE"
);
}
);
width = 574;
}
);
note = i;
unicode = 0069;
},
{
glyphname = j;
lastChange = "2017-11-27 10:26:32 +0000";
layers = (
{
layerId = "7E101512-652C-46F2-AEC5-615E4561C90F";
paths = (
{
closed = 1;
nodes = (
"-69 1063 OFFCURVE",
"-79 1065 OFFCURVE",
"-80 1065 CURVE SMOOTH",
"-80 1065 OFFCURVE",
"-84 1065 OFFCURVE",
"-92 1066 CURVE",
"-108 1055 OFFCURVE",
"-101 1058 OFFCURVE",
"-121 1055 CURVE",
"-118 1014 OFFCURVE",
"-113 993 OFFCURVE",
"-105 991 CURVE",
"-98 990 OFFCURVE",
"-90 982 OFFCURVE",
"-83 968 CURVE",
"-78 957 OFFCURVE",
"-74 951 OFFCURVE",
"-71 952 CURVE SMOOTH",
"-68 953 OFFCURVE",
"-39 928 OFFCURVE",
"18 878 CURVE SMOOTH",
"39 859 OFFCURVE",
"51 847 OFFCURVE",
"53 844 CURVE",
"55 840 OFFCURVE",
"72 838 OFFCURVE",
"103 838 CURVE",
"99 855 OFFCURVE",
"97 864 OFFCURVE",
"96 864 CURVE",
"96 865 OFFCURVE",
"93 873 OFFCURVE",
"87 888 CURVE",
"87 889 OFFCURVE",
"75 902 OFFCURVE",
"50 928 CURVE SMOOTH",
"1 981 OFFCURVE",
"-47 1050 OFFCURVE",
"-47 1054 CURVE",
"-48 1057 OFFCURVE",
"-48 1058 OFFCURVE",
"-48 1059 CURVE"
);
},
{
closed = 1;
nodes = (
"285 348 OFFCURVE",
"272 363 OFFCURVE",
"264 370 CURVE",
"262 372 OFFCURVE",
"259 373 OFFCURVE",
"256 373 CURVE SMOOTH",
"248 373 OFFCURVE",
"237 366 OFFCURVE",
"224 353 CURVE",
"229 340 OFFCURVE",
"237 331 OFFCURVE",
"248 325 CURVE",
"259 320 OFFCURVE",
"258 311 OFFCURVE",
"246 298 CURVE",
"265 277 OFFCURVE",
"274 266 OFFCURVE",
"275 265 CURVE SMOOTH",
"276 264 OFFCURVE",
"280 257 OFFCURVE",
"289 244 CURVE",
"324 189 OFFCURVE",
"347 159 OFFCURVE",
"352 124 CURVE SMOOTH",
"357 95 OFFCURVE",
"363 80 OFFCURVE",
"368 79 CURVE",
"373 79 OFFCURVE",
"373 62 OFFCURVE",
"368 29 CURVE",
"329 -1 OFFCURVE",
"308 -17 OFFCURVE",
"307 -19 CURVE",
"306 -20 OFFCURVE",
"299 -24 OFFCURVE",
"286 -29 CURVE",
"279 -32 OFFCURVE",
"275 -36 OFFCURVE",
"272 -41 CURVE SMOOTH",
"269 -46 OFFCURVE",
"249 -61 OFFCURVE",
"211 -86 CURVE",
"202 -91 OFFCURVE",
"197 -99 OFFCURVE",
"194 -108 CURVE SMOOTH",
"191 -117 OFFCURVE",
"162 -139 OFFCURVE",
"109 -176 CURVE SMOOTH",
"82 -194 OFFCURVE",
"66 -208 OFFCURVE",
"61 -218 CURVE SMOOTH",
"56 -228 OFFCURVE",
"42 -248 OFFCURVE",
"20 -277 CURVE SMOOTH",
"8 -292 OFFCURVE",
"2 -307 OFFCURVE",
"2 -321 CURVE SMOOTH",
"2 -326 OFFCURVE",
"3 -332 OFFCURVE",
"5 -337 CURVE SMOOTH",
"12 -355 OFFCURVE",
"16 -372 OFFCURVE",
"17 -388 CURVE",
"17 -395 OFFCURVE",
"23 -400 OFFCURVE",
"35 -401 CURVE",
"36 -401 OFFCURVE",
"38 -401 OFFCURVE",
"40 -401 CURVE SMOOTH",
"56 -401 OFFCURVE",
"92 -397 OFFCURVE",
"147 -389 CURVE SMOOTH",
"183 -385 OFFCURVE",
"270 -348 OFFCURVE",
"285 -337 CURVE",
"347 -295 OFFCURVE",
"379 -272 OFFCURVE",
"381 -268 CURVE SMOOTH",
"383 -264 OFFCURVE",
"388 -258 OFFCURVE",
"397 -250 CURVE SMOOTH",
"416 -234 OFFCURVE",
"429 -211 OFFCURVE",
"438 -181 CURVE SMOOTH",
"454 -122 OFFCURVE",
"459 -96 OFFCURVE",
"452 -75 CURVE",
"449 -64 OFFCURVE",
"446 -51 OFFCURVE",
"444 -35 CURVE SMOOTH",
"439 14 OFFCURVE",
"454 28 OFFCURVE",
"470 44 CURVE SMOOTH",
"486 59 OFFCURVE",
"508 77 OFFCURVE",
"536 100 CURVE",
"565 122 OFFCURVE",
"579 133 OFFCURVE",
"579 133 CURVE",
"610 158 OFFCURVE",
"636 177 OFFCURVE",
"657 190 CURVE SMOOTH",
"678 203 OFFCURVE",
"690 212 OFFCURVE",
"695 216 CURVE",
"696 217 OFFCURVE",
"707 223 OFFCURVE",
"727 234 CURVE SMOOTH",
"747 245 OFFCURVE",
"760 241 OFFCURVE",
"765 223 CURVE",
"768 189 OFFCURVE",
"767 168 OFFCURVE",
"763 159 CURVE SMOOTH",
"759 150 OFFCURVE",
"757 146 OFFCURVE",
"757 146 CURVE",
"786 166 OFFCURVE",
"802 185 OFFCURVE",
"805 202 CURVE SMOOTH",
"808 219 OFFCURVE",
"809 228 OFFCURVE",
"809 229 CURVE",
"816 256 OFFCURVE",
"819 274 OFFCURVE",
"819 281 CURVE SMOOTH",
"819 283 OFFCURVE",
"819 284 OFFCURVE",
"819 285 CURVE",
"817 290 OFFCURVE",
"807 300 OFFCURVE",
"790 315 CURVE",
"752 307 OFFCURVE",
"724 296 OFFCURVE",
"707 283 CURVE SMOOTH",
"690 270 OFFCURVE",
"675 261 OFFCURVE",
"664 254 CURVE",
"606 221 OFFCURVE",
"575 200 OFFCURVE",
"571 193 CURVE",
"566 186 OFFCURVE",
"559 178 OFFCURVE",
"549 171 CURVE",
"537 164 OFFCURVE",
"530 158 OFFCURVE",
"527 153 CURVE",
"524 149 OFFCURVE",
"507 138 OFFCURVE",
"476 119 CURVE",
"476 119 OFFCURVE",
"465 109 OFFCURVE",
"443 88 CURVE SMOOTH",
"422 68 OFFCURVE",
"419 69 OFFCURVE",
"434 91 CURVE",
"422 107 OFFCURVE",
"416 115 OFFCURVE",
"416 115 CURVE",
"415 116 OFFCURVE",
"413 123 OFFCURVE",
"409 137 CURVE SMOOTH",
"402 160 OFFCURVE",
"399 173 OFFCURVE",
"399 176 CURVE SMOOTH",
"399 179 OFFCURVE",
"390 193 OFFCURVE",
"372 218 CURVE SMOOTH",
"357 239 OFFCURVE",
"344 260 OFFCURVE",
"332 281 CURVE",
"321 302 OFFCURVE",
"311 317 OFFCURVE",
"304 326 CURVE"
);
},
{
closed = 1;
nodes = (
"364 -22 OFFCURVE",
"371 -22 OFFCURVE",
"384 -23 CURVE SMOOTH",
"393 -24 OFFCURVE",
"397 -33 OFFCURVE",
"397 -51 CURVE SMOOTH",
"397 -61 OFFCURVE",
"396 -74 OFFCURVE",
"393 -89 CURVE SMOOTH",
"382 -152 OFFCURVE",
"371 -187 OFFCURVE",
"361 -192 CURVE",
"351 -198 OFFCURVE",
"341 -207 OFFCURVE",
"332 -219 CURVE SMOOTH",
"316 -240 OFFCURVE",
"307 -251 OFFCURVE",
"304 -252 CURVE SMOOTH",
"301 -253 OFFCURVE",
"288 -261 OFFCURVE",
"267 -276 CURVE SMOOTH",
"245 -291 OFFCURVE",
"227 -300 OFFCURVE",
"212 -301 CURVE",
"198 -303 OFFCURVE",
"189 -305 OFFCURVE",
"185 -308 CURVE",
"180 -311 OFFCURVE",
"175 -314 OFFCURVE",
"169 -317 CURVE SMOOTH",
"163 -320 OFFCURVE",
"136 -328 OFFCURVE",
"88 -342 CURVE",
"71 -338 OFFCURVE",
"62 -333 OFFCURVE",
"62 -326 CURVE SMOOTH",
"62 -323 OFFCURVE",
"64 -320 OFFCURVE",
"67 -317 CURVE",
"78 -305 OFFCURVE",
"87 -296 OFFCURVE",
"94 -289 CURVE",
"143 -236 OFFCURVE",
"170 -206 OFFCURVE",
"173 -201 CURVE",
"176 -195 OFFCURVE",
"180 -189 OFFCURVE",
"187 -184 CURVE",
"201 -173 OFFCURVE",
"209 -166 OFFCURVE",
"210 -164 CURVE SMOOTH",
"211 -162 OFFCURVE",
"237 -138 OFFCURVE",
"288 -91 CURVE SMOOTH",
"301 -79 OFFCURVE",
"307 -73 OFFCURVE",
"308 -73 CURVE",
"308 -74 OFFCURVE",
"313 -70 OFFCURVE",
"323 -63 CURVE SMOOTH",
"350 -44 OFFCURVE",
"337 -57 OFFCURVE",
"364 -22 CURVE"
);
}
);
width = 574;
}
);
note = j;
unicode = 006A;
},
{
glyphname = l;
lastChange = "2017-11-27 10:28:00 +0000";
layers = (
{
layerId = "7E101512-652C-46F2-AEC5-615E4561C90F";
paths = (
{
closed = 1;
nodes = (
"506 1165 OFFCURVE",
"494 1199 OFFCURVE",
"459 1200 CURVE",
"458 1199 OFFCURVE",
"448 1194 OFFCURVE",
"427 1185 CURVE",
"407 1175 OFFCURVE",
"393 1168 OFFCURVE",
"385 1164 CURVE",
"374 1159 OFFCURVE",
"368 1154 OFFCURVE",
"368 1147 CURVE SMOOTH",
"368 1140 OFFCURVE",
"351 1116 OFFCURVE",
"317 1076 CURVE SMOOTH",
"296 1051 OFFCURVE",
"286 1037 OFFCURVE",
"286 1034 CURVE SMOOTH",
"286 1031 OFFCURVE",
"282 1024 OFFCURVE",
"274 1012 CURVE SMOOTH",
"258 988 OFFCURVE",
"242 930 OFFCURVE",
"234 891 CURVE",
"233 885 OFFCURVE",
"233 880 OFFCURVE",
"235 877 CURVE SMOOTH",
"237 874 OFFCURVE",
"236 852 OFFCURVE",
"231 813 CURVE",
"228 779 OFFCURVE",
"228 750 OFFCURVE",
"233 727 CURVE SMOOTH",
"238 704 OFFCURVE",
"241 692 OFFCURVE",
"241 691 CURVE",
"250 636 OFFCURVE",
"255 603 OFFCURVE",
"256 592 CURVE SMOOTH",
"257 581 OFFCURVE",
"259 569 OFFCURVE",
"261 556 CURVE",
"262 551 OFFCURVE",
"264 546 OFFCURVE",
"267 542 CURVE",
"272 534 OFFCURVE",
"302 389 OFFCURVE",
"291 377 CURVE",
"286 371 OFFCURVE",
"282 367 OFFCURVE",
"280 364 CURVE",
"268 349 OFFCURVE",
"261 339 OFFCURVE",
"258 336 CURVE",
"256 333 OFFCURVE",
"241 311 OFFCURVE",
"212 271 CURVE SMOOTH",
"191 242 OFFCURVE",
"180 226 OFFCURVE",
"180 225 CURVE",
"181 224 OFFCURVE",
"176 221 OFFCURVE",
"166 215 CURVE",
"154 207 OFFCURVE",
"130 159 OFFCURVE",
"125 148 CURVE",
"124 147 OFFCURVE",
"119 140 OFFCURVE",
"110 128 CURVE",
"100 117 OFFCURVE",
"86 100 OFFCURVE",
"69 78 CURVE SMOOTH",
"65 73 OFFCURVE",
"63 69 OFFCURVE",
"63 68 CURVE",
"64 67 OFFCURVE",
"58 60 OFFCURVE",
"46 48 CURVE SMOOTH",
"24 25 OFFCURVE",
"13 12 OFFCURVE",
"14 11 CURVE",
"14 9 OFFCURVE",
"10 7 OFFCURVE",
"1 6 CURVE",
"1 -25 OFFCURVE",
"1 -42 OFFCURVE",
"1 -43 CURVE SMOOTH",
"1 -45 OFFCURVE",
"1 -56 OFFCURVE",
"1 -75 CURVE",
"20 -64 OFFCURVE",
"30 -59 OFFCURVE",
"31 -59 CURVE SMOOTH",
"32 -59 OFFCURVE",
"46 -44 OFFCURVE",
"72 -13 CURVE SMOOTH",
"87 4 OFFCURVE",
"95 13 OFFCURVE",
"98 14 CURVE",
"100 15 OFFCURVE",
"107 25 OFFCURVE",
"120 45 CURVE SMOOTH",
"144 82 OFFCURVE",
"156 104 OFFCURVE",
"156 112 CURVE SMOOTH",
"156 128 OFFCURVE",
"172 187 OFFCURVE",
"193 179 CURVE SMOOTH",
"203 175 OFFCURVE",
"208 173 OFFCURVE",
"208 173 CURVE",
"209 176 OFFCURVE",
"303 295 OFFCURVE",
"310 299 CURVE",
"318 266 OFFCURVE",
"322 211 OFFCURVE",
"322 208 CURVE",
"326 151 OFFCURVE",
"343 111 OFFCURVE",
"356 94 CURVE SMOOTH",
"368 78 OFFCURVE",
"374 69 OFFCURVE",
"375 67 CURVE",
"376 63 OFFCURVE",
"428 11 OFFCURVE",
"449 11 CURVE",
"460 10 OFFCURVE",
"471 8 OFFCURVE",
"482 4 CURVE SMOOTH",
"513 -7 OFFCURVE",
"535 -9 OFFCURVE",
"547 -4 CURVE SMOOTH",
"558 1 OFFCURVE",
"574 -1 OFFCURVE",
"594 -10 CURVE",
"596 13 OFFCURVE",
"597 26 OFFCURVE",
"597 27 CURVE SMOOTH",
"597 28 OFFCURVE",
"597 28 OFFCURVE",
"597 28 CURVE",
"597 31 OFFCURVE",
"596 43 OFFCURVE",
"594 62 CURVE",
"561 53 OFFCURVE",
"534 52 OFFCURVE",
"514 58 CURVE SMOOTH",
"494 64 OFFCURVE",
"483 67 OFFCURVE",
"480 68 CURVE",
"452 75 OFFCURVE",
"408 95 OFFCURVE",
"403 146 CURVE",
"402 151 OFFCURVE",
"400 158 OFFCURVE",
"395 169 CURVE SMOOTH",
"390 180 OFFCURVE",
"387 198 OFFCURVE",
"388 223 CURVE",
"389 230 OFFCURVE",
"386 251 OFFCURVE",
"380 288 CURVE SMOOTH",
"368 361 OFFCURVE",
"362 386 OFFCURVE",
"383 419 CURVE SMOOTH",
"394 436 OFFCURVE",
"403 455 OFFCURVE",
"409 475 CURVE SMOOTH",
"421 512 OFFCURVE",
"431 536 OFFCURVE",
"439 549 CURVE SMOOTH",
"447 562 OFFCURVE",
"451 569 OFFCURVE",
"452 570 CURVE",
"459 580 OFFCURVE",
"461 590 OFFCURVE",
"458 601 CURVE",
"454 612 OFFCURVE",
"461 641 OFFCURVE",
"480 686 CURVE SMOOTH",
"487 702 OFFCURVE",
"491 729 OFFCURVE",
"494 766 CURVE SMOOTH",
"497 803 OFFCURVE",
"498 826 OFFCURVE",
"499 835 CURVE SMOOTH",
"502 857 OFFCURVE",
"504 881 OFFCURVE",
"504 908 CURVE",
"503 935 OFFCURVE",
"505 953 OFFCURVE",
"508 963 CURVE SMOOTH",
"511 972 OFFCURVE",
"512 976 OFFCURVE",
"511 977 CURVE",
"510 977 OFFCURVE",
"512 996 OFFCURVE",
"519 1035 CURVE",
"519 1035 OFFCURVE",
"516 1049 OFFCURVE",
"509 1077 CURVE",
"503 1106 OFFCURVE",
"502 1131 OFFCURVE",
"505 1154 CURVE"
);
},
{
closed = 1;
nodes = (
"456 1098 OFFCURVE",
"456 1092 OFFCURVE",
"455 1081 CURVE SMOOTH",
"454 1069 OFFCURVE",
"457 1050 OFFCURVE",
"464 1023 CURVE",
"465 1021 OFFCURVE",
"466 1019 OFFCURVE",
"468 1016 CURVE",
"469 1015 OFFCURVE",
"469 1014 OFFCURVE",
"469 1012 CURVE SMOOTH",
"469 1004 OFFCURVE",
"466 984 OFFCURVE",
"459 952 CURVE",
"459 952 OFFCURVE",
"447 850 OFFCURVE",
"447 850 CURVE",
"447 844 OFFCURVE",
"447 839 OFFCURVE",
"446 835 CURVE",
"446 827 OFFCURVE",
"440 755 OFFCURVE",
"411 640 CURVE SMOOTH",
"396 583 OFFCURVE",
"387 553 OFFCURVE",
"386 551 CURVE",
"376 539 OFFCURVE",
"372 531 OFFCURVE",
"374 526 CURVE",
"376 522 OFFCURVE",
"367 510 OFFCURVE",
"346 491 CURVE",
"338 516 OFFCURVE",
"334 535 OFFCURVE",
"334 547 CURVE SMOOTH",
"334 558 OFFCURVE",
"331 578 OFFCURVE",
"325 607 CURVE SMOOTH",
"316 649 OFFCURVE",
"311 673 OFFCURVE",
"312 678 CURVE SMOOTH",
"313 683 OFFCURVE",
"313 685 OFFCURVE",
"313 686 CURVE",
"306 712 OFFCURVE",
"302 726 OFFCURVE",
"302 727 CURVE",
"303 731 OFFCURVE",
"302 778 OFFCURVE",
"299 830 CURVE",
"298 836 OFFCURVE",
"298 842 OFFCURVE",
"298 847 CURVE SMOOTH",
"298 866 OFFCURVE",
"300 882 OFFCURVE",
"305 897 CURVE",
"316 936 OFFCURVE",
"321 960 OFFCURVE",
"320 967 CURVE SMOOTH",
"319 974 OFFCURVE",
"328 986 OFFCURVE",
"347 1004 CURVE SMOOTH",
"354 1011 OFFCURVE",
"361 1017 OFFCURVE",
"366 1023 CURVE",
"377 1035 OFFCURVE",
"407 1068 OFFCURVE",
"404 1075 CURVE",
"403 1078 OFFCURVE",
"403 1080 OFFCURVE",
"406 1082 CURVE",
"413 1088 OFFCURVE",
"417 1091 OFFCURVE",
"419 1092 CURVE",
"420 1092 OFFCURVE",
"433 1094 OFFCURVE",
"456 1098 CURVE"
);
}
);
width = 585;
}
);
note = l;
unicode = 006C;
},
{
glyphname = m;
lastChange = "2017-11-27 10:26:32 +0000";
layers = (
{
layerId = "7E101512-652C-46F2-AEC5-615E4561C90F";
paths = (
{
closed = 1;
nodes = (
"85 522 OFFCURVE",
"80 524 OFFCURVE",
"77 524 CURVE SMOOTH",
"76 524 OFFCURVE",
"75 524 OFFCURVE",
"74 523 CURVE",
"71 521 OFFCURVE",
"68 520 OFFCURVE",
"66 519 CURVE",
"45 510 OFFCURVE",
"32 505 OFFCURVE",
"27 504 CURVE",
"16 500 OFFCURVE",
"-33 459 OFFCURVE",
"-34 458 CURVE SMOOTH",
"-35 457 OFFCURVE",
"-35 457 OFFCURVE",
"-36 456 CURVE",
"-36 455 OFFCURVE",
"-42 448 OFFCURVE",
"-55 434 CURVE",
"-79 405 OFFCURVE",
"-114 362 OFFCURVE",
"-125 343 CURVE SMOOTH",
"-130 334 OFFCURVE",
"-132 329 OFFCURVE",
"-132 329 CURVE",
"-137 320 OFFCURVE",
"-144 310 OFFCURVE",
"-153 300 CURVE SMOOTH",
"-170 280 OFFCURVE",
"-197 244 OFFCURVE",
"-197 233 CURVE SMOOTH",
"-197 232 OFFCURVE",
"-197 232 OFFCURVE",
"-197 232 CURVE",
"-196 227 OFFCURVE",
"-195 224 OFFCURVE",
"-196 221 CURVE",
"-192 217 OFFCURVE",
"-173 199 OFFCURVE",
"-153 208 CURVE",
"-154 219 OFFCURVE",
"-152 225 OFFCURVE",
"-149 226 CURVE SMOOTH",
"-146 227 OFFCURVE",
"-143 228 OFFCURVE",
"-140 227 CURVE",
"-135 226 OFFCURVE",
"-91 278 OFFCURVE",
"-84 290 CURVE",
"-75 308 OFFCURVE",
"-70 317 OFFCURVE",
"-69 318 CURVE SMOOTH",
"-68 319 OFFCURVE",
"-66 321 OFFCURVE",
"-62 326 CURVE",
"-49 341 OFFCURVE",
"-42 350 OFFCURVE",
"-43 351 CURVE",
"-43 352 OFFCURVE",
"-41 355 OFFCURVE",
"-37 358 CURVE",
"-21 372 OFFCURVE",
"-13 381 OFFCURVE",
"-12 385 CURVE SMOOTH",
"-11 389 OFFCURVE",
"-5 394 OFFCURVE",
"8 399 CURVE",
"11 400 OFFCURVE",
"12 403 OFFCURVE",
"9 408 CURVE",
"7 413 OFFCURVE",
"15 417 OFFCURVE",
"33 421 CURVE",
"40 423 OFFCURVE",
"44 425 OFFCURVE",
"47 428 CURVE",
"50 430 OFFCURVE",
"55 431 OFFCURVE",
"60 430 CURVE",
"63 430 OFFCURVE",
"73 420 OFFCURVE",
"73 419 CURVE",
"75 392 OFFCURVE",
"76 378 OFFCURVE",
"76 377 CURVE SMOOTH",
"76 376 OFFCURVE",
"77 375 OFFCURVE",
"79 373 CURVE",
"79 373 OFFCURVE",
"74 320 OFFCURVE",
"86 295 CURVE",
"89 290 OFFCURVE",
"89 284 OFFCURVE",
"87 278 CURVE",
"85 273 OFFCURVE",
"88 259 OFFCURVE",
"97 236 CURVE SMOOTH",
"106 211 OFFCURVE",
"110 195 OFFCURVE",
"108 188 CURVE",
"107 181 OFFCURVE",
"108 174 OFFCURVE",
"112 169 CURVE",
"115 166 OFFCURVE",
"114 162 OFFCURVE",
"109 156 CURVE SMOOTH",
"104 150 OFFCURVE",
"107 132 OFFCURVE",
"118 103 CURVE",
"119 99 OFFCURVE",
"118 89 OFFCURVE",
"114 72 CURVE",
"109 55 OFFCURVE",
"107 46 OFFCURVE",
"106 43 CURVE",
"105 37 OFFCURVE",
"104 33 OFFCURVE",
"103 31 CURVE",
"102 28 OFFCURVE",
"110 8 OFFCURVE",
"127 -29 CURVE",
"162 -40 OFFCURVE",
"184 -7 OFFCURVE",
"192 13 CURVE",
"193 17 OFFCURVE",
"199 52 OFFCURVE",
"194 67 CURVE",
"191 74 OFFCURVE",
"201 119 OFFCURVE",
"206 134 CURVE",
"211 145 OFFCURVE",
"213 152 OFFCURVE",
"212 157 CURVE SMOOTH",
"211 162 OFFCURVE",
"210 166 OFFCURVE",
"210 170 CURVE",
"209 183 OFFCURVE",
"212 190 OFFCURVE",
"219 192 CURVE",
"225 194 OFFCURVE",
"229 202 OFFCURVE",
"232 216 CURVE",
"233 219 OFFCURVE",
"238 225 OFFCURVE",
"248 234 CURVE",
"258 244 OFFCURVE",
"264 254 OFFCURVE",
"266 265 CURVE",
"266 268 OFFCURVE",
"271 275 OFFCURVE",
"282 284 CURVE",
"292 293 OFFCURVE",
"297 298 OFFCURVE",
"298 301 CURVE",
"298 301 OFFCURVE",
"300 302 OFFCURVE",
"303 303 CURVE SMOOTH",
"306 304 OFFCURVE",
"320 321 OFFCURVE",
"345 352 CURVE",
"345 352 OFFCURVE",
"346 352 OFFCURVE",
"347 352 CURVE SMOOTH",
"349 352 OFFCURVE",
"350 342 OFFCURVE",
"350 321 CURVE SMOOTH",
"350 320 OFFCURVE",
"362 277 OFFCURVE",
"366 266 CURVE",
"357 254 OFFCURVE",
"353 245 OFFCURVE",
"355 239 CURVE",
"358 234 OFFCURVE",
"359 226 OFFCURVE",
"359 217 CURVE",
"352 206 OFFCURVE",
"361 204 OFFCURVE",
"366 204 CURVE",
"355 191 OFFCURVE",
"356 165 OFFCURVE",
"356 165 CURVE",
"355 160 OFFCURVE",
"355 156 OFFCURVE",
"358 153 CURVE SMOOTH",
"360 151 OFFCURVE",
"359 130 OFFCURVE",
"356 91 CURVE SMOOTH",
"353 54 OFFCURVE",
"352 35 OFFCURVE",
"352 34 CURVE",
"353 32 OFFCURVE",
"353 27 OFFCURVE",
"353 18 CURVE",
"355 15 OFFCURVE",
"356 12 OFFCURVE",
"355 8 CURVE SMOOTH",
"354 4 OFFCURVE",
"370 -3 OFFCURVE",
"402 -14 CURVE",
"421 1 OFFCURVE",
"430 12 OFFCURVE",
"431 18 CURVE SMOOTH",
"432 23 OFFCURVE",
"433 31 OFFCURVE",
"435 41 CURVE",
"435 42 OFFCURVE",
"434 51 OFFCURVE",
"433 69 CURVE",
"431 88 OFFCURVE",
"433 106 OFFCURVE",
"440 125 CURVE",
"443 132 OFFCURVE",
"446 137 OFFCURVE",
"449 142 CURVE",
"452 146 OFFCURVE",
"460 166 OFFCURVE",
"472 201 CURVE",
"472 201 OFFCURVE",
"509 258 OFFCURVE",
"508 271 CURVE SMOOTH",
"507 284 OFFCURVE",
"510 294 OFFCURVE",
"517 301 CURVE SMOOTH",
"532 316 OFFCURVE",
"554 337 OFFCURVE",
"550 341 CURVE SMOOTH",
"548 343 OFFCURVE",
"549 346 OFFCURVE",
"552 350 CURVE",
"565 363 OFFCURVE",
"575 371 OFFCURVE",
"584 376 CURVE",
"593 380 OFFCURVE",
"602 385 OFFCURVE",
"611 390 CURVE",
"610 386 OFFCURVE",
"613 366 OFFCURVE",
"620 362 CURVE",
"623 360 OFFCURVE",
"626 352 OFFCURVE",
"627 337 CURVE",
"631 308 OFFCURVE",
"627 260 OFFCURVE",
"626 259 CURVE",
"626 259 OFFCURVE",
"625 254 OFFCURVE",
"623 243 CURVE",
"622 236 OFFCURVE",
"617 206 OFFCURVE",
"617 206 CURVE",
"617 202 OFFCURVE",
"618 200 OFFCURVE",
"619 199 CURVE",
"620 199 OFFCURVE",
"620 195 OFFCURVE",
"617 187 CURVE",
"609 163 OFFCURVE",
"606 161 OFFCURVE",
"610 116 CURVE",
"611 109 OFFCURVE",
"609 100 OFFCURVE",
"604 91 CURVE SMOOTH",
"599 82 OFFCURVE",
"596 60 OFFCURVE",
"596 26 CURVE SMOOTH",
"596 1 OFFCURVE",
"598 -14 OFFCURVE",
"602 -18 CURVE",
"609 -26 OFFCURVE",
"626 -49 OFFCURVE",
"635 -49 CURVE SMOOTH",
"637 -49 OFFCURVE",
"639 -48 OFFCURVE",
"640 -46 CURVE",
"645 -40 OFFCURVE",
"647 -37 OFFCURVE",
"647 -37 CURVE",
"650 -33 OFFCURVE",
"654 -30 OFFCURVE",
"660 -28 CURVE SMOOTH",
"666 -26 OFFCURVE",
"665 -11 OFFCURVE",
"657 16 CURVE",
"656 24 OFFCURVE",
"668 71 OFFCURVE",
"671 72 CURVE",
"671 75 OFFCURVE",
"673 82 OFFCURVE",
"676 95 CURVE",
"680 108 OFFCURVE",
"683 120 OFFCURVE",
"684 132 CURVE SMOOTH",
"686 153 OFFCURVE",
"689 166 OFFCURVE",
"693 172 CURVE",
"697 179 OFFCURVE",
"695 194 OFFCURVE",
"687 217 CURVE",
"686 221 OFFCURVE",
"688 224 OFFCURVE",
"694 225 CURVE SMOOTH",
"700 226 OFFCURVE",
"701 236 OFFCURVE",
"698 256 CURVE",
"697 259 OFFCURVE",
"698 264 OFFCURVE",
"701 270 CURVE",
"703 275 OFFCURVE",
"704 288 OFFCURVE",
"704 307 CURVE SMOOTH",
"704 310 OFFCURVE",
"704 314 OFFCURVE",
"704 318 CURVE SMOOTH",
"704 338 OFFCURVE",
"688 371 OFFCURVE",
"687 374 CURVE",
"687 374 OFFCURVE",
"688 381 OFFCURVE",
"691 395 CURVE",
"693 409 OFFCURVE",
"684 426 OFFCURVE",
"664 447 CURVE SMOOTH",
"659 452 OFFCURVE",
"656 458 OFFCURVE",
"653 466 CURVE",
"650 473 OFFCURVE",
"631 475 OFFCURVE",
"598 470 CURVE",
"582 447 OFFCURVE",
"571 439 OFFCURVE",
"559 432 CURVE",
"559 432 OFFCURVE",
"552 425 OFFCURVE",
"539 411 CURVE SMOOTH",
"511 382 OFFCURVE",
"472 329 OFFCURVE",
"472 328 CURVE SMOOTH",
"472 327 OFFCURVE",
"471 325 OFFCURVE",
"469 321 CURVE SMOOTH",
"454 293 OFFCURVE",
"447 279 OFFCURVE",
"446 278 CURVE SMOOTH",
"445 277 OFFCURVE",
"437 272 OFFCURVE",
"434 280 CURVE",
"433 288 OFFCURVE",
"419 361 OFFCURVE",
"402 388 CURVE",
"385 413 OFFCURVE",
"366 430 OFFCURVE",
"347 426 CURVE",
"338 423 OFFCURVE",
"328 421 OFFCURVE",
"316 419 CURVE",
"304 400 OFFCURVE",
"296 390 OFFCURVE",
"293 391 CURVE SMOOTH",
"290 392 OFFCURVE",
"288 387 OFFCURVE",
"286 374 CURVE",
"286 374 OFFCURVE",
"281 367 OFFCURVE",
"270 354 CURVE SMOOTH",
"259 341 OFFCURVE",
"252 333 OFFCURVE",
"248 330 CURVE",
"237 325 OFFCURVE",
"210 283 OFFCURVE",
"210 282 CURVE",
"210 282 OFFCURVE",
"205 274 OFFCURVE",
"194 257 CURVE SMOOTH",
"174 224 OFFCURVE",
"159 261 OFFCURVE",
"162 274 CURVE",
"163 281 OFFCURVE",
"161 290 OFFCURVE",
"155 303 CURVE",
"154 306 OFFCURVE",
"154 310 OFFCURVE",
"156 315 CURVE",
"158 319 OFFCURVE",
"153 342 OFFCURVE",
"141 385 CURVE",
"139 391 OFFCURVE",
"136 396 OFFCURVE",
"131 400 CURVE",
"126 403 OFFCURVE",
"130 410 OFFCURVE",
"142 419 CURVE",
"137 430 OFFCURVE",
"134 442 OFFCURVE",
"132 455 CURVE SMOOTH",
"128 480 OFFCURVE",
"126 505 OFFCURVE",
"107 512 CURVE SMOOTH",
"97 516 OFFCURVE",
"92 518 OFFCURVE",
"92 518 CURVE"
);
}
);
width = 574;
}
);
note = m;
unicode = 006D;
},
{
glyphname = n;
lastChange = "2017-11-27 10:26:32 +0000";
layers = (
{
layerId = "7E101512-652C-46F2-AEC5-615E4561C90F";
paths = (
{
closed = 1;
nodes = (
"465 409 OFFCURVE",
"454 419 OFFCURVE",
"447 419 CURVE SMOOTH",
"447 419 OFFCURVE",
"447 419 OFFCURVE",
"446 418 CURVE",
"433 417 OFFCURVE",
"431 417 OFFCURVE",
"415 405 CURVE SMOOTH",
"398 393 OFFCURVE",
"357 341 OFFCURVE",
"354 330 CURVE SMOOTH",
"351 318 OFFCURVE",
"346 305 OFFCURVE",
"341 305 CURVE SMOOTH",
"338 305 OFFCURVE",
"333 299 OFFCURVE",
"324 286 CURVE SMOOTH",
"322 283 OFFCURVE",
"315 275 OFFCURVE",
"303 263 CURVE",
"292 250 OFFCURVE",
"285 239 OFFCURVE",
"284 228 CURVE",
"284 223 OFFCURVE",
"281 219 OFFCURVE",
"274 217 CURVE",
"267 216 OFFCURVE",
"257 203 OFFCURVE",
"246 180 CURVE",
"241 181 OFFCURVE",
"239 183 OFFCURVE",
"240 186 CURVE SMOOTH",
"241 189 OFFCURVE",
"240 197 OFFCURVE",
"239 208 CURVE",
"237 223 OFFCURVE",
"238 230 OFFCURVE",
"242 231 CURVE",
"247 231 OFFCURVE",
"247 244 OFFCURVE",
"242 269 CURVE SMOOTH",
"241 275 OFFCURVE",
"239 284 OFFCURVE",
"237 296 CURVE",
"232 320 OFFCURVE",
"193 314 OFFCURVE",
"182 302 CURVE",
"170 290 OFFCURVE",
"158 276 OFFCURVE",
"121 272 CURVE SMOOTH",
"102 270 OFFCURVE",
"87 267 OFFCURVE",
"74 263 CURVE",
"66 261 OFFCURVE",
"61 261 OFFCURVE",
"58 263 CURVE",
"55 266 OFFCURVE",
"37 264 OFFCURVE",
"4 257 CURVE",
"4 232 OFFCURVE",
"4 218 OFFCURVE",
"4 215 CURVE SMOOTH",
"4 212 OFFCURVE",
"4 211 OFFCURVE",
"4 210 CURVE",
"25 207 OFFCURVE",
"37 206 OFFCURVE",
"40 208 CURVE",
"43 209 OFFCURVE",
"52 210 OFFCURVE",
"66 209 CURVE SMOOTH",
"81 208 OFFCURVE",
"96 209 OFFCURVE",
"113 212 CURVE SMOOTH",
"146 219 OFFCURVE",
"161 209 OFFCURVE",
"160 197 CURVE",
"159 192 OFFCURVE",
"158 188 OFFCURVE",
"157 186 CURVE",
"156 185 OFFCURVE",
"157 184 OFFCURVE",
"160 181 CURVE SMOOTH",
"163 178 OFFCURVE",
"159 164 OFFCURVE",
"149 139 CURVE SMOOTH",
"136 107 OFFCURVE",
"121 30 OFFCURVE",
"122 21 CURVE SMOOTH",
"124 4 OFFCURVE",
"124 -10 OFFCURVE",
"122 -22 CURVE",
"119 -35 OFFCURVE",
"126 -44 OFFCURVE",
"142 -50 CURVE SMOOTH",
"147 -52 OFFCURVE",
"152 -53 OFFCURVE",
"157 -53 CURVE SMOOTH",
"162 -53 OFFCURVE",
"166 -52 OFFCURVE",
"169 -50 CURVE",
"181 -41 OFFCURVE",
"200 -5 OFFCURVE",
"203 0 CURVE",
"204 2 OFFCURVE",
"205 3 OFFCURVE",
"206 4 CURVE",
"215 20 OFFCURVE",
"221 33 OFFCURVE",
"223 42 CURVE",
"226 51 OFFCURVE",
"231 58 OFFCURVE",
"238 64 CURVE",
"252 75 OFFCURVE",
"259 81 OFFCURVE",
"259 82 CURVE SMOOTH",
"259 83 OFFCURVE",
"260 87 OFFCURVE",
"261 92 CURVE",
"262 95 OFFCURVE",
"267 101 OFFCURVE",
"275 110 CURVE",
"283 118 OFFCURVE",
"290 127 OFFCURVE",
"295 137 CURVE SMOOTH",
"303 152 OFFCURVE",
"308 160 OFFCURVE",
"310 160 CURVE",
"312 161 OFFCURVE",
"313 161 OFFCURVE",
"313 162 CURVE SMOOTH",
"313 173 OFFCURVE",
"315 180 OFFCURVE",
"319 184 CURVE SMOOTH",
"322 187 OFFCURVE",
"323 191 OFFCURVE",
"322 196 CURVE",
"321 204 OFFCURVE",
"353 239 OFFCURVE",
"374 240 CURVE",
"377 240 OFFCURVE",
"384 244 OFFCURVE",
"394 253 CURVE",
"413 272 OFFCURVE",
"419 270 OFFCURVE",
"416 255 CURVE",
"415 248 OFFCURVE",
"414 244 OFFCURVE",
"414 242 CURVE",
"415 219 OFFCURVE",
"415 208 OFFCURVE",
"414 208 CURVE SMOOTH",
"414 208 OFFCURVE",
"414 206 OFFCURVE",
"413 203 CURVE",
"406 173 OFFCURVE",
"404 157 OFFCURVE",
"405 154 CURVE",
"408 147 OFFCURVE",
"405 136 OFFCURVE",
"401 125 CURVE",
"400 119 OFFCURVE",
"400 114 OFFCURVE",
"403 109 CURVE SMOOTH",
"407 102 OFFCURVE",
"406 95 OFFCURVE",
"400 88 CURVE SMOOTH",
"388 73 OFFCURVE",
"395 35 OFFCURVE",
"400 23 CURVE SMOOTH",
"403 16 OFFCURVE",
"406 11 OFFCURVE",
"410 8 CURVE",
"449 -15 OFFCURVE",
"449 9 OFFCURVE",
"453 21 CURVE",
"458 34 OFFCURVE",
"463 45 OFFCURVE",
"469 54 CURVE",
"475 62 OFFCURVE",
"477 88 OFFCURVE",
"475 133 CURVE",
"475 133 OFFCURVE",
"476 142 OFFCURVE",
"479 160 CURVE SMOOTH",
"486 196 OFFCURVE",
"489 216 OFFCURVE",
"488 231 CURVE",
"487 238 OFFCURVE",
"487 247 OFFCURVE",
"487 256 CURVE",
"488 273 OFFCURVE",
"487 282 OFFCURVE",
"485 283 CURVE",
"483 283 OFFCURVE",
"485 295 OFFCURVE",
"490 319 CURVE SMOOTH",
"491 324 OFFCURVE",
"492 328 OFFCURVE",
"492 332 CURVE SMOOTH",
"492 342 OFFCURVE",
"489 352 OFFCURVE",
"484 362 CURVE SMOOTH",
"476 377 OFFCURVE",
"474 385 OFFCURVE",
"479 388 CURVE"
);
}
);
width = 574;
}
);
note = n;
unicode = 006E;
},
{
glyphname = o;
lastChange = "2017-11-27 10:26:32 +0000";
layers = (
{
layerId = "7E101512-652C-46F2-AEC5-615E4561C90F";
paths = (
{
closed = 1;
nodes = (
"299 353 OFFCURVE",
"286 361 OFFCURVE",
"261 377 CURVE",
"254 382 OFFCURVE",
"247 384 OFFCURVE",
"242 384 CURVE",
"228 385 OFFCURVE",
"219 371 OFFCURVE",
"214 344 CURVE",
"194 333 OFFCURVE",
"180 325 OFFCURVE",
"173 322 CURVE SMOOTH",
"166 319 OFFCURVE",
"163 317 OFFCURVE",
"162 317 CURVE",
"152 312 OFFCURVE",
"148 309 OFFCURVE",
"151 306 CURVE SMOOTH",
"154 303 OFFCURVE",
"155 301 OFFCURVE",
"155 301 CURVE",
"134 298 OFFCURVE",
"123 293 OFFCURVE",
"122 288 CURVE",
"120 283 OFFCURVE",
"119 281 OFFCURVE",
"119 280 CURVE",
"114 275 OFFCURVE",
"110 269 OFFCURVE",
"105 264 CURVE SMOOTH",
"100 259 OFFCURVE",
"98 252 OFFCURVE",
"99 245 CURVE",
"83 230 OFFCURVE",
"76 221 OFFCURVE",
"78 219 CURVE SMOOTH",
"80 217 OFFCURVE",
"79 214 OFFCURVE",
"76 211 CURVE",
"71 204 OFFCURVE",
"68 197 OFFCURVE",
"69 189 CURVE",
"69 180 OFFCURVE",
"67 170 OFFCURVE",
"63 159 CURVE SMOOTH",
"60 150 OFFCURVE",
"59 143 OFFCURVE",
"59 137 CURVE SMOOTH",
"59 134 OFFCURVE",
"59 132 OFFCURVE",
"60 130 CURVE",
"64 118 OFFCURVE",
"67 96 OFFCURVE",
"66 87 CURVE",
"65 82 OFFCURVE",
"70 72 OFFCURVE",
"79 59 CURVE",
"104 19 OFFCURVE",
"153 0 OFFCURVE",
"168 0 CURVE SMOOTH",
"191 0 OFFCURVE",
"203 0 OFFCURVE",
"206 -1 CURVE",
"209 -1 OFFCURVE",
"214 -2 OFFCURVE",
"222 -3 CURVE",
"234 -3 OFFCURVE",
"278 10 OFFCURVE",
"301 23 CURVE",
"309 28 OFFCURVE",
"315 34 OFFCURVE",
"320 39 CURVE",
"325 45 OFFCURVE",
"336 56 OFFCURVE",
"353 71 CURVE SMOOTH",
"364 81 OFFCURVE",
"370 90 OFFCURVE",
"371 99 CURVE",
"374 116 OFFCURVE",
"375 156 OFFCURVE",
"374 163 CURVE",
"373 166 OFFCURVE",
"371 175 OFFCURVE",
"368 191 CURVE",
"368 192 OFFCURVE",
"368 195 OFFCURVE",
"367 200 CURVE",
"366 212 OFFCURVE",
"355 258 OFFCURVE",
"351 267 CURVE",
"349 271 OFFCURVE",
"346 275 OFFCURVE",
"342 278 CURVE",
"358 281 OFFCURVE",
"373 280 OFFCURVE",
"387 273 CURVE SMOOTH",
"402 266 OFFCURVE",
"409 262 OFFCURVE",
"409 262 CURVE",
"406 269 OFFCURVE",
"412 271 OFFCURVE",
"427 268 CURVE SMOOTH",
"441 265 OFFCURVE",
"452 264 OFFCURVE",
"459 265 CURVE SMOOTH",
"467 266 OFFCURVE",
"506 270 OFFCURVE",
"521 266 CURVE",
"521 299 OFFCURVE",
"521 317 OFFCURVE",
"521 318 CURVE SMOOTH",
"521 320 OFFCURVE",
"521 321 OFFCURVE",
"521 321 CURVE",
"500 324 OFFCURVE",
"488 325 OFFCURVE",
"485 323 CURVE SMOOTH",
"482 321 OFFCURVE",
"480 320 OFFCURVE",
"479 319 CURVE SMOOTH",
"478 318 OFFCURVE",
"474 318 OFFCURVE",
"468 318 CURVE SMOOTH",
"462 318 OFFCURVE",
"446 320 OFFCURVE",
"419 325 CURVE SMOOTH",
"413 326 OFFCURVE",
"408 328 OFFCURVE",
"404 329 CURVE",
"401 330 OFFCURVE",
"385 331 OFFCURVE",
"357 331 CURVE SMOOTH",
"336 331 OFFCURVE",
"324 334 OFFCURVE",
"319 340 CURVE",
"315 346 OFFCURVE",
"309 350 OFFCURVE",
"301 352 CURVE"
);
},
{
closed = 1;
nodes = (
"200 280 OFFCURVE",
"201 280 OFFCURVE",
"202 280 CURVE SMOOTH",
"209 280 OFFCURVE",
"213 279 OFFCURVE",
"216 276 CURVE SMOOTH",
"219 273 OFFCURVE",
"231 269 OFFCURVE",
"254 266 CURVE",
"259 265 OFFCURVE",
"265 265 OFFCURVE",
"273 264 CURVE SMOOTH",
"281 263 OFFCURVE",
"287 252 OFFCURVE",
"292 231 CURVE SMOOTH",
"298 209 OFFCURVE",
"303 186 OFFCURVE",
"308 163 CURVE SMOOTH",
"311 150 OFFCURVE",
"313 139 OFFCURVE",
"313 130 CURVE SMOOTH",
"313 117 OFFCURVE",
"312 116 OFFCURVE",
"297 88 CURVE SMOOTH",
"290 74 OFFCURVE",
"271 64 OFFCURVE",
"238 57 CURVE SMOOTH",
"227 55 OFFCURVE",
"218 54 OFFCURVE",
"209 54 CURVE SMOOTH",
"172 54 OFFCURVE",
"134 88 OFFCURVE",
"134 92 CURVE",
"132 104 OFFCURVE",
"129 115 OFFCURVE",
"125 124 CURVE",
"122 130 OFFCURVE",
"121 135 OFFCURVE",
"121 138 CURVE SMOOTH",
"121 139 OFFCURVE",
"121 141 OFFCURVE",
"122 142 CURVE",
"130 153 OFFCURVE",
"132 162 OFFCURVE",
"129 167 CURVE SMOOTH",
"126 172 OFFCURVE",
"128 182 OFFCURVE",
"134 195 CURVE SMOOTH",
"142 214 OFFCURVE",
"146 223 OFFCURVE",
"146 224 CURVE",
"145 225 OFFCURVE",
"178 265 OFFCURVE",
"185 262 CURVE",
"188 260 OFFCURVE",
"193 266 OFFCURVE",
"199 280 CURVE"
);
}
);
width = 574;
}
);
note = o;
unicode = 006F;
},
{
glyphname = p;
lastChange = "2017-11-27 10:26:32 +0000";
layers = (
{
layerId = "7E101512-652C-46F2-AEC5-615E4561C90F";
paths = (
{
closed = 1;
nodes = (
"252 432 OFFCURVE",
"237 451 OFFCURVE",
"226 451 CURVE SMOOTH",
"217 451 OFFCURVE",
"206 446 OFFCURVE",
"191 435 CURVE",
"186 431 OFFCURVE",
"163 366 OFFCURVE",
"158 347 CURVE",
"151 325 OFFCURVE",
"146 313 OFFCURVE",
"144 312 CURVE",
"143 310 OFFCURVE",
"140 305 OFFCURVE",
"135 298 CURVE",
"123 279 OFFCURVE",
"116 271 OFFCURVE",
"114 272 CURVE",
"111 273 OFFCURVE",
"107 270 OFFCURVE",
"101 264 CURVE",
"97 259 OFFCURVE",
"90 253 OFFCURVE",
"79 244 CURVE SMOOTH",
"68 235 OFFCURVE",
"63 230 OFFCURVE",
"63 230 CURVE",
"38 216 OFFCURVE",
"25 208 OFFCURVE",
"22 206 CURVE SMOOTH",
"19 204 OFFCURVE",
"18 203 OFFCURVE",
"18 203 CURVE SMOOTH",
"17 203 OFFCURVE",
"10 200 OFFCURVE",
"-4 195 CURVE SMOOTH",
"-19 190 OFFCURVE",
"-37 183 OFFCURVE",
"-60 173 CURVE SMOOTH",
"-92 158 OFFCURVE",
"-109 152 OFFCURVE",
"-111 153 CURVE SMOOTH",
"-113 154 OFFCURVE",
"-114 154 OFFCURVE",
"-115 154 CURVE",
"-110 137 OFFCURVE",
"-109 127 OFFCURVE",
"-112 124 CURVE",
"-114 121 OFFCURVE",
"-112 117 OFFCURVE",
"-105 114 CURVE",
"-71 119 OFFCURVE",
"-54 122 OFFCURVE",
"-54 123 CURVE",
"-53 124 OFFCURVE",
"-48 125 OFFCURVE",
"-38 124 CURVE",
"-15 123 OFFCURVE",
"4 129 OFFCURVE",
"21 141 CURVE SMOOTH",
"37 152 OFFCURVE",
"50 159 OFFCURVE",
"59 162 CURVE",
"60 163 OFFCURVE",
"69 167 OFFCURVE",
"88 175 CURVE",
"107 184 OFFCURVE",
"118 189 OFFCURVE",
"121 191 CURVE",
"122 173 OFFCURVE",
"123 164 OFFCURVE",
"124 164 CURVE",
"124 163 OFFCURVE",
"123 158 OFFCURVE",
"120 149 CURVE SMOOTH",
"117 140 OFFCURVE",
"116 133 OFFCURVE",
"117 130 CURVE SMOOTH",
"118 127 OFFCURVE",
"116 105 OFFCURVE",
"112 65 CURVE SMOOTH",
"111 53 OFFCURVE",
"111 47 OFFCURVE",
"113 46 CURVE",
"114 45 OFFCURVE",
"117 16 OFFCURVE",
"121 -41 CURVE SMOOTH",
"122 -66 OFFCURVE",
"123 -81 OFFCURVE",
"124 -87 CURVE SMOOTH",
"125 -93 OFFCURVE",
"125 -105 OFFCURVE",
"126 -123 CURVE SMOOTH",
"128 -153 OFFCURVE",
"130 -172 OFFCURVE",
"133 -181 CURVE",
"138 -200 OFFCURVE",
"138 -190 OFFCURVE",
"139 -233 CURVE SMOOTH",
"140 -255 OFFCURVE",
"140 -268 OFFCURVE",
"139 -271 CURVE",
"138 -281 OFFCURVE",
"138 -291 OFFCURVE",
"139 -301 CURVE SMOOTH",
"140 -310 OFFCURVE",
"136 -324 OFFCURVE",
"127 -342 CURVE SMOOTH",
"112 -370 OFFCURVE",
"138 -392 OFFCURVE",
"178 -392 CURVE SMOOTH",
"181 -392 OFFCURVE",
"185 -392 OFFCURVE",
"189 -391 CURVE",
"192 -376 OFFCURVE",
"194 -366 OFFCURVE",
"196 -361 CURVE",
"199 -356 OFFCURVE",
"200 -351 OFFCURVE",
"201 -345 CURVE SMOOTH",
"203 -330 OFFCURVE",
"205 -317 OFFCURVE",
"208 -304 CURVE SMOOTH",
"211 -291 OFFCURVE",
"212 -267 OFFCURVE",
"211 -230 CURVE",
"210 -225 OFFCURVE",
"209 -222 OFFCURVE",
"208 -220 CURVE",
"206 -219 OFFCURVE",
"205 -192 OFFCURVE",
"205 -141 CURVE SMOOTH",
"205 -126 OFFCURVE",
"204 -117 OFFCURVE",
"202 -112 CURVE SMOOTH",
"200 -107 OFFCURVE",
"199 -96 OFFCURVE",
"199 -79 CURVE SMOOTH",
"199 -52 OFFCURVE",
"197 -35 OFFCURVE",
"194 -27 CURVE",
"190 -19 OFFCURVE",
"189 4 OFFCURVE",
"190 43 CURVE SMOOTH",
"191 70 OFFCURVE",
"190 84 OFFCURVE",
"187 87 CURVE SMOOTH",
"184 90 OFFCURVE",
"185 112 OFFCURVE",
"191 153 CURVE SMOOTH",
"192 161 OFFCURVE",
"198 250 OFFCURVE",
"197 251 CURVE",
"193 271 OFFCURVE",
"232 263 OFFCURVE",
"241 262 CURVE SMOOTH",
"280 259 OFFCURVE",
"299 258 OFFCURVE",
"299 258 CURVE SMOOTH",
"299 258 OFFCURVE",
"300 258 OFFCURVE",
"303 257 CURVE",
"329 256 OFFCURVE",
"343 256 OFFCURVE",
"344 257 CURVE SMOOTH",
"345 258 OFFCURVE",
"350 260 OFFCURVE",
"359 262 CURVE",
"382 268 OFFCURVE",
"394 272 OFFCURVE",
"393 274 CURVE",
"392 278 OFFCURVE",
"408 290 OFFCURVE",
"428 287 CURVE",
"439 286 OFFCURVE",
"453 287 OFFCURVE",
"470 290 CURVE",
"496 296 OFFCURVE",
"507 292 OFFCURVE",
"503 278 CURVE SMOOTH",
"499 264 OFFCURVE",
"497 254 OFFCURVE",
"496 249 CURVE",
"496 248 OFFCURVE",
"489 235 OFFCURVE",
"475 208 CURVE SMOOTH",
"462 181 OFFCURVE",
"454 165 OFFCURVE",
"452 160 CURVE",
"439 122 OFFCURVE",
"432 103 OFFCURVE",
"431 103 CURVE",
"429 104 OFFCURVE",
"427 98 OFFCURVE",
"425 85 CURVE SMOOTH",
"422 66 OFFCURVE",
"419 52 OFFCURVE",
"417 42 CURVE",
"414 22 OFFCURVE",
"428 9 OFFCURVE",
"461 -3 CURVE SMOOTH",
"494 -15 OFFCURVE",
"537 -13 OFFCURVE",
"545 0 CURVE",
"550 6 OFFCURVE",
"564 12 OFFCURVE",
"587 18 CURVE",
"590 19 OFFCURVE",
"594 18 OFFCURVE",
"598 17 CURVE",
"602 15 OFFCURVE",
"612 26 OFFCURVE",
"627 50 CURVE",
"628 52 OFFCURVE",
"630 55 OFFCURVE",
"633 59 CURVE SMOOTH",
"636 63 OFFCURVE",
"638 92 OFFCURVE",
"638 145 CURVE",
"630 140 OFFCURVE",
"626 138 OFFCURVE",
"626 137 CURVE",
"625 137 OFFCURVE",
"622 134 OFFCURVE",
"616 129 CURVE",
"596 111 OFFCURVE",
"585 102 OFFCURVE",
"582 102 CURVE SMOOTH",
"579 102 OFFCURVE",
"570 95 OFFCURVE",
"554 82 CURVE SMOOTH",
"541 71 OFFCURVE",
"529 66 OFFCURVE",
"517 65 CURVE",
"493 62 OFFCURVE",
"497 72 OFFCURVE",
"501 79 CURVE",
"503 83 OFFCURVE",
"506 93 OFFCURVE",
"511 110 CURVE",
"517 136 OFFCURVE",
"521 150 OFFCURVE",
"523 151 CURVE",
"527 154 OFFCURVE",
"537 157 OFFCURVE",
"541 173 CURVE",
"542 180 OFFCURVE",
"546 189 OFFCURVE",
"552 200 CURVE",
"569 227 OFFCURVE",
"576 246 OFFCURVE",
"575 259 CURVE",
"572 284 OFFCURVE",
"569 305 OFFCURVE",
"577 309 CURVE",
"580 311 OFFCURVE",
"577 318 OFFCURVE",
"566 331 CURVE SMOOTH",
"554 346 OFFCURVE",
"539 353 OFFCURVE",
"520 352 CURVE SMOOTH",
"501 351 OFFCURVE",
"480 353 OFFCURVE",
"457 358 CURVE",
"456 358 OFFCURVE",
"449 356 OFFCURVE",
"435 352 CURVE SMOOTH",
"407 344 OFFCURVE",
"335 345 OFFCURVE",
"327 345 CURVE SMOOTH",
"323 345 OFFCURVE",
"318 345 OFFCURVE",
"312 345 CURVE",
"281 347 OFFCURVE",
"264 347 OFFCURVE",
"263 344 CURVE",
"261 341 OFFCURVE",
"250 332 OFFCURVE",
"229 317 CURVE",
"229 320 OFFCURVE",
"239 376 OFFCURVE",
"242 383 CURVE SMOOTH",
"249 399 OFFCURVE",
"252 409 OFFCURVE",
"251 413 CURVE",
"250 418 OFFCURVE",
"250 424 OFFCURVE",
"252 431 CURVE"
);
}
);
width = 574;
}
);
note = p;
unicode = 0070;
},
{
glyphname = q;
lastChange = "2017-11-27 10:26:32 +0000";
layers = (
{
layerId = "7E101512-652C-46F2-AEC5-615E4561C90F";
paths = (
{
closed = 1;
nodes = (
"218 371 OFFCURVE",
"197 381 OFFCURVE",
"175 381 CURVE SMOOTH",
"170 381 OFFCURVE",
"166 381 OFFCURVE",
"163 381 CURVE SMOOTH",
"148 381 OFFCURVE",
"139 381 OFFCURVE",
"136 380 CURVE",
"125 377 OFFCURVE",
"117 374 OFFCURVE",
"106 370 CURVE",
"97 366 OFFCURVE",
"82 354 OFFCURVE",
"63 333 CURVE SMOOTH",
"44 313 OFFCURVE",
"35 303 OFFCURVE",
"34 303 CURVE",
"28 296 OFFCURVE",
"22 284 OFFCURVE",
"17 267 CURVE SMOOTH",
"6 232 OFFCURVE",
"1 189 OFFCURVE",
"1 162 CURVE SMOOTH",
"1 137 OFFCURVE",
"11 108 OFFCURVE",
"11 108 CURVE",
"16 89 OFFCURVE",
"23 76 OFFCURVE",
"30 69 CURVE SMOOTH",
"37 62 OFFCURVE",
"43 55 OFFCURVE",
"48 48 CURVE",
"53 40 OFFCURVE",
"68 33 OFFCURVE",
"94 27 CURVE",
"120 20 OFFCURVE",
"138 14 OFFCURVE",
"149 8 CURVE",
"162 13 OFFCURVE",
"167 18 OFFCURVE",
"164 23 CURVE",
"161 27 OFFCURVE",
"164 30 OFFCURVE",
"171 33 CURVE",
"186 18 OFFCURVE",
"194 11 OFFCURVE",
"195 11 CURVE",
"195 11 OFFCURVE",
"198 9 OFFCURVE",
"205 6 CURVE",
"205 -27 OFFCURVE",
"204 -44 OFFCURVE",
"201 -45 CURVE SMOOTH",
"198 -46 OFFCURVE",
"196 -55 OFFCURVE",
"195 -72 CURVE SMOOTH",
"194 -86 OFFCURVE",
"192 -106 OFFCURVE",
"190 -133 CURVE SMOOTH",
"188 -159 OFFCURVE",
"187 -174 OFFCURVE",
"186 -179 CURVE",
"186 -179 OFFCURVE",
"173 -319 OFFCURVE",
"172 -340 CURVE",
"172 -356 OFFCURVE",
"168 -432 OFFCURVE",
"159 -448 CURVE",
"158 -450 OFFCURVE",
"157 -460 OFFCURVE",
"156 -477 CURVE SMOOTH",
"155 -494 OFFCURVE",
"149 -518 OFFCURVE",
"139 -550 CURVE",
"139 -550 OFFCURVE",
"137 -560 OFFCURVE",
"134 -579 CURVE SMOOTH",
"131 -599 OFFCURVE",
"127 -615 OFFCURVE",
"124 -628 CURVE SMOOTH",
"119 -652 OFFCURVE",
"117 -665 OFFCURVE",
"118 -668 CURVE SMOOTH",
"119 -671 OFFCURVE",
"120 -673 OFFCURVE",
"120 -673 CURVE",
"113 -690 OFFCURVE",
"109 -699 OFFCURVE",
"108 -700 CURVE SMOOTH",
"107 -701 OFFCURVE",
"105 -708 OFFCURVE",
"101 -721 CURVE SMOOTH",
"86 -769 OFFCURVE",
"95 -815 OFFCURVE",
"112 -836 CURVE",
"121 -824 OFFCURVE",
"125 -818 OFFCURVE",
"125 -817 CURVE SMOOTH",
"125 -816 OFFCURVE",
"126 -809 OFFCURVE",
"127 -795 CURVE SMOOTH",
"130 -766 OFFCURVE",
"133 -749 OFFCURVE",
"137 -744 CURVE",
"145 -735 OFFCURVE",
"152 -728 OFFCURVE",
"149 -704 CURVE",
"148 -692 OFFCURVE",
"153 -678 OFFCURVE",
"166 -663 CURVE",
"169 -660 OFFCURVE",
"171 -656 OFFCURVE",
"170 -653 CURVE SMOOTH",
"169 -650 OFFCURVE",
"174 -634 OFFCURVE",
"184 -607 CURVE SMOOTH",
"189 -592 OFFCURVE",
"194 -579 OFFCURVE",
"197 -569 CURVE SMOOTH",
"200 -559 OFFCURVE",
"202 -552 OFFCURVE",
"204 -547 CURVE",
"209 -533 OFFCURVE",
"212 -517 OFFCURVE",
"211 -499 CURVE SMOOTH",
"210 -480 OFFCURVE",
"210 -471 OFFCURVE",
"210 -470 CURVE SMOOTH",
"210 -469 OFFCURVE",
"226 -385 OFFCURVE",
"231 -373 CURVE",
"234 -364 OFFCURVE",
"236 -347 OFFCURVE",
"235 -324 CURVE SMOOTH",
"234 -301 OFFCURVE",
"237 -281 OFFCURVE",
"242 -264 CURVE",
"246 -253 OFFCURVE",
"247 -246 OFFCURVE",
"244 -243 CURVE",
"241 -241 OFFCURVE",
"245 -211 OFFCURVE",
"254 -152 CURVE SMOOTH",
"260 -111 OFFCURVE",
"264 -85 OFFCURVE",
"265 -75 CURVE SMOOTH",
"266 -65 OFFCURVE",
"267 -56 OFFCURVE",
"268 -48 CURVE SMOOTH",
"272 -15 OFFCURVE",
"275 4 OFFCURVE",
"276 9 CURVE SMOOTH",
"277 14 OFFCURVE",
"279 28 OFFCURVE",
"281 51 CURVE",
"282 59 OFFCURVE",
"298 97 OFFCURVE",
"318 86 CURVE",
"321 65 OFFCURVE",
"323 54 OFFCURVE",
"323 53 CURVE",
"324 51 OFFCURVE",
"324 47 OFFCURVE",
"325 42 CURVE",
"326 33 OFFCURVE",
"334 25 OFFCURVE",
"347 17 CURVE",
"375 2 OFFCURVE",
"377 -1 OFFCURVE",
"412 -4 CURVE SMOOTH",
"429 -5 OFFCURVE",
"455 0 OFFCURVE",
"489 11 CURVE",
"492 28 OFFCURVE",
"494 37 OFFCURVE",
"494 37 CURVE",
"494 38 OFFCURVE",
"494 46 OFFCURVE",
"494 62 CURVE SMOOTH",
"494 77 OFFCURVE",
"494 85 OFFCURVE",
"494 86 CURVE",
"494 86 OFFCURVE",
"493 90 OFFCURVE",
"491 99 CURVE",
"464 80 OFFCURVE",
"450 70 OFFCURVE",
"449 69 CURVE SMOOTH",
"448 68 OFFCURVE",
"441 67 OFFCURVE",
"427 66 CURVE SMOOTH",
"388 63 OFFCURVE",
"397 62 OFFCURVE",
"369 86 CURVE",
"371 121 OFFCURVE",
"371 140 OFFCURVE",
"369 145 CURVE",
"366 150 OFFCURVE",
"364 154 OFFCURVE",
"363 158 CURVE",
"354 164 OFFCURVE",
"346 169 OFFCURVE",
"340 173 CURVE",
"333 177 OFFCURVE",
"333 188 OFFCURVE",
"339 206 CURVE SMOOTH",
"349 236 OFFCURVE",
"353 257 OFFCURVE",
"352 268 CURVE SMOOTH",
"351 279 OFFCURVE",
"350 288 OFFCURVE",
"350 294 CURVE",
"346 294 OFFCURVE",
"311 295 OFFCURVE",
"291 308 CURVE SMOOTH",
"256 331 OFFCURVE",
"255 334 OFFCURVE",
"238 351 CURVE SMOOTH"
);
},
{
closed = 1;
nodes = (
"123 280 OFFCURVE",
"130 281 OFFCURVE",
"138 281 CURVE SMOOTH",
"143 281 OFFCURVE",
"148 281 OFFCURVE",
"154 280 CURVE SMOOTH",
"169 277 OFFCURVE",
"180 274 OFFCURVE",
"185 271 CURVE",
"187 270 OFFCURVE",
"194 265 OFFCURVE",
"206 258 CURVE",
"212 255 OFFCURVE",
"215 249 OFFCURVE",
"215 242 CURVE SMOOTH",
"215 226 OFFCURVE",
"191 187 OFFCURVE",
"179 168 CURVE",
"172 159 OFFCURVE",
"172 142 OFFCURVE",
"179 115 CURVE",
"183 115 OFFCURVE",
"190 116 OFFCURVE",
"200 117 CURVE SMOOTH",
"210 118 OFFCURVE",
"213 112 OFFCURVE",
"208 99 CURVE",
"199 98 OFFCURVE",
"180 92 OFFCURVE",
"151 82 CURVE SMOOTH",
"139 78 OFFCURVE",
"129 76 OFFCURVE",
"120 76 CURVE SMOOTH",
"109 76 OFFCURVE",
"101 80 OFFCURVE",
"97 88 CURVE SMOOTH",
"90 103 OFFCURVE",
"83 117 OFFCURVE",
"75 130 CURVE SMOOTH",
"70 138 OFFCURVE",
"67 148 OFFCURVE",
"67 160 CURVE SMOOTH",
"67 167 OFFCURVE",
"68 174 OFFCURVE",
"69 182 CURVE",
"71 190 OFFCURVE",
"74 205 OFFCURVE",
"79 228 CURVE SMOOTH",
"84 251 OFFCURVE",
"97 268 OFFCURVE",
"118 278 CURVE"
);
}
);
width = 456;
}
);
note = q;
unicode = 0071;
},
{
glyphname = r;
lastChange = "2017-11-27 10:26:32 +0000";
layers = (
{
layerId = "7E101512-652C-46F2-AEC5-615E4561C90F";
paths = (
{
closed = 1;
nodes = (
"300 444 OFFCURVE",
"276 445 OFFCURVE",
"262 445 CURVE SMOOTH",
"257 445 OFFCURVE",
"254 445 OFFCURVE",
"252 444 CURVE",
"242 443 OFFCURVE",
"237 443 OFFCURVE",
"236 443 CURVE",
"232 442 OFFCURVE",
"229 441 OFFCURVE",
"226 441 CURVE SMOOTH",
"223 441 OFFCURVE",
"219 441 OFFCURVE",
"215 440 CURVE",
"192 438 OFFCURVE",
"179 437 OFFCURVE",
"176 438 CURVE",
"174 439 OFFCURVE",
"173 439 OFFCURVE",
"173 439 CURVE",
"158 440 OFFCURVE",
"146 440 OFFCURVE",
"138 437 CURVE SMOOTH",
"130 434 OFFCURVE",
"125 432 OFFCURVE",
"123 431 CURVE",
"115 429 OFFCURVE",
"108 419 OFFCURVE",
"103 402 CURVE SMOOTH",
"98 384 OFFCURVE",
"92 370 OFFCURVE",
"85 359 CURVE",
"90 337 OFFCURVE",
"95 324 OFFCURVE",
"99 321 CURVE SMOOTH",
"103 318 OFFCURVE",
"102 310 OFFCURVE",
"95 297 CURVE",
"103 294 OFFCURVE",
"109 290 OFFCURVE",
"112 286 CURVE SMOOTH",
"115 282 OFFCURVE",
"122 279 OFFCURVE",
"134 276 CURVE",
"139 275 OFFCURVE",
"143 274 OFFCURVE",
"144 274 CURVE SMOOTH",
"146 274 OFFCURVE",
"160 260 OFFCURVE",
"187 231 CURVE",
"184 234 OFFCURVE",
"179 230 OFFCURVE",
"173 217 CURVE SMOOTH",
"162 192 OFFCURVE",
"144 158 OFFCURVE",
"143 158 CURVE SMOOTH",
"142 158 OFFCURVE",
"139 156 OFFCURVE",
"133 152 CURVE",
"130 151 OFFCURVE",
"125 145 OFFCURVE",
"119 135 CURVE SMOOTH",
"114 126 OFFCURVE",
"99 110 OFFCURVE",
"75 87 CURVE",
"81 76 OFFCURVE",
"80 71 OFFCURVE",
"72 72 CURVE SMOOTH",
"64 73 OFFCURVE",
"55 69 OFFCURVE",
"44 58 CURVE SMOOTH",
"21 35 OFFCURVE",
"7 24 OFFCURVE",
"2 23 CURVE",
"-2 22 OFFCURVE",
"-4 21 OFFCURVE",
"-5 20 CURVE",
"-5 -5 OFFCURVE",
"-5 -22 OFFCURVE",
"-6 -31 CURVE",
"-6 -32 OFFCURVE",
"-6 -34 OFFCURVE",
"-6 -36 CURVE SMOOTH",
"-6 -44 OFFCURVE",
"-5 -55 OFFCURVE",
"-4 -68 CURVE",
"5 -56 OFFCURVE",
"12 -50 OFFCURVE",
"17 -51 CURVE SMOOTH",
"22 -52 OFFCURVE",
"30 -44 OFFCURVE",
"43 -27 CURVE SMOOTH",
"47 -22 OFFCURVE",
"51 -20 OFFCURVE",
"54 -22 CURVE",
"57 -25 OFFCURVE",
"64 -17 OFFCURVE",
"74 2 CURVE SMOOTH",
"80 13 OFFCURVE",
"88 19 OFFCURVE",
"97 21 CURVE SMOOTH",
"107 23 OFFCURVE",
"109 29 OFFCURVE",
"103 38 CURVE",
"114 43 OFFCURVE",
"120 46 OFFCURVE",
"120 46 CURVE SMOOTH",
"120 46 OFFCURVE",
"122 48 OFFCURVE",
"127 53 CURVE",
"127 53 OFFCURVE",
"132 59 OFFCURVE",
"143 72 CURVE SMOOTH",
"154 85 OFFCURVE",
"163 94 OFFCURVE",
"170 99 CURVE",
"175 104 OFFCURVE",
"177 108 OFFCURVE",
"174 110 CURVE",
"171 113 OFFCURVE",
"170 114 OFFCURVE",
"169 114 CURVE",
"171 119 OFFCURVE",
"177 128 OFFCURVE",
"187 140 CURVE SMOOTH",
"197 152 OFFCURVE",
"198 158 OFFCURVE",
"191 158 CURVE",
"196 166 OFFCURVE",
"203 175 OFFCURVE",
"210 185 CURVE",
"223 206 OFFCURVE",
"247 246 OFFCURVE",
"234 263 CURVE",
"228 272 OFFCURVE",
"221 282 OFFCURVE",
"214 293 CURVE",
"205 309 OFFCURVE",
"191 349 OFFCURVE",
"191 358 CURVE",
"196 375 OFFCURVE",
"203 384 OFFCURVE",
"210 384 CURVE SMOOTH",
"217 384 OFFCURVE",
"223 384 OFFCURVE",
"226 384 CURVE",
"234 383 OFFCURVE",
"244 382 OFFCURVE",
"255 379 CURVE SMOOTH",
"266 376 OFFCURVE",
"298 374 OFFCURVE",
"350 374 CURVE SMOOTH",
"373 374 OFFCURVE",
"376 375 OFFCURVE",
"377 351 CURVE",
"338 315 OFFCURVE",
"336 284 OFFCURVE",
"333 267 CURVE SMOOTH",
"331 256 OFFCURVE",
"328 250 OFFCURVE",
"325 249 CURVE",
"321 248 OFFCURVE",
"316 223 OFFCURVE",
"309 176 CURVE SMOOTH",
"307 163 OFFCURVE",
"307 153 OFFCURVE",
"310 145 CURVE",
"312 137 OFFCURVE",
"311 127 OFFCURVE",
"308 115 CURVE",
"307 113 OFFCURVE",
"309 110 OFFCURVE",
"313 106 CURVE SMOOTH",
"317 102 OFFCURVE",
"316 92 OFFCURVE",
"311 77 CURVE",
"324 64 OFFCURVE",
"331 56 OFFCURVE",
"332 53 CURVE SMOOTH",
"333 50 OFFCURVE",
"335 45 OFFCURVE",
"338 40 CURVE SMOOTH",
"347 26 OFFCURVE",
"353 19 OFFCURVE",
"356 18 CURVE SMOOTH",
"359 17 OFFCURVE",
"363 15 OFFCURVE",
"367 11 CURVE",
"386 -6 OFFCURVE",
"444 -18 OFFCURVE",
"449 -19 CURVE",
"452 -20 OFFCURVE",
"458 -21 OFFCURVE",
"465 -20 CURVE",
"480 -17 OFFCURVE",
"539 -9 OFFCURVE",
"562 7 CURVE SMOOTH",
"573 15 OFFCURVE",
"579 19 OFFCURVE",
"580 20 CURVE",
"597 31 OFFCURVE",
"611 43 OFFCURVE",
"620 56 CURVE SMOOTH",
"629 69 OFFCURVE",
"634 76 OFFCURVE",
"635 79 CURVE",
"643 96 OFFCURVE",
"649 106 OFFCURVE",
"654 107 CURVE",
"655 108 OFFCURVE",
"656 109 OFFCURVE",
"656 112 CURVE SMOOTH",
"656 115 OFFCURVE",
"654 121 OFFCURVE",
"650 128 CURVE",
"627 117 OFFCURVE",
"615 112 OFFCURVE",
"614 111 CURVE SMOOTH",
"613 110 OFFCURVE",
"610 110 OFFCURVE",
"605 109 CURVE",
"605 109 OFFCURVE",
"597 104 OFFCURVE",
"581 93 CURVE",
"565 83 OFFCURVE",
"533 70 OFFCURVE",
"485 53 CURVE",
"484 53 OFFCURVE",
"476 53 OFFCURVE",
"460 52 CURVE SMOOTH",
"429 51 OFFCURVE",
"399 65 OFFCURVE",
"398 74 CURVE",
"397 78 OFFCURVE",
"393 91 OFFCURVE",
"385 113 CURVE",
"384 114 OFFCURVE",
"384 124 OFFCURVE",
"383 142 CURVE",
"383 177 OFFCURVE",
"387 206 OFFCURVE",
"396 223 CURVE",
"400 232 OFFCURVE",
"402 238 OFFCURVE",
"402 243 CURVE",
"404 256 OFFCURVE",
"406 264 OFFCURVE",
"409 267 CURVE",
"416 275 OFFCURVE",
"430 306 OFFCURVE",
"435 333 CURVE",
"438 346 OFFCURVE",
"443 358 OFFCURVE",
"450 369 CURVE SMOOTH",
"454 375 OFFCURVE",
"455 383 OFFCURVE",
"454 393 CURVE",
"453 414 OFFCURVE",
"411 445 OFFCURVE",
"390 441 CURVE",
"379 440 OFFCURVE",
"360 440 OFFCURVE",
"333 441 CURVE"
);
}
);
width = 574;
}
);
note = r;
unicode = 0072;
},
{
glyphname = s;
lastChange = "2017-11-27 10:26:32 +0000";
layers = (
{
layerId = "7E101512-652C-46F2-AEC5-615E4561C90F";
paths = (
{
closed = 1;
nodes = (
"259 387 OFFCURVE",
"248 388 OFFCURVE",
"243 388 CURVE SMOOTH",
"240 388 OFFCURVE",
"238 388 OFFCURVE",
"238 387 CURVE",
"237 386 OFFCURVE",
"237 385 OFFCURVE",
"236 385 CURVE",
"223 380 OFFCURVE",
"186 365 OFFCURVE",
"197 328 CURVE",
"197 327 OFFCURVE",
"197 326 OFFCURVE",
"196 323 CURVE SMOOTH",
"195 320 OFFCURVE",
"198 312 OFFCURVE",
"206 297 CURVE",
"206 296 OFFCURVE",
"206 286 OFFCURVE",
"206 267 CURVE SMOOTH",
"206 248 OFFCURVE",
"203 234 OFFCURVE",
"197 227 CURVE",
"196 225 OFFCURVE",
"191 216 OFFCURVE",
"184 200 CURVE SMOOTH",
"177 184 OFFCURVE",
"170 169 OFFCURVE",
"163 156 CURVE",
"160 151 OFFCURVE",
"158 147 OFFCURVE",
"158 145 CURVE SMOOTH",
"158 143 OFFCURVE",
"157 137 OFFCURVE",
"155 127 CURVE",
"139 116 OFFCURVE",
"131 111 OFFCURVE",
"131 110 CURVE",
"131 110 OFFCURVE",
"128 108 OFFCURVE",
"122 103 CURVE",
"99 86 OFFCURVE",
"40 68 OFFCURVE",
"28 67 CURVE SMOOTH",
"13 66 OFFCURVE",
"4 61 OFFCURVE",
"3 53 CURVE SMOOTH",
"2 46 OFFCURVE",
"1 42 OFFCURVE",
"1 42 CURVE",
"1 38 OFFCURVE",
"1 34 OFFCURVE",
"1 31 CURVE SMOOTH",
"1 12 OFFCURVE",
"3 1 OFFCURVE",
"6 0 CURVE",
"10 -1 OFFCURVE",
"13 -2 OFFCURVE",
"15 -3 CURVE",
"21 0 OFFCURVE",
"24 2 OFFCURVE",
"25 3 CURVE",
"26 5 OFFCURVE",
"34 7 OFFCURVE",
"49 8 CURVE",
"52 8 OFFCURVE",
"97 30 OFFCURVE",
"98 31 CURVE",
"100 34 OFFCURVE",
"105 36 OFFCURVE",
"112 38 CURVE",
"119 39 OFFCURVE",
"120 40 OFFCURVE",
"116 40 CURVE",
"101 38 OFFCURVE",
"91 36 OFFCURVE",
"85 35 CURVE SMOOTH",
"80 34 OFFCURVE",
"75 37 OFFCURVE",
"72 43 CURVE",
"84 44 OFFCURVE",
"95 46 OFFCURVE",
"104 49 CURVE SMOOTH",
"123 56 OFFCURVE",
"138 61 OFFCURVE",
"143 64 CURVE",
"145 65 OFFCURVE",
"147 66 OFFCURVE",
"149 67 CURVE",
"155 71 OFFCURVE",
"160 72 OFFCURVE",
"163 71 CURVE SMOOTH",
"166 70 OFFCURVE",
"177 79 OFFCURVE",
"196 100 CURVE",
"205 111 OFFCURVE",
"230 145 OFFCURVE",
"238 157 CURVE",
"238 158 OFFCURVE",
"239 160 OFFCURVE",
"241 164 CURVE SMOOTH",
"243 168 OFFCURVE",
"252 188 OFFCURVE",
"267 223 CURVE",
"267 224 OFFCURVE",
"267 226 OFFCURVE",
"268 231 CURVE",
"268 236 OFFCURVE",
"267 253 OFFCURVE",
"264 281 CURVE SMOOTH",
"262 303 OFFCURVE",
"266 313 OFFCURVE",
"275 311 CURVE SMOOTH",
"284 309 OFFCURVE",
"289 308 OFFCURVE",
"290 308 CURVE",
"289 313 OFFCURVE",
"299 317 OFFCURVE",
"299 310 CURVE",
"310 313 OFFCURVE",
"318 315 OFFCURVE",
"324 316 CURVE",
"330 318 OFFCURVE",
"336 314 OFFCURVE",
"343 305 CURVE",
"352 292 OFFCURVE",
"358 285 OFFCURVE",
"359 286 CURVE",
"361 287 OFFCURVE",
"369 282 OFFCURVE",
"383 273 CURVE",
"383 272 OFFCURVE",
"387 228 OFFCURVE",
"395 223 CURVE",
"395 222 OFFCURVE",
"394 218 OFFCURVE",
"392 210 CURVE SMOOTH",
"390 202 OFFCURVE",
"392 196 OFFCURVE",
"398 191 CURVE",
"405 186 OFFCURVE",
"410 174 OFFCURVE",
"411 155 CURVE SMOOTH",
"412 136 OFFCURVE",
"417 122 OFFCURVE",
"426 114 CURVE",
"427 113 OFFCURVE",
"435 63 OFFCURVE",
"418 35 CURVE",
"408 38 OFFCURVE",
"400 38 OFFCURVE",
"395 34 CURVE SMOOTH",
"389 29 OFFCURVE",
"381 26 OFFCURVE",
"370 24 CURVE SMOOTH",
"353 21 OFFCURVE",
"337 19 OFFCURVE",
"322 18 CURVE SMOOTH",
"307 17 OFFCURVE",
"294 16 OFFCURVE",
"283 13 CURVE SMOOTH",
"279 12 OFFCURVE",
"273 9 OFFCURVE",
"265 4 CURVE",
"256 -1 OFFCURVE",
"250 -13 OFFCURVE",
"247 -30 CURVE",
"257 -42 OFFCURVE",
"263 -50 OFFCURVE",
"265 -53 CURVE",
"266 -55 OFFCURVE",
"269 -56 OFFCURVE",
"273 -56 CURVE SMOOTH",
"278 -56 OFFCURVE",
"286 -55 OFFCURVE",
"297 -52 CURVE",
"303 -51 OFFCURVE",
"315 -50 OFFCURVE",
"334 -51 CURVE SMOOTH",
"371 -52 OFFCURVE",
"448 -24 OFFCURVE",
"455 -19 CURVE",
"458 -16 OFFCURVE",
"461 -14 OFFCURVE",
"465 -13 CURVE",
"475 -12 OFFCURVE",
"482 -7 OFFCURVE",
"485 2 CURVE SMOOTH",
"488 11 OFFCURVE",
"492 22 OFFCURVE",
"497 33 CURVE SMOOTH",
"501 42 OFFCURVE",
"503 53 OFFCURVE",
"503 64 CURVE SMOOTH",
"503 80 OFFCURVE",
"494 122 OFFCURVE",
"491 127 CURVE",
"485 139 OFFCURVE",
"483 146 OFFCURVE",
"485 147 CURVE SMOOTH",
"487 148 OFFCURVE",
"483 160 OFFCURVE",
"474 183 CURVE SMOOTH",
"467 200 OFFCURVE",
"465 211 OFFCURVE",
"466 216 CURVE SMOOTH",
"467 221 OFFCURVE",
"464 228 OFFCURVE",
"457 237 CURVE",
"456 238 OFFCURVE",
"454 243 OFFCURVE",
"453 252 CURVE SMOOTH",
"452 261 OFFCURVE",
"451 267 OFFCURVE",
"450 272 CURVE",
"443 296 OFFCURVE",
"440 316 OFFCURVE",
"412 333 CURVE SMOOTH",
"385 349 OFFCURVE",
"369 359 OFFCURVE",
"364 364 CURVE SMOOTH",
"359 369 OFFCURVE",
"355 372 OFFCURVE",
"353 373 CURVE",
"340 382 OFFCURVE",
"333 386 OFFCURVE",
"332 386 CURVE SMOOTH",
"331 386 OFFCURVE",
"327 386 OFFCURVE",
"319 386 CURVE",
"296 385 OFFCURVE",
"284 385 OFFCURVE",
"283 384 CURVE",
"282 384 OFFCURVE",
"280 384 OFFCURVE",
"275 385 CURVE"
);
}
);
width = 574;
}
);
note = s;
unicode = 0073;
},
{
glyphname = t;
lastChange = "2017-11-27 10:26:32 +0000";
layers = (
{
layerId = "7E101512-652C-46F2-AEC5-615E4561C90F";
paths = (
{
closed = 1;
nodes = (
"477 1250 OFFCURVE",
"468 1256 OFFCURVE",
"467 1257 CURVE",
"467 1257 OFFCURVE",
"466 1257 OFFCURVE",
"465 1257 CURVE SMOOTH",
"462 1257 OFFCURVE",
"454 1255 OFFCURVE",
"442 1252 CURVE",
"443 1246 OFFCURVE",
"444 1243 OFFCURVE",
"443 1242 CURVE",
"443 1241 OFFCURVE",
"440 1236 OFFCURVE",
"433 1225 CURVE",
"433 1225 OFFCURVE",
"426 1211 OFFCURVE",
"413 1182 CURVE SMOOTH",
"400 1153 OFFCURVE",
"389 1134 OFFCURVE",
"380 1127 CURVE",
"308 1119 OFFCURVE",
"270 1115 OFFCURVE",
"265 1115 CURVE",
"260 1114 OFFCURVE",
"249 1113 OFFCURVE",
"234 1112 CURVE",
"193 1107 OFFCURVE",
"155 1099 OFFCURVE",
"119 1088 CURVE SMOOTH",
"83 1077 OFFCURVE",
"50 1071 OFFCURVE",
"20 1070 CURVE SMOOTH",
"-7 1069 OFFCURVE",
"-64 1038 OFFCURVE",
"-107 1013 CURVE",
"-118 1006 OFFCURVE",
"-126 999 OFFCURVE",
"-129 990 CURVE",
"-133 981 OFFCURVE",
"-135 977 OFFCURVE",
"-135 976 CURVE",
"-139 966 OFFCURVE",
"-147 952 OFFCURVE",
"-158 934 CURVE SMOOTH",
"-169 917 OFFCURVE",
"-177 903 OFFCURVE",
"-181 893 CURVE",
"-158 840 OFFCURVE",
"-146 808 OFFCURVE",
"-146 796 CURVE",
"-145 785 OFFCURVE",
"-145 779 OFFCURVE",
"-145 778 CURVE SMOOTH",
"-145 769 OFFCURVE",
"-137 758 OFFCURVE",
"-121 743 CURVE SMOOTH",
"-105 728 OFFCURVE",
"-100 725 OFFCURVE",
"-107 732 CURVE",
"-102 752 OFFCURVE",
"-101 769 OFFCURVE",
"-106 782 CURVE SMOOTH",
"-115 807 OFFCURVE",
"-129 850 OFFCURVE",
"-110 882 CURVE",
"-101 899 OFFCURVE",
"-97 918 OFFCURVE",
"-100 941 CURVE",
"-57 957 OFFCURVE",
"-33 964 OFFCURVE",
"-30 961 CURVE",
"-27 959 OFFCURVE",
"-15 962 OFFCURVE",
"4 969 CURVE",
"11 972 OFFCURVE",
"15 974 OFFCURVE",
"16 975 CURVE SMOOTH",
"17 976 OFFCURVE",
"28 980 OFFCURVE",
"51 987 CURVE SMOOTH",
"98 1000 OFFCURVE",
"123 1009 OFFCURVE",
"128 1012 CURVE SMOOTH",
"133 1015 OFFCURVE",
"145 1018 OFFCURVE",
"164 1021 CURVE",
"170 1024 OFFCURVE",
"172 1026 OFFCURVE",
"169 1029 CURVE",
"164 1033 OFFCURVE",
"155 1040 OFFCURVE",
"167 1040 CURVE SMOOTH",
"173 1040 OFFCURVE",
"198 1040 OFFCURVE",
"242 1039 CURVE SMOOTH",
"267 1038 OFFCURVE",
"282 1038 OFFCURVE",
"288 1039 CURVE",
"293 1039 OFFCURVE",
"295 1044 OFFCURVE",
"292 1054 CURVE",
"319 1055 OFFCURVE",
"333 1055 OFFCURVE",
"334 1055 CURVE SMOOTH",
"335 1055 OFFCURVE",
"346 1050 OFFCURVE",
"369 1039 CURVE",
"374 1043 OFFCURVE",
"377 1045 OFFCURVE",
"378 1044 CURVE",
"379 1044 OFFCURVE",
"382 1044 OFFCURVE",
"387 1043 CURVE",
"366 985 OFFCURVE",
"355 950 OFFCURVE",
"355 937 CURVE",
"354 924 OFFCURVE",
"351 907 OFFCURVE",
"346 886 CURVE",
"345 885 OFFCURVE",
"341 867 OFFCURVE",
"334 833 CURVE SMOOTH",
"318 766 OFFCURVE",
"304 694 OFFCURVE",
"303 679 CURVE",
"302 671 OFFCURVE",
"301 662 OFFCURVE",
"299 651 CURVE SMOOTH",
"291 611 OFFCURVE",
"284 585 OFFCURVE",
"264 525 CURVE",
"264 525 OFFCURVE",
"245 366 OFFCURVE",
"245 366 CURVE",
"236 287 OFFCURVE",
"232 245 OFFCURVE",
"233 240 CURVE SMOOTH",
"234 235 OFFCURVE",
"235 212 OFFCURVE",
"235 172 CURVE SMOOTH",
"235 141 OFFCURVE",
"233 124 OFFCURVE",
"230 123 CURVE",
"225 119 OFFCURVE",
"200 25 OFFCURVE",
"223 16 CURVE",
"234 11 OFFCURVE",
"243 8 OFFCURVE",
"248 5 CURVE",
"275 45 OFFCURVE",
"287 67 OFFCURVE",
"286 72 CURVE SMOOTH",
"285 77 OFFCURVE",
"286 84 OFFCURVE",
"287 93 CURVE",
"298 156 OFFCURVE",
"304 191 OFFCURVE",
"304 199 CURVE SMOOTH",
"304 208 OFFCURVE",
"304 219 OFFCURVE",
"305 234 CURVE SMOOTH",
"308 273 OFFCURVE",
"310 300 OFFCURVE",
"311 316 CURVE SMOOTH",
"312 333 OFFCURVE",
"313 342 OFFCURVE",
"313 343 CURVE",
"321 378 OFFCURVE",
"326 415 OFFCURVE",
"328 454 CURVE SMOOTH",
"332 531 OFFCURVE",
"354 605 OFFCURVE",
"358 605 CURVE",
"359 604 OFFCURVE",
"362 619 OFFCURVE",
"367 649 CURVE SMOOTH",
"373 686 OFFCURVE",
"377 709 OFFCURVE",
"378 716 CURVE SMOOTH",
"379 723 OFFCURVE",
"382 734 OFFCURVE",
"389 751 CURVE SMOOTH",
"397 771 OFFCURVE",
"402 790 OFFCURVE",
"403 807 CURVE",
"405 825 OFFCURVE",
"409 840 OFFCURVE",
"414 851 CURVE",
"417 855 OFFCURVE",
"421 878 OFFCURVE",
"427 919 CURVE SMOOTH",
"439 1003 OFFCURVE",
"444 1042 OFFCURVE",
"453 1049 CURVE",
"457 1053 OFFCURVE",
"458 1061 OFFCURVE",
"457 1072 CURVE",
"486 1071 OFFCURVE",
"502 1071 OFFCURVE",
"504 1070 CURVE",
"505 1070 OFFCURVE",
"510 1070 OFFCURVE",
"519 1069 CURVE",
"527 1069 OFFCURVE",
"531 1071 OFFCURVE",
"531 1074 CURVE SMOOTH",
"531 1077 OFFCURVE",
"544 1077 OFFCURVE",
"569 1073 CURVE",
"579 1072 OFFCURVE",
"598 1074 OFFCURVE",
"625 1080 CURVE",
"652 1085 OFFCURVE",
"683 1084 OFFCURVE",
"716 1076 CURVE",
"718 1076 OFFCURVE",
"721 1078 OFFCURVE",
"724 1081 CURVE SMOOTH",
"727 1084 OFFCURVE",
"735 1086 OFFCURVE",
"750 1086 CURVE SMOOTH",
"807 1087 OFFCURVE",
"837 1088 OFFCURVE",
"840 1088 CURVE SMOOTH",
"843 1088 OFFCURVE",
"846 1088 OFFCURVE",
"849 1088 CURVE SMOOTH",
"875 1088 OFFCURVE",
"894 1086 OFFCURVE",
"906 1081 CURVE",
"918 1077 OFFCURVE",
"930 1075 OFFCURVE",
"943 1074 CURVE SMOOTH",
"999 1071 OFFCURVE",
"1031 1068 OFFCURVE",
"1039 1067 CURVE SMOOTH",
"1047 1066 OFFCURVE",
"1053 1064 OFFCURVE",
"1057 1063 CURVE",
"1059 1063 OFFCURVE",
"1060 1064 OFFCURVE",
"1059 1067 CURVE",
"1059 1070 OFFCURVE",
"1060 1075 OFFCURVE",
"1062 1082 CURVE",
"1072 1063 OFFCURVE",
"1077 1054 OFFCURVE",
"1078 1054 CURVE",
"1078 1053 OFFCURVE",
"1079 1048 OFFCURVE",
"1080 1038 CURVE",
"1099 1044 OFFCURVE",
"1108 1047 OFFCURVE",
"1109 1048 CURVE",
"1109 1048 OFFCURVE",
"1118 1050 OFFCURVE",
"1135 1053 CURVE SMOOTH",
"1173 1060 OFFCURVE",
"1192 1068 OFFCURVE",
"1193 1077 CURVE SMOOTH",
"1194 1086 OFFCURVE",
"1195 1092 OFFCURVE",
"1198 1093 CURVE",
"1190 1116 OFFCURVE",
"1186 1128 OFFCURVE",
"1186 1129 CURVE SMOOTH",
"1186 1130 OFFCURVE",
"1184 1134 OFFCURVE",
"1179 1141 CURVE",
"1124 1151 OFFCURVE",
"1092 1154 OFFCURVE",
"1083 1150 CURVE SMOOTH",
"1066 1142 OFFCURVE",
"921 1152 OFFCURVE",
"916 1153 CURVE",
"913 1153 OFFCURVE",
"901 1153 OFFCURVE",
"882 1152 CURVE SMOOTH",
"825 1150 OFFCURVE",
"793 1149 OFFCURVE",
"788 1149 CURVE SMOOTH",
"782 1149 OFFCURVE",
"778 1149 OFFCURVE",
"775 1150 CURVE",
"770 1150 OFFCURVE",
"763 1149 OFFCURVE",
"753 1148 CURVE",
"743 1146 OFFCURVE",
"677 1142 OFFCURVE",
"554 1137 CURVE SMOOTH",
"511 1134 OFFCURVE",
"487 1133 OFFCURVE",
"483 1134 CURVE",
"479 1134 OFFCURVE",
"476 1138 OFFCURVE",
"475 1145 CURVE",
"484 1170 OFFCURVE",
"488 1182 OFFCURVE",
"488 1183 CURVE",
"488 1183 OFFCURVE",
"488 1191 OFFCURVE",
"489 1208 CURVE",
"490 1215 OFFCURVE",
"490 1218 OFFCURVE",
"491 1219 CURVE SMOOTH",
"492 1220 OFFCURVE",
"493 1227 OFFCURVE",
"494 1240 CURVE"
);
}
);
width = 574;
}
);
note = t;
unicode = 0074;
},
{
glyphname = u;
lastChange = "2017-11-27 10:26:32 +0000";
layers = (
{
layerId = "7E101512-652C-46F2-AEC5-615E4561C90F";
paths = (
{
closed = 1;
nodes = (
"484 291 OFFCURVE",
"476 302 OFFCURVE",
"469 302 CURVE SMOOTH",
"468 302 OFFCURVE",
"468 302 OFFCURVE",
"467 302 CURVE",
"459 300 OFFCURVE",
"452 297 OFFCURVE",
"445 293 CURVE",
"445 293 OFFCURVE",
"425 273 OFFCURVE",
"425 258 CURVE",
"424 237 OFFCURVE",
"398 192 OFFCURVE",
"393 183 CURVE",
"380 154 OFFCURVE",
"372 136 OFFCURVE",
"367 131 CURVE SMOOTH",
"362 126 OFFCURVE",
"359 123 OFFCURVE",
"356 121 CURVE",
"351 116 OFFCURVE",
"349 112 OFFCURVE",
"350 107 CURVE",
"354 98 OFFCURVE",
"313 40 OFFCURVE",
"293 33 CURVE",
"283 30 OFFCURVE",
"272 23 OFFCURVE",
"261 13 CURVE SMOOTH",
"244 -2 OFFCURVE",
"230 -8 OFFCURVE",
"218 -5 CURVE",
"193 -1 OFFCURVE",
"183 3 OFFCURVE",
"182 27 CURVE",
"179 52 OFFCURVE",
"184 94 OFFCURVE",
"185 94 CURVE",
"185 94 OFFCURVE",
"185 95 OFFCURVE",
"186 97 CURVE SMOOTH",
"201 125 OFFCURVE",
"209 142 OFFCURVE",
"210 147 CURVE SMOOTH",
"211 152 OFFCURVE",
"212 156 OFFCURVE",
"213 158 CURVE",
"214 163 OFFCURVE",
"217 168 OFFCURVE",
"223 175 CURVE",
"228 182 OFFCURVE",
"231 196 OFFCURVE",
"231 219 CURVE SMOOTH",
"231 240 OFFCURVE",
"231 251 OFFCURVE",
"232 251 CURVE SMOOTH",
"233 251 OFFCURVE",
"233 254 OFFCURVE",
"233 260 CURVE",
"227 269 OFFCURVE",
"219 273 OFFCURVE",
"208 273 CURVE",
"197 272 OFFCURVE",
"192 272 OFFCURVE",
"191 272 CURVE",
"180 271 OFFCURVE",
"172 262 OFFCURVE",
"165 245 CURVE SMOOTH",
"152 213 OFFCURVE",
"119 137 OFFCURVE",
"122 136 CURVE",
"124 135 OFFCURVE",
"123 130 OFFCURVE",
"119 123 CURVE",
"118 121 OFFCURVE",
"118 118 OFFCURVE",
"121 115 CURVE",
"125 108 OFFCURVE",
"57 66 OFFCURVE",
"46 70 CURVE",
"40 71 OFFCURVE",
"29 69 OFFCURVE",
"13 64 CURVE SMOOTH",
"-8 57 OFFCURVE",
"-18 54 OFFCURVE",
"-19 55 CURVE SMOOTH",
"-20 56 OFFCURVE",
"-22 55 OFFCURVE",
"-25 52 CURVE",
"-28 33 OFFCURVE",
"-30 20 OFFCURVE",
"-30 13 CURVE SMOOTH",
"-30 11 OFFCURVE",
"-30 9 OFFCURVE",
"-29 8 CURVE",
"-28 5 OFFCURVE",
"-27 3 OFFCURVE",
"-27 2 CURVE",
"4 5 OFFCURVE",
"24 9 OFFCURVE",
"34 14 CURVE",
"54 23 OFFCURVE",
"110 29 OFFCURVE",
"111 26 CURVE",
"112 25 OFFCURVE",
"113 24 OFFCURVE",
"114 23 CURVE",
"114 -4 OFFCURVE",
"116 -19 OFFCURVE",
"121 -22 CURVE SMOOTH",
"126 -25 OFFCURVE",
"128 -26 OFFCURVE",
"128 -26 CURVE",
"133 -31 OFFCURVE",
"135 -34 OFFCURVE",
"136 -33 CURVE SMOOTH",
"137 -32 OFFCURVE",
"151 -42 OFFCURVE",
"178 -63 CURVE",
"180 -64 OFFCURVE",
"186 -65 OFFCURVE",
"195 -65 CURVE SMOOTH",
"202 -65 OFFCURVE",
"210 -65 OFFCURVE",
"219 -64 CURVE",
"243 -63 OFFCURVE",
"260 -58 OFFCURVE",
"269 -50 CURVE",
"278 -41 OFFCURVE",
"287 -36 OFFCURVE",
"295 -34 CURVE SMOOTH",
"303 -32 OFFCURVE",
"311 -26 OFFCURVE",
"320 -15 CURVE SMOOTH",
"330 -3 OFFCURVE",
"337 4 OFFCURVE",
"341 5 CURVE SMOOTH",
"345 6 OFFCURVE",
"349 8 OFFCURVE",
"352 10 CURVE",
"353 6 OFFCURVE",
"360 -17 OFFCURVE",
"367 -29 CURVE SMOOTH",
"376 -45 OFFCURVE",
"417 -50 OFFCURVE",
"428 -49 CURVE",
"454 -42 OFFCURVE",
"468 -39 OFFCURVE",
"471 -39 CURVE SMOOTH",
"473 -39 OFFCURVE",
"475 -39 OFFCURVE",
"476 -39 CURVE",
"504 -36 OFFCURVE",
"587 3 OFFCURVE",
"598 14 CURVE SMOOTH",
"607 23 OFFCURVE",
"616 27 OFFCURVE",
"626 28 CURVE",
"647 31 OFFCURVE",
"643 68 OFFCURVE",
"643 81 CURVE SMOOTH",
"643 92 OFFCURVE",
"643 97 OFFCURVE",
"642 97 CURVE",
"641 98 OFFCURVE",
"640 99 OFFCURVE",
"639 100 CURVE",
"632 95 OFFCURVE",
"628 92 OFFCURVE",
"627 92 CURVE",
"627 91 OFFCURVE",
"624 90 OFFCURVE",
"618 87 CURVE",
"618 87 OFFCURVE",
"607 79 OFFCURVE",
"584 64 CURVE SMOOTH",
"562 49 OFFCURVE",
"540 44 OFFCURVE",
"517 50 CURVE",
"512 51 OFFCURVE",
"505 49 OFFCURVE",
"496 44 CURVE SMOOTH",
"487 39 OFFCURVE",
"481 35 OFFCURVE",
"476 32 CURVE SMOOTH",
"469 28 OFFCURVE",
"429 21 OFFCURVE",
"437 69 CURVE",
"438 78 OFFCURVE",
"441 83 OFFCURVE",
"445 85 CURVE SMOOTH",
"449 87 OFFCURVE",
"454 103 OFFCURVE",
"459 133 CURVE",
"462 147 OFFCURVE",
"465 156 OFFCURVE",
"468 161 CURVE",
"471 165 OFFCURVE",
"473 168 OFFCURVE",
"474 170 CURVE",
"474 171 OFFCURVE",
"476 179 OFFCURVE",
"480 196 CURVE",
"485 213 OFFCURVE",
"487 224 OFFCURVE",
"488 230 CURVE",
"490 246 OFFCURVE",
"492 254 OFFCURVE",
"494 254 CURVE",
"496 255 OFFCURVE",
"496 259 OFFCURVE",
"493 268 CURVE"
);
}
);
width = 574;
}
);
note = u;
unicode = 0075;
},
{
glyphname = v;
lastChange = "2017-11-27 10:26:32 +0000";
layers = (
{
layerId = "7E101512-652C-46F2-AEC5-615E4561C90F";
paths = (
{
closed = 1;
nodes = (
"607 639 OFFCURVE",
"598 647 OFFCURVE",
"590 647 CURVE SMOOTH",
"590 647 OFFCURVE",
"590 647 OFFCURVE",
"589 647 CURVE",
"581 646 OFFCURVE",
"575 643 OFFCURVE",
"572 637 CURVE",
"564 636 OFFCURVE",
"559 636 OFFCURVE",
"558 636 CURVE SMOOTH",
"557 636 OFFCURVE",
"554 632 OFFCURVE",
"551 623 CURVE",
"550 622 OFFCURVE",
"547 619 OFFCURVE",
"542 615 CURVE SMOOTH",
"537 611 OFFCURVE",
"527 594 OFFCURVE",
"510 565 CURVE SMOOTH",
"488 527 OFFCURVE",
"477 508 OFFCURVE",
"476 508 CURVE SMOOTH",
"475 508 OFFCURVE",
"474 508 OFFCURVE",
"473 507 CURVE",
"473 507 OFFCURVE",
"437 455 OFFCURVE",
"433 448 CURVE",
"428 435 OFFCURVE",
"385 371 OFFCURVE",
"364 347 CURVE",
"347 326 OFFCURVE",
"335 306 OFFCURVE",
"328 286 CURVE SMOOTH",
"321 266 OFFCURVE",
"316 253 OFFCURVE",
"313 248 CURVE",
"312 245 OFFCURVE",
"310 244 OFFCURVE",
"307 245 CURVE SMOOTH",
"304 246 OFFCURVE",
"299 242 OFFCURVE",
"293 232 CURVE SMOOTH",
"290 227 OFFCURVE",
"258 185 OFFCURVE",
"249 185 CURVE",
"232 202 OFFCURVE",
"224 212 OFFCURVE",
"225 214 CURVE",
"227 216 OFFCURVE",
"222 224 OFFCURVE",
"211 238 CURVE",
"211 238 OFFCURVE",
"185 267 OFFCURVE",
"177 275 CURVE SMOOTH",
"174 278 OFFCURVE",
"163 293 OFFCURVE",
"142 321 CURVE SMOOTH",
"121 349 OFFCURVE",
"107 366 OFFCURVE",
"101 373 CURVE",
"86 389 OFFCURVE",
"77 400 OFFCURVE",
"74 405 CURVE SMOOTH",
"71 410 OFFCURVE",
"63 421 OFFCURVE",
"50 436 CURVE",
"50 437 OFFCURVE",
"50 440 OFFCURVE",
"51 445 CURVE SMOOTH",
"52 450 OFFCURVE",
"44 464 OFFCURVE",
"28 486 CURVE",
"23 494 OFFCURVE",
"18 498 OFFCURVE",
"15 498 CURVE",
"12 499 OFFCURVE",
"5 506 OFFCURVE",
"-5 521 CURVE",
"-32 516 OFFCURVE",
"-46 511 OFFCURVE",
"-46 506 CURVE",
"-47 501 OFFCURVE",
"-48 497 OFFCURVE",
"-50 493 CURVE",
"-54 483 OFFCURVE",
"-56 475 OFFCURVE",
"-56 468 CURVE SMOOTH",
"-56 464 OFFCURVE",
"-55 461 OFFCURVE",
"-54 458 CURVE",
"-47 443 OFFCURVE",
"-41 428 OFFCURVE",
"-34 425 CURVE SMOOTH",
"-27 422 OFFCURVE",
"-10 416 OFFCURVE",
"-2 396 CURVE SMOOTH",
"2 385 OFFCURVE",
"6 378 OFFCURVE",
"10 373 CURVE",
"13 370 OFFCURVE",
"19 364 OFFCURVE",
"26 355 CURVE SMOOTH",
"33 346 OFFCURVE",
"37 342 OFFCURVE",
"38 342 CURVE",
"38 341 OFFCURVE",
"38 340 OFFCURVE",
"38 337 CURVE SMOOTH",
"38 334 OFFCURVE",
"47 322 OFFCURVE",
"66 302 CURVE",
"71 296 OFFCURVE",
"75 290 OFFCURVE",
"77 283 CURVE SMOOTH",
"79 276 OFFCURVE",
"83 269 OFFCURVE",
"90 263 CURVE",
"90 263 OFFCURVE",
"99 251 OFFCURVE",
"117 227 CURVE SMOOTH",
"135 204 OFFCURVE",
"146 188 OFFCURVE",
"150 180 CURVE",
"155 171 OFFCURVE",
"163 159 OFFCURVE",
"176 143 CURVE SMOOTH",
"189 127 OFFCURVE",
"197 117 OFFCURVE",
"200 114 CURVE",
"199 103 OFFCURVE",
"202 92 OFFCURVE",
"210 81 CURVE SMOOTH",
"225 61 OFFCURVE",
"250 14 OFFCURVE",
"249 13 CURVE SMOOTH",
"248 12 OFFCURVE",
"252 8 OFFCURVE",
"259 1 CURVE SMOOTH",
"275 -15 OFFCURVE",
"286 -23 OFFCURVE",
"293 -24 CURVE SMOOTH",
"299 -25 OFFCURVE",
"304 -25 OFFCURVE",
"309 -26 CURVE",
"333 -14 OFFCURVE",
"343 -1 OFFCURVE",
"340 14 CURVE SMOOTH",
"337 29 OFFCURVE",
"335 37 OFFCURVE",
"335 38 CURVE",
"328 69 OFFCURVE",
"327 86 OFFCURVE",
"332 90 CURVE",
"344 97 OFFCURVE",
"330 102 OFFCURVE",
"321 93 CURVE",
"316 89 OFFCURVE",
"315 90 OFFCURVE",
"318 96 CURVE SMOOTH",
"320 100 OFFCURVE",
"319 106 OFFCURVE",
"316 113 CURVE",
"312 120 OFFCURVE",
"323 142 OFFCURVE",
"348 181 CURVE",
"353 188 OFFCURVE",
"353 193 OFFCURVE",
"348 196 CURVE SMOOTH",
"343 199 OFFCURVE",
"348 208 OFFCURVE",
"363 222 CURVE SMOOTH",
"364 223 OFFCURVE",
"366 226 OFFCURVE",
"367 231 CURVE SMOOTH",
"368 236 OFFCURVE",
"375 252 OFFCURVE",
"388 279 CURVE SMOOTH",
"389 281 OFFCURVE",
"392 281 OFFCURVE",
"395 280 CURVE SMOOTH",
"398 279 OFFCURVE",
"408 295 OFFCURVE",
"423 328 CURVE SMOOTH",
"435 357 OFFCURVE",
"461 372 OFFCURVE",
"473 380 CURVE",
"477 383 OFFCURVE",
"479 386 OFFCURVE",
"478 389 CURVE SMOOTH",
"477 392 OFFCURVE",
"484 401 OFFCURVE",
"497 414 CURVE",
"497 413 OFFCURVE",
"500 412 OFFCURVE",
"507 409 CURVE",
"513 407 OFFCURVE",
"514 407 OFFCURVE",
"510 410 CURVE",
"523 419 OFFCURVE",
"530 424 OFFCURVE",
"530 424 CURVE SMOOTH",
"530 424 OFFCURVE",
"537 431 OFFCURVE",
"541 443 CURVE",
"543 448 OFFCURVE",
"547 464 OFFCURVE",
"554 489 CURVE",
"555 494 OFFCURVE",
"560 504 OFFCURVE",
"570 521 CURVE SMOOTH",
"580 538 OFFCURVE",
"586 548 OFFCURVE",
"587 551 CURVE",
"602 581 OFFCURVE",
"611 600 OFFCURVE",
"613 608 CURVE",
"616 616 OFFCURVE",
"617 621 OFFCURVE",
"617 622 CURVE"
);
}
);
width = 574;
}
);
note = v;
unicode = 0076;
},
{
glyphname = x;
lastChange = "2017-11-27 10:26:32 +0000";
layers = (
{
layerId = "7E101512-652C-46F2-AEC5-615E4561C90F";
paths = (
{
closed = 1;
nodes = (
"433 393 OFFCURVE",
"420 399 OFFCURVE",
"418 399 CURVE SMOOTH",
"418 399 OFFCURVE",
"418 399 OFFCURVE",
"418 399 CURVE",
"417 398 OFFCURVE",
"413 397 OFFCURVE",
"405 396 CURVE",
"396 394 OFFCURVE",
"387 394 OFFCURVE",
"380 395 CURVE SMOOTH",
"373 396 OFFCURVE",
"359 389 OFFCURVE",
"338 374 CURVE",
"331 349 OFFCURVE",
"324 336 OFFCURVE",
"319 333 CURVE SMOOTH",
"314 330 OFFCURVE",
"310 326 OFFCURVE",
"306 321 CURVE",
"303 318 OFFCURVE",
"303 316 OFFCURVE",
"306 315 CURVE",
"308 314 OFFCURVE",
"306 308 OFFCURVE",
"301 297 CURVE",
"292 279 OFFCURVE",
"286 270 OFFCURVE",
"282 269 CURVE",
"278 269 OFFCURVE",
"273 269 OFFCURVE",
"267 268 CURVE",
"246 279 OFFCURVE",
"235 285 OFFCURVE",
"234 286 CURVE",
"232 286 OFFCURVE",
"230 287 OFFCURVE",
"227 289 CURVE",
"222 291 OFFCURVE",
"216 296 OFFCURVE",
"209 304 CURVE",
"202 311 OFFCURVE",
"189 319 OFFCURVE",
"169 326 CURVE",
"169 326 OFFCURVE",
"159 332 OFFCURVE",
"138 344 CURVE SMOOTH",
"118 355 OFFCURVE",
"107 368 OFFCURVE",
"104 383 CURVE",
"74 383 OFFCURVE",
"53 381 OFFCURVE",
"41 377 CURVE SMOOTH",
"29 373 OFFCURVE",
"19 370 OFFCURVE",
"12 367 CURVE",
"7 358 OFFCURVE",
"3 352 OFFCURVE",
"1 348 CURVE",
"0 347 OFFCURVE",
"0 345 OFFCURVE",
"0 343 CURVE SMOOTH",
"0 335 OFFCURVE",
"-2 332 OFFCURVE",
"31 309 CURVE SMOOTH",
"47 297 OFFCURVE",
"65 287 OFFCURVE",
"85 280 CURVE",
"106 271 OFFCURVE",
"121 265 OFFCURVE",
"128 261 CURVE SMOOTH",
"135 257 OFFCURVE",
"141 254 OFFCURVE",
"145 252 CURVE",
"155 248 OFFCURVE",
"160 244 OFFCURVE",
"161 241 CURVE SMOOTH",
"162 238 OFFCURVE",
"169 234 OFFCURVE",
"182 227 CURVE SMOOTH",
"192 222 OFFCURVE",
"200 217 OFFCURVE",
"207 211 CURVE SMOOTH",
"214 205 OFFCURVE",
"217 202 OFFCURVE",
"218 201 CURVE",
"215 196 OFFCURVE",
"181 146 OFFCURVE",
"166 126 CURVE",
"165 125 OFFCURVE",
"127 78 OFFCURVE",
"127 77 CURVE",
"112 53 OFFCURVE",
"99 35 OFFCURVE",
"88 24 CURVE SMOOTH",
"76 12 OFFCURVE",
"67 0 OFFCURVE",
"62 -11 CURVE",
"61 -15 OFFCURVE",
"59 -17 OFFCURVE",
"56 -17 CURVE SMOOTH",
"51 -17 OFFCURVE",
"8 -100 OFFCURVE",
"8 -141 CURVE",
"7 -156 OFFCURVE",
"12 -164 OFFCURVE",
"22 -164 CURVE",
"25 -165 OFFCURVE",
"29 -164 OFFCURVE",
"34 -162 CURVE",
"49 -129 OFFCURVE",
"58 -111 OFFCURVE",
"63 -107 CURVE SMOOTH",
"67 -104 OFFCURVE",
"70 -101 OFFCURVE",
"71 -100 CURVE",
"85 -84 OFFCURVE",
"99 -66 OFFCURVE",
"113 -46 CURVE SMOOTH",
"127 -27 OFFCURVE",
"135 -16 OFFCURVE",
"136 -15 CURVE",
"153 -2 OFFCURVE",
"167 12 OFFCURVE",
"178 26 CURVE",
"188 40 OFFCURVE",
"194 48 OFFCURVE",
"197 50 CURVE",
"198 50 OFFCURVE",
"206 60 OFFCURVE",
"221 79 CURVE SMOOTH",
"237 98 OFFCURVE",
"252 118 OFFCURVE",
"265 139 CURVE SMOOTH",
"280 162 OFFCURVE",
"291 170 OFFCURVE",
"298 163 CURVE SMOOTH",
"305 156 OFFCURVE",
"312 150 OFFCURVE",
"318 146 CURVE",
"341 133 OFFCURVE",
"357 122 OFFCURVE",
"366 115 CURVE SMOOTH",
"375 108 OFFCURVE",
"385 102 OFFCURVE",
"396 99 CURVE",
"412 94 OFFCURVE",
"465 59 OFFCURVE",
"474 51 CURVE",
"474 50 OFFCURVE",
"477 49 OFFCURVE",
"482 47 CURVE SMOOTH",
"487 45 OFFCURVE",
"504 35 OFFCURVE",
"532 18 CURVE",
"535 16 OFFCURVE",
"537 13 OFFCURVE",
"538 8 CURVE SMOOTH",
"539 3 OFFCURVE",
"547 4 OFFCURVE",
"564 11 CURVE",
"565 11 OFFCURVE",
"567 9 OFFCURVE",
"571 5 CURVE",
"575 0 OFFCURVE",
"582 2 OFFCURVE",
"593 9 CURVE",
"579 31 OFFCURVE",
"569 43 OFFCURVE",
"564 45 CURVE",
"558 46 OFFCURVE",
"555 47 OFFCURVE",
"554 47 CURVE",
"542 52 OFFCURVE",
"512 72 OFFCURVE",
"529 81 CURVE",
"517 89 OFFCURVE",
"511 93 OFFCURVE",
"511 93 CURVE SMOOTH",
"511 93 OFFCURVE",
"507 95 OFFCURVE",
"499 98 CURVE",
"498 98 OFFCURVE",
"488 105 OFFCURVE",
"470 119 CURVE SMOOTH",
"451 134 OFFCURVE",
"441 142 OFFCURVE",
"438 144 CURVE",
"419 159 OFFCURVE",
"408 168 OFFCURVE",
"406 169 CURVE",
"403 170 OFFCURVE",
"402 170 OFFCURVE",
"402 170 CURVE",
"388 177 OFFCURVE",
"375 188 OFFCURVE",
"363 202 CURVE SMOOTH",
"352 215 OFFCURVE",
"342 223 OFFCURVE",
"335 226 CURVE",
"337 233 OFFCURVE",
"341 240 OFFCURVE",
"347 245 CURVE",
"352 250 OFFCURVE",
"353 257 OFFCURVE",
"350 268 CURVE SMOOTH",
"349 272 OFFCURVE",
"352 277 OFFCURVE",
"359 284 CURVE",
"366 290 OFFCURVE",
"370 295 OFFCURVE",
"372 300 CURVE SMOOTH",
"378 315 OFFCURVE",
"390 323 OFFCURVE",
"407 325 CURVE SMOOTH",
"442 329 OFFCURVE",
"457 329 OFFCURVE",
"456 349 CURVE",
"455 359 OFFCURVE",
"456 370 OFFCURVE",
"457 381 CURVE"
);
}
);
width = 574;
}
);
note = x;
unicode = 0078;
},
{
glyphname = ccedilla;
lastChange = "2017-11-27 10:26:32 +0000";
layers = (
{
layerId = "7E101512-652C-46F2-AEC5-615E4561C90F";
paths = (
{
closed = 1;
nodes = (
"406 489 OFFCURVE",
"383 493 OFFCURVE",
"365 493 CURVE SMOOTH",
"358 493 OFFCURVE",
"352 492 OFFCURVE",
"346 491 CURVE",
"327 486 OFFCURVE",
"315 483 OFFCURVE",
"310 480 CURVE",
"307 479 OFFCURVE",
"245 422 OFFCURVE",
"245 422 CURVE",
"218 399 OFFCURVE",
"204 387 OFFCURVE",
"204 386 CURVE",
"203 385 OFFCURVE",
"202 384 OFFCURVE",
"199 382 CURVE",
"191 374 OFFCURVE",
"181 362 OFFCURVE",
"170 347 CURVE SMOOTH",
"159 331 OFFCURVE",
"150 319 OFFCURVE",
"143 311 CURVE SMOOTH",
"122 286 OFFCURVE",
"103 237 OFFCURVE",
"100 226 CURVE",
"83 175 OFFCURVE",
"95 142 OFFCURVE",
"103 123 CURVE SMOOTH",
"118 87 OFFCURVE",
"133 64 OFFCURVE",
"146 53 CURVE SMOOTH",
"159 42 OFFCURVE",
"167 36 OFFCURVE",
"172 33 CURVE",
"163 28 OFFCURVE",
"155 22 OFFCURVE",
"149 13 CURVE SMOOTH",
"137 -4 OFFCURVE",
"126 -18 OFFCURVE",
"125 -39 CURVE",
"124 -50 OFFCURVE",
"117 -68 OFFCURVE",
"105 -93 CURVE SMOOTH",
"99 -106 OFFCURVE",
"96 -113 OFFCURVE",
"97 -114 CURVE SMOOTH",
"98 -115 OFFCURVE",
"92 -128 OFFCURVE",
"80 -153 CURVE SMOOTH",
"67 -180 OFFCURVE",
"60 -198 OFFCURVE",
"60 -208 CURVE SMOOTH",
"60 -217 OFFCURVE",
"67 -230 OFFCURVE",
"82 -247 CURVE",
"83 -247 OFFCURVE",
"87 -248 OFFCURVE",
"94 -250 CURVE SMOOTH",
"107 -254 OFFCURVE",
"143 -212 OFFCURVE",
"154 -185 CURVE SMOOTH",
"159 -172 OFFCURVE",
"169 -163 OFFCURVE",
"184 -158 CURVE SMOOTH",
"207 -150 OFFCURVE",
"248 -148 OFFCURVE",
"307 -145 CURVE",
"307 -146 OFFCURVE",
"307 -149 OFFCURVE",
"307 -154 CURVE",
"308 -160 OFFCURVE",
"315 -165 OFFCURVE",
"328 -169 CURVE",
"332 -208 OFFCURVE",
"335 -230 OFFCURVE",
"338 -235 CURVE SMOOTH",
"341 -240 OFFCURVE",
"343 -244 OFFCURVE",
"344 -248 CURVE",
"355 -277 OFFCURVE",
"360 -292 OFFCURVE",
"361 -295 CURVE SMOOTH",
"362 -298 OFFCURVE",
"364 -301 OFFCURVE",
"367 -305 CURVE",
"380 -320 OFFCURVE",
"386 -377 OFFCURVE",
"383 -392 CURVE",
"364 -409 OFFCURVE",
"351 -417 OFFCURVE",
"344 -414 CURVE SMOOTH",
"337 -411 OFFCURVE",
"326 -411 OFFCURVE",
"312 -413 CURVE",
"302 -415 OFFCURVE",
"293 -414 OFFCURVE",
"286 -409 CURVE",
"279 -405 OFFCURVE",
"266 -409 OFFCURVE",
"248 -420 CURVE SMOOTH",
"227 -433 OFFCURVE",
"197 -455 OFFCURVE",
"224 -494 CURVE",
"238 -501 OFFCURVE",
"251 -505 OFFCURVE",
"263 -505 CURVE SMOOTH",
"267 -505 OFFCURVE",
"271 -505 OFFCURVE",
"274 -504 CURVE",
"303 -497 OFFCURVE",
"338 -490 OFFCURVE",
"339 -494 CURVE",
"340 -497 OFFCURVE",
"346 -496 OFFCURVE",
"357 -492 CURVE SMOOTH",
"360 -491 OFFCURVE",
"371 -486 OFFCURVE",
"390 -476 CURVE SMOOTH",
"429 -456 OFFCURVE",
"444 -445 OFFCURVE",
"451 -416 CURVE SMOOTH",
"458 -385 OFFCURVE",
"459 -337 OFFCURVE",
"443 -304 CURVE SMOOTH",
"435 -287 OFFCURVE",
"431 -277 OFFCURVE",
"431 -274 CURVE",
"430 -268 OFFCURVE",
"428 -261 OFFCURVE",
"425 -253 CURVE",
"418 -237 OFFCURVE",
"406 -201 OFFCURVE",
"401 -168 CURVE SMOOTH",
"399 -152 OFFCURVE",
"393 -137 OFFCURVE",
"383 -124 CURVE",
"380 -119 OFFCURVE",
"353 -94 OFFCURVE",
"336 -86 CURVE",
"319 -77 OFFCURVE",
"260 -77 OFFCURVE",
"235 -80 CURVE SMOOTH",
"207 -83 OFFCURVE",
"192 -82 OFFCURVE",
"189 -79 CURVE SMOOTH",
"186 -76 OFFCURVE",
"183 -73 OFFCURVE",
"181 -72 CURVE",
"200 -39 OFFCURVE",
"208 -22 OFFCURVE",
"207 -21 CURVE",
"205 -20 OFFCURVE",
"204 -18 OFFCURVE",
"205 -15 CURVE",
"239 -1 OFFCURVE",
"257 6 OFFCURVE",
"258 5 CURVE SMOOTH",
"259 4 OFFCURVE",
"267 2 OFFCURVE",
"282 -2 CURVE",
"299 -5 OFFCURVE",
"316 -6 OFFCURVE",
"334 -5 CURVE SMOOTH",
"369 -2 OFFCURVE",
"461 21 OFFCURVE",
"464 22 CURVE",
"465 23 OFFCURVE",
"467 25 OFFCURVE",
"470 26 CURVE",
"473 28 OFFCURVE",
"480 30 OFFCURVE",
"489 31 CURVE",
"493 32 OFFCURVE",
"495 35 OFFCURVE",
"495 38 CURVE SMOOTH",
"495 43 OFFCURVE",
"492 49 OFFCURVE",
"485 58 CURVE",
"476 60 OFFCURVE",
"458 61 OFFCURVE",
"431 60 CURVE SMOOTH",
"403 59 OFFCURVE",
"387 58 OFFCURVE",
"384 58 CURVE",
"371 57 OFFCURVE",
"356 56 OFFCURVE",
"340 57 CURVE SMOOTH",
"307 60 OFFCURVE",
"234 78 OFFCURVE",
"201 107 CURVE SMOOTH",
"168 136 OFFCURVE",
"158 206 OFFCURVE",
"163 209 CURVE",
"166 210 OFFCURVE",
"167 210 OFFCURVE",
"167 211 CURVE",
"171 227 OFFCURVE",
"173 235 OFFCURVE",
"173 235 CURVE",
"174 236 OFFCURVE",
"177 239 OFFCURVE",
"184 246 CURVE SMOOTH",
"188 250 OFFCURVE",
"189 253 OFFCURVE",
"188 254 CURVE",
"186 255 OFFCURVE",
"190 261 OFFCURVE",
"199 273 CURVE SMOOTH",
"202 277 OFFCURVE",
"203 284 OFFCURVE",
"202 293 CURVE SMOOTH",
"201 302 OFFCURVE",
"206 305 OFFCURVE",
"217 303 CURVE",
"218 303 OFFCURVE",
"218 305 OFFCURVE",
"219 308 CURVE",
"219 311 OFFCURVE",
"231 325 OFFCURVE",
"254 351 CURVE SMOOTH",
"273 372 OFFCURVE",
"283 376 OFFCURVE",
"304 387 CURVE",
"304 387 OFFCURVE",
"311 391 OFFCURVE",
"324 399 CURVE",
"337 408 OFFCURVE",
"357 418 OFFCURVE",
"383 431 CURVE",
"394 422 OFFCURVE",
"403 416 OFFCURVE",
"409 413 CURVE",
"416 410 OFFCURVE",
"414 399 OFFCURVE",
"404 382 CURVE SMOOTH",
"391 359 OFFCURVE",
"386 344 OFFCURVE",
"389 336 CURVE",
"392 329 OFFCURVE",
"396 322 OFFCURVE",
"399 317 CURVE",
"403 320 OFFCURVE",
"405 321 OFFCURVE",
"405 321 CURVE",
"405 322 OFFCURVE",
"408 328 OFFCURVE",
"429 352 CURVE",
"452 376 OFFCURVE",
"474 399 OFFCURVE",
"469 408 CURVE",
"466 412 OFFCURVE",
"465 419 OFFCURVE",
"466 429 CURVE",
"466 438 OFFCURVE",
"451 465 OFFCURVE",
"435 481 CURVE"
);
}
);
width = 574;
}
);
note = ccedilla;
unicode = 00E7;
},
{
glyphname = notdef_2;
lastChange = "2017-11-27 10:26:32 +0000";
layers = (
{
layerId = "7E101512-652C-46F2-AEC5-615E4561C90F";
paths = (
{
closed = 1;
nodes = (
"51 279 OFFCURVE",
"51 412 OFFCURVE",
"51 501 CURVE SMOOTH",
"51 560 OFFCURVE",
"51 605 OFFCURVE",
"51 635 CURVE",
"188 635 OFFCURVE",
"290 635 OFFCURVE",
"358 635 CURVE",
"358 369 OFFCURVE",
"358 191 OFFCURVE",
"358 102 CURVE",
"205 102 OFFCURVE",
"102 102 OFFCURVE",
"51 102 CURVE"
);
},
{
closed = 1;
nodes = (
"0 404 OFFCURVE",
"0 192 OFFCURVE",
"0 51 CURVE",
"182 51 OFFCURVE",
"319 51 OFFCURVE",
"410 51 CURVE",
"410 368 OFFCURVE",
"410 580 OFFCURVE",
"410 686 CURVE",
"205 686 OFFCURVE",
"68 686 OFFCURVE",
"0 686 CURVE"
);
}
);
width = 543;
}
);
note = .notdef_2;
},
{
glyphname = alt._a;
lastChange = "2017-11-27 10:26:32 +0000";
layers = (
{
layerId = "7E101512-652C-46F2-AEC5-615E4561C90F";
paths = (
{
closed = 1;
nodes = (
"218 340 OFFCURVE",
"211 342 OFFCURVE",
"211 345 CURVE SMOOTH",
"211 348 OFFCURVE",
"198 350 OFFCURVE",
"172 350 CURVE",
"160 347 OFFCURVE",
"154 344 OFFCURVE",
"153 341 CURVE",
"153 338 OFFCURVE",
"153 334 OFFCURVE",
"154 330 CURVE",
"141 330 OFFCURVE",
"135 330 OFFCURVE",
"134 330 CURVE SMOOTH",
"133 330 OFFCURVE",
"128 330 OFFCURVE",
"119 329 CURVE SMOOTH",
"97 326 OFFCURVE",
"83 322 OFFCURVE",
"78 316 CURVE SMOOTH",
"72 309 OFFCURVE",
"68 305 OFFCURVE",
"65 302 CURVE SMOOTH",
"54 291 OFFCURVE",
"48 285 OFFCURVE",
"47 282 CURVE",
"47 279 OFFCURVE",
"45 275 OFFCURVE",
"42 271 CURVE SMOOTH",
"25 248 OFFCURVE",
"17 236 OFFCURVE",
"19 234 CURVE SMOOTH",
"20 233 OFFCURVE",
"19 229 OFFCURVE",
"15 222 CURVE",
"6 209 OFFCURVE",
"3 200 OFFCURVE",
"6 194 CURVE",
"8 188 OFFCURVE",
"9 185 OFFCURVE",
"10 184 CURVE",
"11 181 OFFCURVE",
"10 177 OFFCURVE",
"5 174 CURVE",
"4 173 OFFCURVE",
"3 170 OFFCURVE",
"3 165 CURVE SMOOTH",
"3 148 OFFCURVE",
"16 98 OFFCURVE",
"28 86 CURVE",
"33 80 OFFCURVE",
"36 77 OFFCURVE",
"37 77 CURVE",
"46 66 OFFCURVE",
"52 61 OFFCURVE",
"55 60 CURVE",
"62 59 OFFCURVE",
"76 54 OFFCURVE",
"79 45 CURVE",
"80 37 OFFCURVE",
"109 27 OFFCURVE",
"146 19 CURVE",
"165 14 OFFCURVE",
"181 10 OFFCURVE",
"195 5 CURVE",
"202 2 OFFCURVE",
"210 1 OFFCURVE",
"219 1 CURVE SMOOTH",
"224 1 OFFCURVE",
"229 2 OFFCURVE",
"234 3 CURVE",
"248 5 OFFCURVE",
"258 6 OFFCURVE",
"263 7 CURVE",
"284 9 OFFCURVE",
"299 12 OFFCURVE",
"306 17 CURVE",
"314 21 OFFCURVE",
"330 24 OFFCURVE",
"355 26 CURVE",
"351 38 OFFCURVE",
"353 45 OFFCURVE",
"362 47 CURVE",
"370 48 OFFCURVE",
"379 51 OFFCURVE",
"390 55 CURVE",
"391 42 OFFCURVE",
"395 37 OFFCURVE",
"403 38 CURVE SMOOTH",
"411 39 OFFCURVE",
"415 40 OFFCURVE",
"416 40 CURVE",
"420 41 OFFCURVE",
"423 41 OFFCURVE",
"424 39 CURVE",
"426 38 OFFCURVE",
"442 37 OFFCURVE",
"471 37 CURVE SMOOTH",
"473 37 OFFCURVE",
"482 41 OFFCURVE",
"497 48 CURVE SMOOTH",
"529 63 OFFCURVE",
"540 67 OFFCURVE",
"541 108 CURVE SMOOTH",
"541 111 OFFCURVE",
"541 113 OFFCURVE",
"541 116 CURVE SMOOTH",
"541 131 OFFCURVE",
"538 137 OFFCURVE",
"533 135 CURVE",
"526 128 OFFCURVE",
"488 105 OFFCURVE",
"473 104 CURVE SMOOTH",
"436 102 OFFCURVE",
"416 106 OFFCURVE",
"411 117 CURVE SMOOTH",
"406 128 OFFCURVE",
"404 133 OFFCURVE",
"404 133 CURVE",
"403 134 OFFCURVE",
"402 144 OFFCURVE",
"400 161 CURVE",
"397 178 OFFCURVE",
"394 189 OFFCURVE",
"389 194 CURVE SMOOTH",
"388 195 OFFCURVE",
"389 199 OFFCURVE",
"391 206 CURVE SMOOTH",
"395 221 OFFCURVE",
"369 253 OFFCURVE",
"358 253 CURVE SMOOTH",
"353 253 OFFCURVE",
"353 257 OFFCURVE",
"358 265 CURVE",
"334 279 OFFCURVE",
"323 288 OFFCURVE",
"326 292 CURVE",
"328 295 OFFCURVE",
"322 300 OFFCURVE",
"308 307 CURVE",
"308 307 OFFCURVE",
"304 311 OFFCURVE",
"295 320 CURVE SMOOTH",
"279 337 OFFCURVE",
"250 347 OFFCURVE",
"245 344 CURVE",
"242 343 OFFCURVE",
"237 342 OFFCURVE",
"231 341 CURVE"
);
},
{
closed = 1;
nodes = (
"143 278 OFFCURVE",
"154 284 OFFCURVE",
"162 290 CURVE",
"165 293 OFFCURVE",
"172 295 OFFCURVE",
"183 295 CURVE SMOOTH",
"193 295 OFFCURVE",
"207 293 OFFCURVE",
"224 290 CURVE",
"224 290 OFFCURVE",
"229 290 OFFCURVE",
"239 290 CURVE SMOOTH",
"249 290 OFFCURVE",
"254 289 OFFCURVE",
"255 288 CURVE",
"266 260 OFFCURVE",
"271 239 OFFCURVE",
"271 225 CURVE SMOOTH",
"272 196 OFFCURVE",
"280 180 OFFCURVE",
"288 177 CURVE SMOOTH",
"296 174 OFFCURVE",
"297 175 OFFCURVE",
"301 167 CURVE",
"302 162 OFFCURVE",
"298 159 OFFCURVE",
"288 158 CURVE",
"299 143 OFFCURVE",
"293 148 OFFCURVE",
"310 140 CURVE",
"307 131 OFFCURVE",
"306 127 OFFCURVE",
"309 126 CURVE",
"311 125 OFFCURVE",
"314 122 OFFCURVE",
"317 115 CURVE",
"317 114 OFFCURVE",
"321 108 OFFCURVE",
"329 97 CURVE SMOOTH",
"332 93 OFFCURVE",
"333 90 OFFCURVE",
"333 87 CURVE SMOOTH",
"333 82 OFFCURVE",
"328 78 OFFCURVE",
"318 77 CURVE",
"311 76 OFFCURVE",
"301 71 OFFCURVE",
"288 63 CURVE",
"279 56 OFFCURVE",
"271 53 OFFCURVE",
"266 53 CURVE SMOOTH",
"265 53 OFFCURVE",
"264 53 OFFCURVE",
"263 54 CURVE",
"255 57 OFFCURVE",
"196 58 OFFCURVE",
"195 58 CURVE",
"188 56 OFFCURVE",
"182 56 OFFCURVE",
"176 57 CURVE",
"171 59 OFFCURVE",
"159 66 OFFCURVE",
"141 77 CURVE",
"128 86 OFFCURVE",
"120 91 OFFCURVE",
"115 93 CURVE SMOOTH",
"107 96 OFFCURVE",
"108 96 OFFCURVE",
"101 97 CURVE",
"98 97 OFFCURVE",
"91 105 OFFCURVE",
"80 122 CURVE",
"80 122 OFFCURVE",
"78 126 OFFCURVE",
"73 134 CURVE SMOOTH",
"70 139 OFFCURVE",
"68 146 OFFCURVE",
"68 155 CURVE SMOOTH",
"68 160 OFFCURVE",
"68 165 OFFCURVE",
"69 171 CURVE SMOOTH",
"75 206 OFFCURVE",
"78 225 OFFCURVE",
"79 226 CURVE SMOOTH",
"80 227 OFFCURVE",
"83 229 OFFCURVE",
"89 231 CURVE SMOOTH",
"104 236 OFFCURVE",
"112 244 OFFCURVE",
"111 253 CURVE",
"111 262 OFFCURVE",
"117 269 OFFCURVE",
"128 273 CURVE SMOOTH"
);
}
);
width = 574;
}
);
note = alt._a;
},
{
glyphname = alt._e;
lastChange = "2017-11-27 10:26:32 +0000";
layers = (
{
layerId = "7E101512-652C-46F2-AEC5-615E4561C90F";
paths = (
{
closed = 1;
nodes = (
"310 535 OFFCURVE",
"305 539 OFFCURVE",
"296 548 CURVE SMOOTH",
"291 553 OFFCURVE",
"283 555 OFFCURVE",
"272 555 CURVE SMOOTH",
"262 555 OFFCURVE",
"249 553 OFFCURVE",
"234 549 CURVE",
"233 549 OFFCURVE",
"195 545 OFFCURVE",
"195 545 CURVE",
"192 544 OFFCURVE",
"188 544 OFFCURVE",
"185 544 CURVE",
"178 545 OFFCURVE",
"115 512 OFFCURVE",
"112 504 CURVE",
"111 500 OFFCURVE",
"109 497 OFFCURVE",
"108 496 CURVE",
"91 473 OFFCURVE",
"82 460 OFFCURVE",
"81 458 CURVE",
"80 455 OFFCURVE",
"78 451 OFFCURVE",
"75 445 CURVE",
"62 423 OFFCURVE",
"55 410 OFFCURVE",
"54 406 CURVE SMOOTH",
"53 402 OFFCURVE",
"51 396 OFFCURVE",
"48 389 CURVE",
"36 356 OFFCURVE",
"30 337 OFFCURVE",
"29 334 CURVE SMOOTH",
"28 331 OFFCURVE",
"27 324 OFFCURVE",
"24 314 CURVE SMOOTH",
"15 282 OFFCURVE",
"11 265 OFFCURVE",
"13 262 CURVE",
"14 259 OFFCURVE",
"15 254 OFFCURVE",
"14 246 CURVE",
"13 219 OFFCURVE",
"13 205 OFFCURVE",
"12 205 CURVE",
"12 204 OFFCURVE",
"12 204 OFFCURVE",
"11 203 CURVE",
"10 198 OFFCURVE",
"9 192 OFFCURVE",
"9 186 CURVE SMOOTH",
"9 170 OFFCURVE",
"15 142 OFFCURVE",
"27 117 CURVE",
"30 112 OFFCURVE",
"31 107 OFFCURVE",
"31 102 CURVE",
"32 97 OFFCURVE",
"37 91 OFFCURVE",
"47 84 CURVE",
"48 84 OFFCURVE",
"50 79 OFFCURVE",
"55 68 CURVE SMOOTH",
"60 57 OFFCURVE",
"70 48 OFFCURVE",
"85 39 CURVE",
"86 39 OFFCURVE",
"94 35 OFFCURVE",
"109 26 CURVE SMOOTH",
"125 17 OFFCURVE",
"134 13 OFFCURVE",
"136 12 CURVE",
"174 1 OFFCURVE",
"199 -4 OFFCURVE",
"212 -5 CURVE SMOOTH",
"224 -6 OFFCURVE",
"236 -7 OFFCURVE",
"249 -8 CURVE",
"250 -8 OFFCURVE",
"251 -8 OFFCURVE",
"252 -8 CURVE SMOOTH",
"264 -8 OFFCURVE",
"321 -9 OFFCURVE",
"350 7 CURVE",
"351 2 OFFCURVE",
"354 0 OFFCURVE",
"360 0 CURVE",
"366 1 OFFCURVE",
"379 2 OFFCURVE",
"400 4 CURVE SMOOTH",
"427 6 OFFCURVE",
"443 9 OFFCURVE",
"449 14 CURVE",
"456 18 OFFCURVE",
"460 21 OFFCURVE",
"461 22 CURVE",
"464 23 OFFCURVE",
"470 25 OFFCURVE",
"479 27 CURVE",
"489 30 OFFCURVE",
"499 34 OFFCURVE",
"509 41 CURVE",
"486 42 OFFCURVE",
"473 42 OFFCURVE",
"472 41 CURVE SMOOTH",
"471 40 OFFCURVE",
"468 41 OFFCURVE",
"463 46 CURVE",
"494 51 OFFCURVE",
"510 60 OFFCURVE",
"510 75 CURVE",
"510 75 OFFCURVE",
"510 75 OFFCURVE",
"510 75 CURVE",
"509 90 OFFCURVE",
"509 98 OFFCURVE",
"509 98 CURVE SMOOTH",
"509 98 OFFCURVE",
"494 93 OFFCURVE",
"463 84 CURVE SMOOTH",
"432 75 OFFCURVE",
"416 70 OFFCURVE",
"415 70 CURVE SMOOTH",
"415 70 OFFCURVE",
"405 67 OFFCURVE",
"386 62 CURVE SMOOTH",
"366 57 OFFCURVE",
"329 54 OFFCURVE",
"274 54 CURVE SMOOTH",
"245 54 OFFCURVE",
"230 55 OFFCURVE",
"229 56 CURVE SMOOTH",
"228 57 OFFCURVE",
"220 60 OFFCURVE",
"206 63 CURVE SMOOTH",
"173 70 OFFCURVE",
"155 75 OFFCURVE",
"154 76 CURVE",
"152 77 OFFCURVE",
"148 79 OFFCURVE",
"143 83 CURVE SMOOTH",
"118 102 OFFCURVE",
"105 113 OFFCURVE",
"104 114 CURVE SMOOTH",
"103 115 OFFCURVE",
"100 118 OFFCURVE",
"97 121 CURVE SMOOTH",
"96 122 OFFCURVE",
"93 133 OFFCURVE",
"88 154 CURVE SMOOTH",
"83 174 OFFCURVE",
"79 191 OFFCURVE",
"75 204 CURVE",
"74 205 OFFCURVE",
"77 217 OFFCURVE",
"82 240 CURVE SMOOTH",
"87 263 OFFCURVE",
"90 288 OFFCURVE",
"90 317 CURVE",
"101 325 OFFCURVE",
"108 325 OFFCURVE",
"110 318 CURVE",
"113 310 OFFCURVE",
"115 305 OFFCURVE",
"116 303 CURVE",
"143 305 OFFCURVE",
"158 305 OFFCURVE",
"161 302 CURVE SMOOTH",
"164 299 OFFCURVE",
"179 299 OFFCURVE",
"205 303 CURVE",
"206 303 OFFCURVE",
"213 306 OFFCURVE",
"225 312 CURVE SMOOTH",
"238 318 OFFCURVE",
"257 323 OFFCURVE",
"284 328 CURVE",
"285 329 OFFCURVE",
"296 337 OFFCURVE",
"317 353 CURVE SMOOTH",
"338 369 OFFCURVE",
"352 382 OFFCURVE",
"359 393 CURVE SMOOTH",
"362 398 OFFCURVE",
"368 407 OFFCURVE",
"377 418 CURVE",
"385 429 OFFCURVE",
"384 445 OFFCURVE",
"375 464 CURVE SMOOTH",
"368 479 OFFCURVE",
"365 488 OFFCURVE",
"364 490 CURVE",
"364 493 OFFCURVE",
"362 496 OFFCURVE",
"359 500 CURVE",
"353 507 OFFCURVE",
"347 515 OFFCURVE",
"342 524 CURVE",
"337 532 OFFCURVE",
"327 536 OFFCURVE",
"313 535 CURVE"
);
},
{
closed = 1;
nodes = (
"285 490 OFFCURVE",
"287 490 OFFCURVE",
"290 489 CURVE SMOOTH",
"293 488 OFFCURVE",
"306 476 OFFCURVE",
"327 453 CURVE",
"326 442 OFFCURVE",
"311 410 OFFCURVE",
"302 417 CURVE",
"293 423 OFFCURVE",
"288 421 OFFCURVE",
"287 412 CURVE SMOOTH",
"286 403 OFFCURVE",
"277 396 OFFCURVE",
"262 393 CURVE",
"234 385 OFFCURVE",
"185 359 OFFCURVE",
"185 358 CURVE",
"162 343 OFFCURVE",
"157 337 OFFCURVE",
"104 337 CURVE",
"105 343 OFFCURVE",
"106 352 OFFCURVE",
"106 363 CURVE",
"107 374 OFFCURVE",
"112 386 OFFCURVE",
"123 398 CURVE",
"128 404 OFFCURVE",
"133 414 OFFCURVE",
"138 428 CURVE",
"146 456 OFFCURVE",
"174 480 OFFCURVE",
"187 473 CURVE",
"194 470 OFFCURVE",
"200 469 OFFCURVE",
"205 471 CURVE SMOOTH",
"224 479 OFFCURVE",
"237 482 OFFCURVE",
"245 479 CURVE",
"253 477 OFFCURVE",
"260 477 OFFCURVE",
"265 479 CURVE SMOOTH",
"272 482 OFFCURVE",
"275 483 OFFCURVE",
"275 483 CURVE SMOOTH",
"275 483 OFFCURVE",
"278 485 OFFCURVE",
"285 490 CURVE"
);
}
);
width = 574;
}
);
note = alt._e;
},
{
glyphname = alt._e2;
lastChange = "2017-11-27 10:26:32 +0000";
layers = (
{
layerId = "7E101512-652C-46F2-AEC5-615E4561C90F";
paths = (
{
closed = 1;
nodes = (
"417 570 OFFCURVE",
"373 574 OFFCURVE",
"368 574 CURVE SMOOTH",
"368 574 OFFCURVE",
"368 574 OFFCURVE",
"368 574 CURVE SMOOTH",
"365 574 OFFCURVE",
"287 555 OFFCURVE",
"267 548 CURVE",
"260 546 OFFCURVE",
"254 543 OFFCURVE",
"248 538 CURVE",
"243 533 OFFCURVE",
"235 531 OFFCURVE",
"224 530 CURVE",
"223 530 OFFCURVE",
"158 480 OFFCURVE",
"149 471 CURVE",
"132 452 OFFCURVE",
"123 443 OFFCURVE",
"122 443 CURVE",
"121 442 OFFCURVE",
"118 440 OFFCURVE",
"115 437 CURVE SMOOTH",
"100 422 OFFCURVE",
"91 413 OFFCURVE",
"90 411 CURVE",
"89 410 OFFCURVE",
"86 407 OFFCURVE",
"82 403 CURVE",
"74 396 OFFCURVE",
"28 325 OFFCURVE",
"16 300 CURVE SMOOTH",
"7 281 OFFCURVE",
"1 268 OFFCURVE",
"-3 261 CURVE",
"-8 254 OFFCURVE",
"-7 244 OFFCURVE",
"-3 229 CURVE",
"-3 228 OFFCURVE",
"-3 219 OFFCURVE",
"-3 201 CURVE SMOOTH",
"-2 165 OFFCURVE",
"14 99 OFFCURVE",
"41 83 CURVE",
"54 76 OFFCURVE",
"61 72 OFFCURVE",
"62 71 CURVE",
"70 67 OFFCURVE",
"75 63 OFFCURVE",
"76 60 CURVE SMOOTH",
"77 57 OFFCURVE",
"91 46 OFFCURVE",
"118 26 CURVE SMOOTH",
"127 19 OFFCURVE",
"172 5 OFFCURVE",
"193 10 CURVE",
"200 12 OFFCURVE",
"207 9 OFFCURVE",
"213 0 CURVE SMOOTH",
"219 -9 OFFCURVE",
"234 -13 OFFCURVE",
"258 -14 CURVE",
"258 -14 OFFCURVE",
"352 -34 OFFCURVE",
"353 -34 CURVE SMOOTH",
"354 -34 OFFCURVE",
"367 -36 OFFCURVE",
"391 -39 CURVE",
"397 -40 OFFCURVE",
"402 -40 OFFCURVE",
"407 -40 CURVE SMOOTH",
"422 -40 OFFCURVE",
"431 -36 OFFCURVE",
"435 -29 CURVE",
"426 -19 OFFCURVE",
"419 -13 OFFCURVE",
"412 -11 CURVE SMOOTH",
"405 -9 OFFCURVE",
"397 -5 OFFCURVE",
"389 0 CURVE",
"388 1 OFFCURVE",
"372 5 OFFCURVE",
"339 12 CURVE SMOOTH",
"306 19 OFFCURVE",
"288 23 OFFCURVE",
"283 25 CURVE SMOOTH",
"254 37 OFFCURVE",
"236 45 OFFCURVE",
"228 48 CURVE SMOOTH",
"220 51 OFFCURVE",
"215 53 OFFCURVE",
"214 54 CURVE",
"183 65 OFFCURVE",
"165 71 OFFCURVE",
"162 72 CURVE",
"158 73 OFFCURVE",
"153 78 OFFCURVE",
"146 87 CURVE",
"145 88 OFFCURVE",
"135 94 OFFCURVE",
"118 105 CURVE",
"82 126 OFFCURVE",
"54 185 OFFCURVE",
"59 190 CURVE SMOOTH",
"62 193 OFFCURVE",
"63 195 OFFCURVE",
"64 196 CURVE",
"65 201 OFFCURVE",
"65 207 OFFCURVE",
"63 213 CURVE",
"60 219 OFFCURVE",
"65 238 OFFCURVE",
"77 269 CURVE SMOOTH",
"82 282 OFFCURVE",
"84 290 OFFCURVE",
"84 293 CURVE",
"83 295 OFFCURVE",
"88 297 OFFCURVE",
"99 300 CURVE",
"99 300 OFFCURVE",
"102 302 OFFCURVE",
"107 306 CURVE SMOOTH",
"112 310 OFFCURVE",
"120 308 OFFCURVE",
"131 300 CURVE SMOOTH",
"162 277 OFFCURVE",
"181 266 OFFCURVE",
"187 266 CURVE SMOOTH",
"194 266 OFFCURVE",
"197 266 OFFCURVE",
"197 266 CURVE",
"226 259 OFFCURVE",
"270 257 OFFCURVE",
"294 269 CURVE",
"299 272 OFFCURVE",
"306 273 OFFCURVE",
"313 272 CURVE SMOOTH",
"320 271 OFFCURVE",
"338 279 OFFCURVE",
"367 294 CURVE SMOOTH",
"395 309 OFFCURVE",
"410 316 OFFCURVE",
"413 316 CURVE SMOOTH",
"415 316 OFFCURVE",
"417 316 OFFCURVE",
"418 316 CURVE",
"429 336 OFFCURVE",
"437 348 OFFCURVE",
"442 351 CURVE SMOOTH",
"447 354 OFFCURVE",
"450 356 OFFCURVE",
"451 356 CURVE",
"480 377 OFFCURVE",
"477 389 OFFCURVE",
"453 408 CURVE",
"474 407 OFFCURVE",
"485 410 OFFCURVE",
"484 417 CURVE",
"484 424 OFFCURVE",
"484 427 OFFCURVE",
"484 428 CURVE",
"487 437 OFFCURVE",
"488 444 OFFCURVE",
"488 449 CURVE SMOOTH",
"488 451 OFFCURVE",
"488 453 OFFCURVE",
"487 454 CURVE",
"485 457 OFFCURVE",
"484 463 OFFCURVE",
"485 472 CURVE",
"485 473 OFFCURVE",
"481 483 OFFCURVE",
"474 502 CURVE",
"466 521 OFFCURVE",
"454 538 OFFCURVE",
"438 551 CURVE"
);
},
{
closed = 1;
nodes = (
"264 487 OFFCURVE",
"265 487 OFFCURVE",
"270 483 CURVE SMOOTH",
"275 479 OFFCURVE",
"277 477 OFFCURVE",
"277 477 CURVE",
"296 482 OFFCURVE",
"310 481 OFFCURVE",
"318 476 CURVE",
"325 471 OFFCURVE",
"329 469 OFFCURVE",
"330 468 CURVE",
"341 469 OFFCURVE",
"348 473 OFFCURVE",
"351 480 CURVE",
"355 486 OFFCURVE",
"359 489 OFFCURVE",
"364 490 CURVE",
"366 490 OFFCURVE",
"368 490 OFFCURVE",
"371 490 CURVE SMOOTH",
"376 490 OFFCURVE",
"382 490 OFFCURVE",
"388 489 CURVE",
"397 488 OFFCURVE",
"406 481 OFFCURVE",
"414 469 CURVE SMOOTH",
"426 450 OFFCURVE",
"431 421 OFFCURVE",
"431 400 CURVE SMOOTH",
"431 393 OFFCURVE",
"430 390 OFFCURVE",
"429 390 CURVE SMOOTH",
"425 390 OFFCURVE",
"418 384 OFFCURVE",
"410 377 CURVE",
"406 374 OFFCURVE",
"398 368 OFFCURVE",
"387 361 CURVE",
"387 361 OFFCURVE",
"387 360 OFFCURVE",
"386 359 CURVE",
"383 355 OFFCURVE",
"308 327 OFFCURVE",
"265 327 CURVE SMOOTH",
"262 327 OFFCURVE",
"259 327 OFFCURVE",
"256 328 CURVE",
"233 329 OFFCURVE",
"215 331 OFFCURVE",
"202 333 CURVE",
"201 333 OFFCURVE",
"166 338 OFFCURVE",
"169 355 CURVE",
"180 348 OFFCURVE",
"182 359 OFFCURVE",
"189 374 CURVE",
"164 379 OFFCURVE",
"152 381 OFFCURVE",
"151 382 CURVE SMOOTH",
"150 383 OFFCURVE",
"149 383 OFFCURVE",
"148 384 CURVE",
"148 384 OFFCURVE",
"152 387 OFFCURVE",
"161 393 CURVE",
"169 400 OFFCURVE",
"177 409 OFFCURVE",
"185 422 CURVE",
"185 422 OFFCURVE",
"185 424 OFFCURVE",
"186 427 CURVE SMOOTH",
"187 430 OFFCURVE",
"199 439 OFFCURVE",
"222 452 CURVE",
"233 459 OFFCURVE",
"240 462 OFFCURVE",
"242 461 CURVE SMOOTH",
"244 460 OFFCURVE",
"252 468 OFFCURVE",
"266 483 CURVE"
);
}
);
width = 574;
}
);
note = alt._e2;
},
{
glyphname = alt._i;
lastChange = "2017-11-27 10:26:32 +0000";
layers = (
{
layerId = "7E101512-652C-46F2-AEC5-615E4561C90F";
paths = (
{
closed = 1;
nodes = (
"307 817 OFFCURVE",
"294 829 OFFCURVE",
"277 831 CURVE",
"275 831 OFFCURVE",
"273 831 OFFCURVE",
"271 831 CURVE SMOOTH",
"240 831 OFFCURVE",
"228 804 OFFCURVE",
"228 787 CURVE SMOOTH",
"228 785 OFFCURVE",
"228 783 OFFCURVE",
"229 781 CURVE",
"231 770 OFFCURVE",
"233 757 OFFCURVE",
"235 741 CURVE",
"236 729 OFFCURVE",
"242 720 OFFCURVE",
"251 715 CURVE SMOOTH",
"261 709 OFFCURVE",
"265 711 OFFCURVE",
"264 722 CURVE",
"273 721 OFFCURVE",
"317 701 OFFCURVE",
"290 678 CURVE",
"290 678 OFFCURVE",
"291 678 OFFCURVE",
"293 677 CURVE",
"296 676 OFFCURVE",
"299 676 OFFCURVE",
"304 676 CURVE",
"320 649 OFFCURVE",
"331 636 OFFCURVE",
"338 636 CURVE SMOOTH",
"339 636 OFFCURVE",
"339 636 OFFCURVE",
"339 636 CURVE",
"346 638 OFFCURVE",
"352 640 OFFCURVE",
"356 641 CURVE",
"353 671 OFFCURVE",
"352 686 OFFCURVE",
"353 687 CURVE",
"353 687 OFFCURVE",
"352 691 OFFCURVE",
"349 698 CURVE SMOOTH",
"336 727 OFFCURVE",
"330 743 OFFCURVE",
"331 748 CURVE",
"332 752 OFFCURVE",
"332 754 OFFCURVE",
"333 755 CURVE",
"336 757 OFFCURVE",
"334 763 OFFCURVE",
"327 773 CURVE",
"321 784 OFFCURVE",
"317 791 OFFCURVE",
"315 795 CURVE"
);
},
{
closed = 1;
nodes = (
"239 367 OFFCURVE",
"233 373 OFFCURVE",
"224 373 CURVE SMOOTH",
"223 373 OFFCURVE",
"221 373 OFFCURVE",
"220 373 CURVE",
"209 371 OFFCURVE",
"204 371 OFFCURVE",
"205 373 CURVE",
"197 363 OFFCURVE",
"192 355 OFFCURVE",
"189 349 CURVE",
"187 343 OFFCURVE",
"183 339 OFFCURVE",
"177 336 CURVE",
"190 304 OFFCURVE",
"197 286 OFFCURVE",
"198 282 CURVE",
"199 277 OFFCURVE",
"197 273 OFFCURVE",
"192 268 CURVE SMOOTH",
"187 263 OFFCURVE",
"188 255 OFFCURVE",
"195 246 CURVE",
"202 236 OFFCURVE",
"205 221 OFFCURVE",
"204 200 CURVE",
"194 184 OFFCURVE",
"190 171 OFFCURVE",
"193 161 CURVE SMOOTH",
"196 152 OFFCURVE",
"199 135 OFFCURVE",
"203 111 CURVE",
"207 92 OFFCURVE",
"210 82 OFFCURVE",
"212 81 CURVE SMOOTH",
"214 80 OFFCURVE",
"220 70 OFFCURVE",
"231 51 CURVE",
"234 45 OFFCURVE",
"247 36 OFFCURVE",
"268 23 CURVE",
"289 11 OFFCURVE",
"302 3 OFFCURVE",
"307 -1 CURVE SMOOTH",
"311 -4 OFFCURVE",
"323 -5 OFFCURVE",
"344 -6 CURVE",
"351 -7 OFFCURVE",
"357 -7 OFFCURVE",
"363 -7 CURVE SMOOTH",
"374 -7 OFFCURVE",
"384 -6 OFFCURVE",
"391 -5 CURVE SMOOTH",
"423 -1 OFFCURVE",
"441 3 OFFCURVE",
"445 6 CURVE SMOOTH",
"449 9 OFFCURVE",
"451 10 OFFCURVE",
"451 10 CURVE",
"446 25 OFFCURVE",
"442 33 OFFCURVE",
"439 34 CURVE",
"435 35 OFFCURVE",
"425 37 OFFCURVE",
"408 40 CURVE SMOOTH",
"377 45 OFFCURVE",
"362 48 OFFCURVE",
"361 48 CURVE SMOOTH",
"360 48 OFFCURVE",
"360 48 OFFCURVE",
"359 48 CURVE SMOOTH",
"356 48 OFFCURVE",
"345 53 OFFCURVE",
"327 63 CURVE SMOOTH",
"291 84 OFFCURVE",
"290 85 OFFCURVE",
"286 97 CURVE",
"284 102 OFFCURVE",
"281 111 OFFCURVE",
"276 123 CURVE SMOOTH",
"273 130 OFFCURVE",
"272 145 OFFCURVE",
"273 166 CURVE SMOOTH",
"274 187 OFFCURVE",
"272 208 OFFCURVE",
"268 228 CURVE",
"268 229 OFFCURVE",
"267 234 OFFCURVE",
"265 244 CURVE",
"264 255 OFFCURVE",
"264 264 OFFCURVE",
"267 271 CURVE",
"272 286 OFFCURVE",
"270 302 OFFCURVE",
"261 319 CURVE SMOOTH",
"252 336 OFFCURVE",
"247 349 OFFCURVE",
"244 356 CURVE SMOOTH"
);
}
);
width = 574;
}
);
note = alt._i;
},
{
glyphname = alt._m;
lastChange = "2017-11-27 10:26:32 +0000";
layers = (
{
layerId = "7E101512-652C-46F2-AEC5-615E4561C90F";
paths = (
{
closed = 1;
nodes = (
"638 428 OFFCURVE",
"629 458 OFFCURVE",
"618 465 CURVE",
"611 469 OFFCURVE",
"604 471 OFFCURVE",
"596 471 CURVE SMOOTH",
"585 471 OFFCURVE",
"576 472 OFFCURVE",
"564 447 CURVE SMOOTH",
"558 435 OFFCURVE",
"554 428 OFFCURVE",
"552 425 CURVE",
"547 420 OFFCURVE",
"542 413 OFFCURVE",
"538 404 CURVE SMOOTH",
"534 395 OFFCURVE",
"521 373 OFFCURVE",
"499 337 CURVE SMOOTH",
"488 319 OFFCURVE",
"482 320 OFFCURVE",
"483 339 CURVE SMOOTH",
"484 359 OFFCURVE",
"484 375 OFFCURVE",
"485 386 CURVE",
"485 386 OFFCURVE",
"450 439 OFFCURVE",
"443 444 CURVE",
"424 445 OFFCURVE",
"410 444 OFFCURVE",
"403 440 CURVE",
"395 437 OFFCURVE",
"391 435 OFFCURVE",
"390 434 CURVE",
"375 424 OFFCURVE",
"366 419 OFFCURVE",
"363 420 CURVE",
"356 421 OFFCURVE",
"299 365 OFFCURVE",
"296 354 CURVE",
"295 349 OFFCURVE",
"291 347 OFFCURVE",
"285 348 CURVE",
"282 365 OFFCURVE",
"280 374 OFFCURVE",
"280 375 CURVE SMOOTH",
"280 376 OFFCURVE",
"278 380 OFFCURVE",
"273 388 CURVE",
"262 408 OFFCURVE",
"252 423 OFFCURVE",
"244 432 CURVE",
"237 441 OFFCURVE",
"231 447 OFFCURVE",
"228 452 CURVE",
"214 457 OFFCURVE",
"199 455 OFFCURVE",
"184 448 CURVE SMOOTH",
"169 441 OFFCURVE",
"160 438 OFFCURVE",
"157 437 CURVE",
"157 437 OFFCURVE",
"154 435 OFFCURVE",
"149 430 CURVE",
"143 425 OFFCURVE",
"128 412 OFFCURVE",
"103 390 CURVE SMOOTH",
"90 379 OFFCURVE",
"84 371 OFFCURVE",
"85 368 CURVE",
"86 364 OFFCURVE",
"82 360 OFFCURVE",
"75 355 CURVE",
"64 348 OFFCURVE",
"58 342 OFFCURVE",
"58 335 CURVE",
"59 328 OFFCURVE",
"56 321 OFFCURVE",
"50 312 CURVE SMOOTH",
"44 303 OFFCURVE",
"36 291 OFFCURVE",
"25 276 CURVE SMOOTH",
"14 261 OFFCURVE",
"9 254 OFFCURVE",
"9 254 CURVE",
"8 253 OFFCURVE",
"8 252 OFFCURVE",
"8 250 CURVE SMOOTH",
"8 248 OFFCURVE",
"1 218 OFFCURVE",
"-14 159 CURVE SMOOTH",
"-22 129 OFFCURVE",
"-26 114 OFFCURVE",
"-26 114 CURVE SMOOTH",
"-27 114 OFFCURVE",
"-27 114 OFFCURVE",
"-27 113 CURVE",
"-28 112 OFFCURVE",
"-50 61 OFFCURVE",
"-50 30 CURVE",
"-43 25 OFFCURVE",
"-38 22 OFFCURVE",
"-36 20 CURVE",
"-33 18 OFFCURVE",
"-24 15 OFFCURVE",
"-9 12 CURVE",
"5 52 OFFCURVE",
"12 72 OFFCURVE",
"12 72 CURVE",
"13 72 OFFCURVE",
"13 72 OFFCURVE",
"13 73 CURVE",
"20 94 OFFCURVE",
"22 105 OFFCURVE",
"21 106 CURVE SMOOTH",
"18 109 OFFCURVE",
"26 126 OFFCURVE",
"30 126 CURVE SMOOTH",
"31 126 OFFCURVE",
"33 131 OFFCURVE",
"35 141 CURVE",
"35 142 OFFCURVE",
"56 207 OFFCURVE",
"69 232 CURVE SMOOTH",
"84 263 OFFCURVE",
"91 278 OFFCURVE",
"91 279 CURVE SMOOTH",
"91 280 OFFCURVE",
"91 280 OFFCURVE",
"91 280 CURVE",
"102 307 OFFCURVE",
"113 326 OFFCURVE",
"124 335 CURVE SMOOTH",
"148 355 OFFCURVE",
"169 372 OFFCURVE",
"197 363 CURVE SMOOTH",
"210 359 OFFCURVE",
"217 357 OFFCURVE",
"218 356 CURVE",
"219 351 OFFCURVE",
"219 348 OFFCURVE",
"219 345 CURVE SMOOTH",
"219 342 OFFCURVE",
"222 333 OFFCURVE",
"227 318 CURVE SMOOTH",
"234 297 OFFCURVE",
"237 276 OFFCURVE",
"238 254 CURVE",
"238 233 OFFCURVE",
"237 220 OFFCURVE",
"236 217 CURVE",
"229 200 OFFCURVE",
"226 188 OFFCURVE",
"227 181 CURVE",
"230 166 OFFCURVE",
"231 138 OFFCURVE",
"212 107 CURVE",
"203 91 OFFCURVE",
"200 63 OFFCURVE",
"203 24 CURVE",
"220 6 OFFCURVE",
"233 0 OFFCURVE",
"243 7 CURVE",
"254 14 OFFCURVE",
"260 18 OFFCURVE",
"262 19 CURVE",
"268 24 OFFCURVE",
"275 35 OFFCURVE",
"282 53 CURVE SMOOTH",
"295 88 OFFCURVE",
"311 138 OFFCURVE",
"311 183 CURVE SMOOTH",
"311 227 OFFCURVE",
"318 257 OFFCURVE",
"321 257 CURVE SMOOTH",
"322 257 OFFCURVE",
"322 261 OFFCURVE",
"323 268 CURVE",
"326 297 OFFCURVE",
"351 317 OFFCURVE",
"366 330 CURVE",
"378 342 OFFCURVE",
"433 349 OFFCURVE",
"417 322 CURVE",
"416 321 OFFCURVE",
"416 310 OFFCURVE",
"416 289 CURVE SMOOTH",
"416 268 OFFCURVE",
"415 256 OFFCURVE",
"414 251 CURVE",
"411 241 OFFCURVE",
"408 224 OFFCURVE",
"405 201 CURVE SMOOTH",
"402 177 OFFCURVE",
"399 161 OFFCURVE",
"398 153 CURVE",
"397 150 OFFCURVE",
"395 147 OFFCURVE",
"392 144 CURVE SMOOTH",
"389 141 OFFCURVE",
"380 110 OFFCURVE",
"365 49 CURVE SMOOTH",
"359 24 OFFCURVE",
"358 8 OFFCURVE",
"361 1 CURVE SMOOTH",
"364 -6 OFFCURVE",
"365 -9 OFFCURVE",
"365 -10 CURVE",
"381 -30 OFFCURVE",
"399 -22 OFFCURVE",
"410 -19 CURVE",
"425 -16 OFFCURVE",
"444 3 OFFCURVE",
"443 46 CURVE",
"443 47 OFFCURVE",
"445 54 OFFCURVE",
"450 69 CURVE SMOOTH",
"455 84 OFFCURVE",
"463 101 OFFCURVE",
"474 120 CURVE SMOOTH",
"489 148 OFFCURVE",
"491 176 OFFCURVE",
"488 192 CURVE",
"488 193 OFFCURVE",
"489 198 OFFCURVE",
"490 205 CURVE SMOOTH",
"491 212 OFFCURVE",
"500 229 OFFCURVE",
"519 258 CURVE SMOOTH",
"526 268 OFFCURVE",
"530 278 OFFCURVE",
"533 288 CURVE SMOOTH",
"536 297 OFFCURVE",
"542 307 OFFCURVE",
"551 317 CURVE",
"564 312 OFFCURVE",
"570 310 OFFCURVE",
"571 310 CURVE",
"571 310 OFFCURVE",
"573 310 OFFCURVE",
"576 311 CURVE",
"581 297 OFFCURVE",
"583 290 OFFCURVE",
"583 289 CURVE",
"583 289 OFFCURVE",
"582 285 OFFCURVE",
"581 277 CURVE SMOOTH",
"579 264 OFFCURVE",
"577 244 OFFCURVE",
"574 219 CURVE SMOOTH",
"569 167 OFFCURVE",
"557 91 OFFCURVE",
"554 84 CURVE",
"553 80 OFFCURVE",
"552 77 OFFCURVE",
"552 75 CURVE",
"549 40 OFFCURVE",
"547 21 OFFCURVE",
"548 20 CURVE SMOOTH",
"549 19 OFFCURVE",
"552 7 OFFCURVE",
"557 -16 CURVE",
"568 -23 OFFCURVE",
"574 -26 OFFCURVE",
"576 -27 CURVE SMOOTH",
"578 -28 OFFCURVE",
"582 -30 OFFCURVE",
"588 -35 CURVE",
"599 -26 OFFCURVE",
"604 -21 OFFCURVE",
"605 -21 CURVE",
"605 -21 OFFCURVE",
"619 0 OFFCURVE",
"618 9 CURVE",
"618 14 OFFCURVE",
"620 33 OFFCURVE",
"623 68 CURVE",
"623 69 OFFCURVE",
"630 142 OFFCURVE",
"635 158 CURVE",
"636 159 OFFCURVE",
"636 173 OFFCURVE",
"637 200 CURVE SMOOTH",
"638 228 OFFCURVE",
"639 242 OFFCURVE",
"640 243 CURVE",
"644 255 OFFCURVE",
"646 276 OFFCURVE",
"646 305 CURVE SMOOTH",
"646 308 OFFCURVE",
"646 312 OFFCURVE",
"645 315 CURVE",
"645 350 OFFCURVE",
"645 370 OFFCURVE",
"644 375 CURVE"
);
}
);
width = 574;
}
);
note = alt._m;
},
{
glyphname = alt._m2;
lastChange = "2017-11-27 10:26:32 +0000";
layers = (
{
layerId = "7E101512-652C-46F2-AEC5-615E4561C90F";
paths = (
{
closed = 1;
nodes = (
"237 377 OFFCURVE",
"229 387 OFFCURVE",
"220 392 CURVE SMOOTH",
"215 395 OFFCURVE",
"207 396 OFFCURVE",
"198 396 CURVE SMOOTH",
"191 396 OFFCURVE",
"184 395 OFFCURVE",
"177 394 CURVE SMOOTH",
"144 389 OFFCURVE",
"97 325 OFFCURVE",
"85 306 CURVE",
"85 306 OFFCURVE",
"79 298 OFFCURVE",
"67 281 CURVE",
"54 265 OFFCURVE",
"45 253 OFFCURVE",
"38 246 CURVE SMOOTH",
"7 215 OFFCURVE",
"-11 195 OFFCURVE",
"-14 188 CURVE SMOOTH",
"-17 181 OFFCURVE",
"-22 174 OFFCURVE",
"-27 167 CURVE SMOOTH",
"-40 148 OFFCURVE",
"-46 137 OFFCURVE",
"-46 134 CURVE",
"-45 126 OFFCURVE",
"-78 93 OFFCURVE",
"-86 88 CURVE SMOOTH",
"-94 83 OFFCURVE",
"-108 29 OFFCURVE",
"-107 24 CURVE",
"-106 21 OFFCURVE",
"-106 17 OFFCURVE",
"-108 12 CURVE",
"-110 5 OFFCURVE",
"-111 0 OFFCURVE",
"-111 -3 CURVE SMOOTH",
"-111 -5 OFFCURVE",
"-111 -6 OFFCURVE",
"-110 -7 CURVE",
"-108 -10 OFFCURVE",
"-99 -17 OFFCURVE",
"-82 -29 CURVE",
"-73 -36 OFFCURVE",
"-47 -19 OFFCURVE",
"-38 -10 CURVE",
"-38 -9 OFFCURVE",
"-13 50 OFFCURVE",
"6 78 CURVE SMOOTH",
"10 84 OFFCURVE",
"10 91 OFFCURVE",
"7 99 CURVE SMOOTH",
"4 107 OFFCURVE",
"13 123 OFFCURVE",
"36 148 CURVE SMOOTH",
"45 158 OFFCURVE",
"52 163 OFFCURVE",
"57 164 CURVE SMOOTH",
"62 165 OFFCURVE",
"63 170 OFFCURVE",
"59 180 CURVE",
"55 192 OFFCURVE",
"83 212 OFFCURVE",
"91 216 CURVE",
"98 219 OFFCURVE",
"101 225 OFFCURVE",
"99 234 CURVE",
"96 244 OFFCURVE",
"105 251 OFFCURVE",
"125 254 CURVE",
"138 257 OFFCURVE",
"147 261 OFFCURVE",
"150 266 CURVE",
"154 272 OFFCURVE",
"168 281 OFFCURVE",
"191 294 CURVE",
"196 287 OFFCURVE",
"215 244 OFFCURVE",
"207 201 CURVE",
"206 194 OFFCURVE",
"208 190 OFFCURVE",
"211 187 CURVE SMOOTH",
"214 184 OFFCURVE",
"214 161 OFFCURVE",
"210 117 CURVE SMOOTH",
"206 70 OFFCURVE",
"204 42 OFFCURVE",
"204 32 CURVE",
"205 22 OFFCURVE",
"206 14 OFFCURVE",
"207 8 CURVE SMOOTH",
"210 -7 OFFCURVE",
"211 -16 OFFCURVE",
"210 -19 CURVE SMOOTH",
"209 -22 OFFCURVE",
"212 -28 OFFCURVE",
"219 -37 CURVE",
"237 -40 OFFCURVE",
"246 -41 OFFCURVE",
"247 -41 CURVE",
"247 -41 OFFCURVE",
"253 -40 OFFCURVE",
"265 -37 CURVE",
"268 -32 OFFCURVE",
"270 -29 OFFCURVE",
"270 -28 CURVE",
"270 -28 OFFCURVE",
"271 -23 OFFCURVE",
"273 -14 CURVE",
"273 -14 OFFCURVE",
"285 60 OFFCURVE",
"284 72 CURVE",
"283 77 OFFCURVE",
"288 86 OFFCURVE",
"299 97 CURVE",
"320 120 OFFCURVE",
"329 129 OFFCURVE",
"334 156 CURVE SMOOTH",
"336 169 OFFCURVE",
"350 190 OFFCURVE",
"376 218 CURVE",
"385 227 OFFCURVE",
"390 234 OFFCURVE",
"393 239 CURVE SMOOTH",
"396 244 OFFCURVE",
"403 243 OFFCURVE",
"413 238 CURVE",
"418 227 OFFCURVE",
"423 184 OFFCURVE",
"412 151 CURVE",
"411 146 OFFCURVE",
"411 137 OFFCURVE",
"413 125 CURVE SMOOTH",
"415 113 OFFCURVE",
"413 83 OFFCURVE",
"407 34 CURVE",
"407 32 OFFCURVE",
"407 27 OFFCURVE",
"406 20 CURVE SMOOTH",
"405 12 OFFCURVE",
"421 8 OFFCURVE",
"452 8 CURVE",
"464 19 OFFCURVE",
"470 27 OFFCURVE",
"470 32 CURVE SMOOTH",
"470 37 OFFCURVE",
"472 45 OFFCURVE",
"475 56 CURVE",
"476 61 OFFCURVE",
"476 70 OFFCURVE",
"475 82 CURVE",
"471 106 OFFCURVE",
"503 164 OFFCURVE",
"507 164 CURVE SMOOTH",
"510 164 OFFCURVE",
"513 168 OFFCURVE",
"518 176 CURVE SMOOTH",
"533 199 OFFCURVE",
"540 213 OFFCURVE",
"540 216 CURVE SMOOTH",
"540 223 OFFCURVE",
"539 226 OFFCURVE",
"548 229 CURVE",
"553 231 OFFCURVE",
"565 241 OFFCURVE",
"586 260 CURVE",
"633 249 OFFCURVE",
"608 209 OFFCURVE",
"605 201 CURVE",
"604 199 OFFCURVE",
"603 186 OFFCURVE",
"602 163 CURVE SMOOTH",
"601 140 OFFCURVE",
"600 116 OFFCURVE",
"599 89 CURVE",
"599 88 OFFCURVE",
"597 80 OFFCURVE",
"593 65 CURVE SMOOTH",
"584 33 OFFCURVE",
"589 -18 OFFCURVE",
"593 -22 CURVE",
"595 -25 OFFCURVE",
"596 -29 OFFCURVE",
"597 -34 CURVE",
"599 -52 OFFCURVE",
"601 -62 OFFCURVE",
"602 -65 CURVE",
"603 -70 OFFCURVE",
"634 -85 OFFCURVE",
"645 -85 CURVE SMOOTH",
"653 -85 OFFCURVE",
"656 -81 OFFCURVE",
"655 -72 CURVE SMOOTH",
"653 -56 OFFCURVE",
"652 -47 OFFCURVE",
"652 -45 CURVE",
"650 -9 OFFCURVE",
"651 13 OFFCURVE",
"655 20 CURVE SMOOTH",
"659 27 OFFCURVE",
"661 32 OFFCURVE",
"661 33 CURVE",
"664 43 OFFCURVE",
"665 56 OFFCURVE",
"664 73 CURVE SMOOTH",
"663 90 OFFCURVE",
"664 106 OFFCURVE",
"668 122 CURVE",
"672 143 OFFCURVE",
"674 156 OFFCURVE",
"674 163 CURVE SMOOTH",
"674 170 OFFCURVE",
"676 193 OFFCURVE",
"681 233 CURVE SMOOTH",
"683 249 OFFCURVE",
"686 259 OFFCURVE",
"690 264 CURVE",
"691 265 OFFCURVE",
"691 266 OFFCURVE",
"691 268 CURVE SMOOTH",
"691 275 OFFCURVE",
"686 287 OFFCURVE",
"675 304 CURVE SMOOTH",
"672 309 OFFCURVE",
"672 314 OFFCURVE",
"673 319 CURVE SMOOTH",
"674 325 OFFCURVE",
"666 335 OFFCURVE",
"648 349 CURVE SMOOTH",
"627 366 OFFCURVE",
"600 345 OFFCURVE",
"596 342 CURVE SMOOTH",
"581 331 OFFCURVE",
"569 324 OFFCURVE",
"558 319 CURVE SMOOTH",
"547 314 OFFCURVE",
"534 300 OFFCURVE",
"517 277 CURVE",
"504 258 OFFCURVE",
"494 250 OFFCURVE",
"487 252 CURVE",
"480 255 OFFCURVE",
"477 256 OFFCURVE",
"476 256 CURVE",
"479 272 OFFCURVE",
"482 283 OFFCURVE",
"486 289 CURVE",
"491 295 OFFCURVE",
"486 307 OFFCURVE",
"472 325 CURVE",
"470 328 OFFCURVE",
"465 338 OFFCURVE",
"457 357 CURVE SMOOTH",
"442 394 OFFCURVE",
"371 341 OFFCURVE",
"370 334 CURVE",
"369 331 OFFCURVE",
"366 327 OFFCURVE",
"360 322 CURVE",
"360 322 OFFCURVE",
"321 263 OFFCURVE",
"321 262 CURVE",
"320 261 OFFCURVE",
"316 255 OFFCURVE",
"308 242 CURVE SMOOTH",
"291 215 OFFCURVE",
"273 191 OFFCURVE",
"273 223 CURVE SMOOTH",
"273 240 OFFCURVE",
"271 254 OFFCURVE",
"268 265 CURVE",
"268 266 OFFCURVE",
"269 273 OFFCURVE",
"271 286 CURVE SMOOTH",
"273 298 OFFCURVE",
"264 323 OFFCURVE",
"245 362 CURVE"
);
}
);
width = 574;
}
);
note = alt._m2;
},
